%TF.GenerationSoftware,KiCad,Pcbnew,9.0.9-9.0.9~ubuntu24.04.1*%
%TF.CreationDate,2026-08-28T14:24:10+02:00*%
%TF.ProjectId,ChrisPCB,43687269-7350-4434-922e-6b696361645f,rev?*%
%TF.SameCoordinates,Original*%
%TF.FileFunction,Soldermask,Top*%
%TF.FilePolarity,Negative*%
%FSLAX46Y46*%
G04 Gerber Fmt 4.6, Leading zero omitted, Abs format (unit mm)*
G04 Created by KiCad (PCBNEW 9.0.9-9.0.9~ubuntu24.04.1) date 2026-08-28 14:24:10*
%MOMM*%
%LPD*%
G01*
G04 APERTURE LIST*
G04 Aperture macros list*
%AMRoundRect*
0 Rectangle with rounded corners*
0 $1 Rounding radius*
0 $2 $3 $4 $5 $6 $7 $8 $9 X,Y pos of 4 corners*
0 Add a 4 corners polygon primitive as box body*
4,1,4,$2,$3,$4,$5,$6,$7,$8,$9,$2,$3,0*
0 Add four circle primitives for the rounded corners*
1,1,$1+$1,$2,$3*
1,1,$1+$1,$4,$5*
1,1,$1+$1,$6,$7*
1,1,$1+$1,$8,$9*
0 Add four rect primitives between the rounded corners*
20,1,$1+$1,$2,$3,$4,$5,0*
20,1,$1+$1,$4,$5,$6,$7,0*
20,1,$1+$1,$6,$7,$8,$9,0*
20,1,$1+$1,$8,$9,$2,$3,0*%
G04 Aperture macros list end*
%ADD10C,0.010000*%
%ADD11O,1.104000X1.904000*%
%ADD12O,1.104000X2.204000*%
%ADD13C,2.483000*%
%ADD14C,1.300000*%
%ADD15R,2.600000X2.600000*%
%ADD16RoundRect,0.062500X0.350000X-0.062500X0.350000X0.062500X-0.350000X0.062500X-0.350000X-0.062500X0*%
%ADD17RoundRect,0.062500X0.062500X-0.350000X0.062500X0.350000X-0.062500X0.350000X-0.062500X-0.350000X0*%
%ADD18R,1.600000X0.900000*%
%ADD19RoundRect,0.062500X-0.062500X0.187500X-0.062500X-0.187500X0.062500X-0.187500X0.062500X0.187500X0*%
%ADD20RoundRect,0.147500X0.172500X-0.147500X0.172500X0.147500X-0.172500X0.147500X-0.172500X-0.147500X0*%
%ADD21RoundRect,0.147500X0.147500X0.172500X-0.147500X0.172500X-0.147500X-0.172500X0.147500X-0.172500X0*%
%ADD22RoundRect,0.140000X0.140000X0.170000X-0.140000X0.170000X-0.140000X-0.170000X0.140000X-0.170000X0*%
%ADD23RoundRect,0.140000X0.170000X-0.140000X0.170000X0.140000X-0.170000X0.140000X-0.170000X-0.140000X0*%
%ADD24R,0.400000X1.350000*%
%ADD25O,1.200000X1.900000*%
%ADD26R,1.200000X1.900000*%
%ADD27C,1.450000*%
%ADD28R,1.500000X1.900000*%
%ADD29RoundRect,0.140000X-0.170000X0.140000X-0.170000X-0.140000X0.170000X-0.140000X0.170000X0.140000X0*%
%ADD30C,6.400000*%
%ADD31C,1.400000*%
%ADD32RoundRect,0.100000X-0.100000X0.637500X-0.100000X-0.637500X0.100000X-0.637500X0.100000X0.637500X0*%
%ADD33RoundRect,0.135000X0.135000X0.185000X-0.135000X0.185000X-0.135000X-0.185000X0.135000X-0.185000X0*%
%ADD34RoundRect,0.140000X-0.140000X-0.170000X0.140000X-0.170000X0.140000X0.170000X-0.140000X0.170000X0*%
%ADD35RoundRect,0.150000X-0.150000X0.512500X-0.150000X-0.512500X0.150000X-0.512500X0.150000X0.512500X0*%
%ADD36RoundRect,0.150000X0.512500X0.150000X-0.512500X0.150000X-0.512500X-0.150000X0.512500X-0.150000X0*%
%ADD37C,1.500000*%
%ADD38RoundRect,0.135000X0.185000X-0.135000X0.185000X0.135000X-0.185000X0.135000X-0.185000X-0.135000X0*%
%ADD39RoundRect,0.250000X-0.325000X-0.650000X0.325000X-0.650000X0.325000X0.650000X-0.325000X0.650000X0*%
%ADD40RoundRect,0.250000X0.262500X0.450000X-0.262500X0.450000X-0.262500X-0.450000X0.262500X-0.450000X0*%
%ADD41RoundRect,0.135000X-0.135000X-0.185000X0.135000X-0.185000X0.135000X0.185000X-0.135000X0.185000X0*%
%ADD42RoundRect,0.150000X-0.587500X-0.150000X0.587500X-0.150000X0.587500X0.150000X-0.587500X0.150000X0*%
%ADD43RoundRect,0.102000X-0.400000X-0.300000X0.400000X-0.300000X0.400000X0.300000X-0.400000X0.300000X0*%
%ADD44RoundRect,0.135000X-0.185000X0.135000X-0.185000X-0.135000X0.185000X-0.135000X0.185000X0.135000X0*%
%ADD45RoundRect,0.162500X-0.367500X-0.162500X0.367500X-0.162500X0.367500X0.162500X-0.367500X0.162500X0*%
%ADD46RoundRect,0.250000X-0.625000X0.350000X-0.625000X-0.350000X0.625000X-0.350000X0.625000X0.350000X0*%
%ADD47O,1.750000X1.200000*%
%ADD48RoundRect,0.102000X0.400000X0.300000X-0.400000X0.300000X-0.400000X-0.300000X0.400000X-0.300000X0*%
%ADD49RoundRect,0.160000X0.160000X-0.197500X0.160000X0.197500X-0.160000X0.197500X-0.160000X-0.197500X0*%
%ADD50RoundRect,0.101600X-0.650000X-0.350000X0.650000X-0.350000X0.650000X0.350000X-0.650000X0.350000X0*%
%ADD51R,1.700000X1.700000*%
%ADD52RoundRect,0.160000X-0.197500X-0.160000X0.197500X-0.160000X0.197500X0.160000X-0.197500X0.160000X0*%
%ADD53RoundRect,0.250000X-0.600000X-0.725000X0.600000X-0.725000X0.600000X0.725000X-0.600000X0.725000X0*%
%ADD54O,1.700000X1.950000*%
%ADD55RoundRect,0.160000X-0.160000X0.197500X-0.160000X-0.197500X0.160000X-0.197500X0.160000X0.197500X0*%
%ADD56RoundRect,0.160000X0.197500X0.160000X-0.197500X0.160000X-0.197500X-0.160000X0.197500X-0.160000X0*%
%ADD57O,1.700000X1.700000*%
%ADD58RoundRect,0.250000X0.250000X0.475000X-0.250000X0.475000X-0.250000X-0.475000X0.250000X-0.475000X0*%
%ADD59RoundRect,0.093750X-0.156250X-0.093750X0.156250X-0.093750X0.156250X0.093750X-0.156250X0.093750X0*%
%ADD60RoundRect,0.075000X-0.250000X-0.075000X0.250000X-0.075000X0.250000X0.075000X-0.250000X0.075000X0*%
%ADD61R,1.550000X1.500000*%
%ADD62R,1.550000X1.750000*%
%ADD63R,1.550000X3.300000*%
%ADD64R,2.050000X1.500000*%
%ADD65R,2.100000X1.500000*%
%ADD66R,3.300000X1.500000*%
%ADD67RoundRect,0.250000X-1.000000X-0.650000X1.000000X-0.650000X1.000000X0.650000X-1.000000X0.650000X0*%
%ADD68RoundRect,0.102000X-0.200000X0.400000X-0.200000X-0.400000X0.200000X-0.400000X0.200000X0.400000X0*%
%ADD69RoundRect,0.102000X-0.400000X0.200000X-0.400000X-0.200000X0.400000X-0.200000X0.400000X0.200000X0*%
%ADD70RoundRect,0.102000X-0.600000X0.600000X-0.600000X-0.600000X0.600000X-0.600000X0.600000X0.600000X0*%
%ADD71RoundRect,0.102000X-0.400000X0.400000X-0.400000X-0.400000X0.400000X-0.400000X0.400000X0.400000X0*%
%ADD72RoundRect,0.102000X0.525000X0.325000X-0.525000X0.325000X-0.525000X-0.325000X0.525000X-0.325000X0*%
G04 APERTURE END LIST*
D10*
%TO.C,J7*%
X112600000Y-115182500D02*
X111900000Y-115182500D01*
X111900000Y-113942500D01*
X112600000Y-113942500D01*
X112600000Y-115182500D01*
G36*
X112600000Y-115182500D02*
G01*
X111900000Y-115182500D01*
X111900000Y-113942500D01*
X112600000Y-113942500D01*
X112600000Y-115182500D01*
G37*
X111800000Y-115182500D02*
X111100000Y-115182500D01*
X111100000Y-113942500D01*
X111800000Y-113942500D01*
X111800000Y-115182500D01*
G36*
X111800000Y-115182500D02*
G01*
X111100000Y-115182500D01*
X111100000Y-113942500D01*
X111800000Y-113942500D01*
X111800000Y-115182500D01*
G37*
X111000000Y-115182500D02*
X110600000Y-115182500D01*
X110600000Y-113942500D01*
X111000000Y-113942500D01*
X111000000Y-115182500D01*
G36*
X111000000Y-115182500D02*
G01*
X110600000Y-115182500D01*
X110600000Y-113942500D01*
X111000000Y-113942500D01*
X111000000Y-115182500D01*
G37*
X110500000Y-115182500D02*
X110100000Y-115182500D01*
X110100000Y-113942500D01*
X110500000Y-113942500D01*
X110500000Y-115182500D01*
G36*
X110500000Y-115182500D02*
G01*
X110100000Y-115182500D01*
X110100000Y-113942500D01*
X110500000Y-113942500D01*
X110500000Y-115182500D01*
G37*
X110000000Y-115182500D02*
X109600000Y-115182500D01*
X109600000Y-113942500D01*
X110000000Y-113942500D01*
X110000000Y-115182500D01*
G36*
X110000000Y-115182500D02*
G01*
X109600000Y-115182500D01*
X109600000Y-113942500D01*
X110000000Y-113942500D01*
X110000000Y-115182500D01*
G37*
X109500000Y-115182500D02*
X109100000Y-115182500D01*
X109100000Y-113942500D01*
X109500000Y-113942500D01*
X109500000Y-115182500D01*
G36*
X109500000Y-115182500D02*
G01*
X109100000Y-115182500D01*
X109100000Y-113942500D01*
X109500000Y-113942500D01*
X109500000Y-115182500D01*
G37*
X109000000Y-115182500D02*
X108600000Y-115182500D01*
X108600000Y-113942500D01*
X109000000Y-113942500D01*
X109000000Y-115182500D01*
G36*
X109000000Y-115182500D02*
G01*
X108600000Y-115182500D01*
X108600000Y-113942500D01*
X109000000Y-113942500D01*
X109000000Y-115182500D01*
G37*
X108500000Y-115182500D02*
X108100000Y-115182500D01*
X108100000Y-113942500D01*
X108500000Y-113942500D01*
X108500000Y-115182500D01*
G36*
X108500000Y-115182500D02*
G01*
X108100000Y-115182500D01*
X108100000Y-113942500D01*
X108500000Y-113942500D01*
X108500000Y-115182500D01*
G37*
X108000000Y-115182500D02*
X107600000Y-115182500D01*
X107600000Y-113942500D01*
X108000000Y-113942500D01*
X108000000Y-115182500D01*
G36*
X108000000Y-115182500D02*
G01*
X107600000Y-115182500D01*
X107600000Y-113942500D01*
X108000000Y-113942500D01*
X108000000Y-115182500D01*
G37*
X107500000Y-115182500D02*
X107100000Y-115182500D01*
X107100000Y-113942500D01*
X107500000Y-113942500D01*
X107500000Y-115182500D01*
G36*
X107500000Y-115182500D02*
G01*
X107100000Y-115182500D01*
X107100000Y-113942500D01*
X107500000Y-113942500D01*
X107500000Y-115182500D01*
G37*
X107000000Y-115182500D02*
X106300000Y-115182500D01*
X106300000Y-113942500D01*
X107000000Y-113942500D01*
X107000000Y-115182500D01*
G36*
X107000000Y-115182500D02*
G01*
X106300000Y-115182500D01*
X106300000Y-113942500D01*
X107000000Y-113942500D01*
X107000000Y-115182500D01*
G37*
X106200000Y-115182500D02*
X105500000Y-115182500D01*
X105500000Y-113942500D01*
X106200000Y-113942500D01*
X106200000Y-115182500D01*
G36*
X106200000Y-115182500D02*
G01*
X105500000Y-115182500D01*
X105500000Y-113942500D01*
X106200000Y-113942500D01*
X106200000Y-115182500D01*
G37*
%TO.C,J8*%
X124600000Y-115182500D02*
X123900000Y-115182500D01*
X123900000Y-113942500D01*
X124600000Y-113942500D01*
X124600000Y-115182500D01*
G36*
X124600000Y-115182500D02*
G01*
X123900000Y-115182500D01*
X123900000Y-113942500D01*
X124600000Y-113942500D01*
X124600000Y-115182500D01*
G37*
X123800000Y-115182500D02*
X123100000Y-115182500D01*
X123100000Y-113942500D01*
X123800000Y-113942500D01*
X123800000Y-115182500D01*
G36*
X123800000Y-115182500D02*
G01*
X123100000Y-115182500D01*
X123100000Y-113942500D01*
X123800000Y-113942500D01*
X123800000Y-115182500D01*
G37*
X123000000Y-115182500D02*
X122600000Y-115182500D01*
X122600000Y-113942500D01*
X123000000Y-113942500D01*
X123000000Y-115182500D01*
G36*
X123000000Y-115182500D02*
G01*
X122600000Y-115182500D01*
X122600000Y-113942500D01*
X123000000Y-113942500D01*
X123000000Y-115182500D01*
G37*
X122500000Y-115182500D02*
X122100000Y-115182500D01*
X122100000Y-113942500D01*
X122500000Y-113942500D01*
X122500000Y-115182500D01*
G36*
X122500000Y-115182500D02*
G01*
X122100000Y-115182500D01*
X122100000Y-113942500D01*
X122500000Y-113942500D01*
X122500000Y-115182500D01*
G37*
X122000000Y-115182500D02*
X121600000Y-115182500D01*
X121600000Y-113942500D01*
X122000000Y-113942500D01*
X122000000Y-115182500D01*
G36*
X122000000Y-115182500D02*
G01*
X121600000Y-115182500D01*
X121600000Y-113942500D01*
X122000000Y-113942500D01*
X122000000Y-115182500D01*
G37*
X121500000Y-115182500D02*
X121100000Y-115182500D01*
X121100000Y-113942500D01*
X121500000Y-113942500D01*
X121500000Y-115182500D01*
G36*
X121500000Y-115182500D02*
G01*
X121100000Y-115182500D01*
X121100000Y-113942500D01*
X121500000Y-113942500D01*
X121500000Y-115182500D01*
G37*
X121000000Y-115182500D02*
X120600000Y-115182500D01*
X120600000Y-113942500D01*
X121000000Y-113942500D01*
X121000000Y-115182500D01*
G36*
X121000000Y-115182500D02*
G01*
X120600000Y-115182500D01*
X120600000Y-113942500D01*
X121000000Y-113942500D01*
X121000000Y-115182500D01*
G37*
X120500000Y-115182500D02*
X120100000Y-115182500D01*
X120100000Y-113942500D01*
X120500000Y-113942500D01*
X120500000Y-115182500D01*
G36*
X120500000Y-115182500D02*
G01*
X120100000Y-115182500D01*
X120100000Y-113942500D01*
X120500000Y-113942500D01*
X120500000Y-115182500D01*
G37*
X120000000Y-115182500D02*
X119600000Y-115182500D01*
X119600000Y-113942500D01*
X120000000Y-113942500D01*
X120000000Y-115182500D01*
G36*
X120000000Y-115182500D02*
G01*
X119600000Y-115182500D01*
X119600000Y-113942500D01*
X120000000Y-113942500D01*
X120000000Y-115182500D01*
G37*
X119500000Y-115182500D02*
X119100000Y-115182500D01*
X119100000Y-113942500D01*
X119500000Y-113942500D01*
X119500000Y-115182500D01*
G36*
X119500000Y-115182500D02*
G01*
X119100000Y-115182500D01*
X119100000Y-113942500D01*
X119500000Y-113942500D01*
X119500000Y-115182500D01*
G37*
X119000000Y-115182500D02*
X118300000Y-115182500D01*
X118300000Y-113942500D01*
X119000000Y-113942500D01*
X119000000Y-115182500D01*
G36*
X119000000Y-115182500D02*
G01*
X118300000Y-115182500D01*
X118300000Y-113942500D01*
X119000000Y-113942500D01*
X119000000Y-115182500D01*
G37*
X118200000Y-115182500D02*
X117500000Y-115182500D01*
X117500000Y-113942500D01*
X118200000Y-113942500D01*
X118200000Y-115182500D01*
G36*
X118200000Y-115182500D02*
G01*
X117500000Y-115182500D01*
X117500000Y-113942500D01*
X118200000Y-113942500D01*
X118200000Y-115182500D01*
G37*
%TO.C,J9*%
X136600000Y-115182500D02*
X135900000Y-115182500D01*
X135900000Y-113942500D01*
X136600000Y-113942500D01*
X136600000Y-115182500D01*
G36*
X136600000Y-115182500D02*
G01*
X135900000Y-115182500D01*
X135900000Y-113942500D01*
X136600000Y-113942500D01*
X136600000Y-115182500D01*
G37*
X135800000Y-115182500D02*
X135100000Y-115182500D01*
X135100000Y-113942500D01*
X135800000Y-113942500D01*
X135800000Y-115182500D01*
G36*
X135800000Y-115182500D02*
G01*
X135100000Y-115182500D01*
X135100000Y-113942500D01*
X135800000Y-113942500D01*
X135800000Y-115182500D01*
G37*
X135000000Y-115182500D02*
X134600000Y-115182500D01*
X134600000Y-113942500D01*
X135000000Y-113942500D01*
X135000000Y-115182500D01*
G36*
X135000000Y-115182500D02*
G01*
X134600000Y-115182500D01*
X134600000Y-113942500D01*
X135000000Y-113942500D01*
X135000000Y-115182500D01*
G37*
X134500000Y-115182500D02*
X134100000Y-115182500D01*
X134100000Y-113942500D01*
X134500000Y-113942500D01*
X134500000Y-115182500D01*
G36*
X134500000Y-115182500D02*
G01*
X134100000Y-115182500D01*
X134100000Y-113942500D01*
X134500000Y-113942500D01*
X134500000Y-115182500D01*
G37*
X134000000Y-115182500D02*
X133600000Y-115182500D01*
X133600000Y-113942500D01*
X134000000Y-113942500D01*
X134000000Y-115182500D01*
G36*
X134000000Y-115182500D02*
G01*
X133600000Y-115182500D01*
X133600000Y-113942500D01*
X134000000Y-113942500D01*
X134000000Y-115182500D01*
G37*
X133500000Y-115182500D02*
X133100000Y-115182500D01*
X133100000Y-113942500D01*
X133500000Y-113942500D01*
X133500000Y-115182500D01*
G36*
X133500000Y-115182500D02*
G01*
X133100000Y-115182500D01*
X133100000Y-113942500D01*
X133500000Y-113942500D01*
X133500000Y-115182500D01*
G37*
X133000000Y-115182500D02*
X132600000Y-115182500D01*
X132600000Y-113942500D01*
X133000000Y-113942500D01*
X133000000Y-115182500D01*
G36*
X133000000Y-115182500D02*
G01*
X132600000Y-115182500D01*
X132600000Y-113942500D01*
X133000000Y-113942500D01*
X133000000Y-115182500D01*
G37*
X132500000Y-115182500D02*
X132100000Y-115182500D01*
X132100000Y-113942500D01*
X132500000Y-113942500D01*
X132500000Y-115182500D01*
G36*
X132500000Y-115182500D02*
G01*
X132100000Y-115182500D01*
X132100000Y-113942500D01*
X132500000Y-113942500D01*
X132500000Y-115182500D01*
G37*
X132000000Y-115182500D02*
X131600000Y-115182500D01*
X131600000Y-113942500D01*
X132000000Y-113942500D01*
X132000000Y-115182500D01*
G36*
X132000000Y-115182500D02*
G01*
X131600000Y-115182500D01*
X131600000Y-113942500D01*
X132000000Y-113942500D01*
X132000000Y-115182500D01*
G37*
X131500000Y-115182500D02*
X131100000Y-115182500D01*
X131100000Y-113942500D01*
X131500000Y-113942500D01*
X131500000Y-115182500D01*
G36*
X131500000Y-115182500D02*
G01*
X131100000Y-115182500D01*
X131100000Y-113942500D01*
X131500000Y-113942500D01*
X131500000Y-115182500D01*
G37*
X131000000Y-115182500D02*
X130300000Y-115182500D01*
X130300000Y-113942500D01*
X131000000Y-113942500D01*
X131000000Y-115182500D01*
G36*
X131000000Y-115182500D02*
G01*
X130300000Y-115182500D01*
X130300000Y-113942500D01*
X131000000Y-113942500D01*
X131000000Y-115182500D01*
G37*
X130200000Y-115182500D02*
X129500000Y-115182500D01*
X129500000Y-113942500D01*
X130200000Y-113942500D01*
X130200000Y-115182500D01*
G36*
X130200000Y-115182500D02*
G01*
X129500000Y-115182500D01*
X129500000Y-113942500D01*
X130200000Y-113942500D01*
X130200000Y-115182500D01*
G37*
%TO.C,J10*%
X148600000Y-115182500D02*
X147900000Y-115182500D01*
X147900000Y-113942500D01*
X148600000Y-113942500D01*
X148600000Y-115182500D01*
G36*
X148600000Y-115182500D02*
G01*
X147900000Y-115182500D01*
X147900000Y-113942500D01*
X148600000Y-113942500D01*
X148600000Y-115182500D01*
G37*
X147800000Y-115182500D02*
X147100000Y-115182500D01*
X147100000Y-113942500D01*
X147800000Y-113942500D01*
X147800000Y-115182500D01*
G36*
X147800000Y-115182500D02*
G01*
X147100000Y-115182500D01*
X147100000Y-113942500D01*
X147800000Y-113942500D01*
X147800000Y-115182500D01*
G37*
X147000000Y-115182500D02*
X146600000Y-115182500D01*
X146600000Y-113942500D01*
X147000000Y-113942500D01*
X147000000Y-115182500D01*
G36*
X147000000Y-115182500D02*
G01*
X146600000Y-115182500D01*
X146600000Y-113942500D01*
X147000000Y-113942500D01*
X147000000Y-115182500D01*
G37*
X146500000Y-115182500D02*
X146100000Y-115182500D01*
X146100000Y-113942500D01*
X146500000Y-113942500D01*
X146500000Y-115182500D01*
G36*
X146500000Y-115182500D02*
G01*
X146100000Y-115182500D01*
X146100000Y-113942500D01*
X146500000Y-113942500D01*
X146500000Y-115182500D01*
G37*
X146000000Y-115182500D02*
X145600000Y-115182500D01*
X145600000Y-113942500D01*
X146000000Y-113942500D01*
X146000000Y-115182500D01*
G36*
X146000000Y-115182500D02*
G01*
X145600000Y-115182500D01*
X145600000Y-113942500D01*
X146000000Y-113942500D01*
X146000000Y-115182500D01*
G37*
X145500000Y-115182500D02*
X145100000Y-115182500D01*
X145100000Y-113942500D01*
X145500000Y-113942500D01*
X145500000Y-115182500D01*
G36*
X145500000Y-115182500D02*
G01*
X145100000Y-115182500D01*
X145100000Y-113942500D01*
X145500000Y-113942500D01*
X145500000Y-115182500D01*
G37*
X145000000Y-115182500D02*
X144600000Y-115182500D01*
X144600000Y-113942500D01*
X145000000Y-113942500D01*
X145000000Y-115182500D01*
G36*
X145000000Y-115182500D02*
G01*
X144600000Y-115182500D01*
X144600000Y-113942500D01*
X145000000Y-113942500D01*
X145000000Y-115182500D01*
G37*
X144500000Y-115182500D02*
X144100000Y-115182500D01*
X144100000Y-113942500D01*
X144500000Y-113942500D01*
X144500000Y-115182500D01*
G36*
X144500000Y-115182500D02*
G01*
X144100000Y-115182500D01*
X144100000Y-113942500D01*
X144500000Y-113942500D01*
X144500000Y-115182500D01*
G37*
X144000000Y-115182500D02*
X143600000Y-115182500D01*
X143600000Y-113942500D01*
X144000000Y-113942500D01*
X144000000Y-115182500D01*
G36*
X144000000Y-115182500D02*
G01*
X143600000Y-115182500D01*
X143600000Y-113942500D01*
X144000000Y-113942500D01*
X144000000Y-115182500D01*
G37*
X143500000Y-115182500D02*
X143100000Y-115182500D01*
X143100000Y-113942500D01*
X143500000Y-113942500D01*
X143500000Y-115182500D01*
G36*
X143500000Y-115182500D02*
G01*
X143100000Y-115182500D01*
X143100000Y-113942500D01*
X143500000Y-113942500D01*
X143500000Y-115182500D01*
G37*
X143000000Y-115182500D02*
X142300000Y-115182500D01*
X142300000Y-113942500D01*
X143000000Y-113942500D01*
X143000000Y-115182500D01*
G36*
X143000000Y-115182500D02*
G01*
X142300000Y-115182500D01*
X142300000Y-113942500D01*
X143000000Y-113942500D01*
X143000000Y-115182500D01*
G37*
X142200000Y-115182500D02*
X141500000Y-115182500D01*
X141500000Y-113942500D01*
X142200000Y-113942500D01*
X142200000Y-115182500D01*
G36*
X142200000Y-115182500D02*
G01*
X141500000Y-115182500D01*
X141500000Y-113942500D01*
X142200000Y-113942500D01*
X142200000Y-115182500D01*
G37*
%TO.C,U2*%
X162200000Y-95350000D02*
X162200000Y-96100000D01*
X160800000Y-96100000D01*
X160800000Y-94700000D01*
X161550000Y-94700000D01*
X162200000Y-95350000D01*
G36*
X162200000Y-95350000D02*
G01*
X162200000Y-96100000D01*
X160800000Y-96100000D01*
X160800000Y-94700000D01*
X161550000Y-94700000D01*
X162200000Y-95350000D01*
G37*
%TD*%
D11*
%TO.C,J7*%
X113375000Y-119312500D03*
X104725000Y-119312500D03*
D12*
X113375000Y-115142500D03*
X104725000Y-115142500D03*
%TD*%
D11*
%TO.C,J8*%
X125375000Y-119312500D03*
X116725000Y-119312500D03*
D12*
X125375000Y-115142500D03*
X116725000Y-115142500D03*
%TD*%
D11*
%TO.C,J9*%
X137375000Y-119312500D03*
X128725000Y-119312500D03*
D12*
X137375000Y-115142500D03*
X128725000Y-115142500D03*
%TD*%
D11*
%TO.C,J10*%
X149375000Y-119312500D03*
X140725000Y-119312500D03*
D12*
X149375000Y-115142500D03*
X140725000Y-115142500D03*
%TD*%
D13*
%TO.C,S1*%
X105900000Y-77200000D03*
X114100000Y-77200000D03*
D14*
X108000000Y-77200000D03*
X110000000Y-77200000D03*
X112000000Y-77200000D03*
%TD*%
D15*
%TO.C,U12*%
X156950000Y-82850000D03*
D16*
X155012500Y-84100000D03*
X155012500Y-83600000D03*
X155012500Y-83100000D03*
X155012500Y-82600000D03*
X155012500Y-82100000D03*
X155012500Y-81600000D03*
D17*
X155700000Y-80912500D03*
X156200000Y-80912500D03*
X156700000Y-80912500D03*
X157200000Y-80912500D03*
X157700000Y-80912500D03*
X158200000Y-80912500D03*
D16*
X158887500Y-81600000D03*
X158887500Y-82100000D03*
X158887500Y-82600000D03*
X158887500Y-83100000D03*
X158887500Y-83600000D03*
X158887500Y-84100000D03*
D17*
X158200000Y-84787500D03*
X157700000Y-84787500D03*
X157200000Y-84787500D03*
X156700000Y-84787500D03*
X156200000Y-84787500D03*
X155700000Y-84787500D03*
%TD*%
D18*
%TO.C,U15*%
X150300000Y-100700000D03*
D19*
X151050000Y-101650000D03*
X150550000Y-101650000D03*
X150050000Y-101650000D03*
X149550000Y-101650000D03*
X149550000Y-99750000D03*
X150050000Y-99750000D03*
X150550000Y-99750000D03*
X151050000Y-99750000D03*
%TD*%
D20*
%TO.C,D9*%
X126700000Y-79400000D03*
X126700000Y-78430000D03*
%TD*%
D21*
%TO.C,D8*%
X170885000Y-106010000D03*
X169915000Y-106010000D03*
%TD*%
%TO.C,D7*%
X170885000Y-108000000D03*
X169915000Y-108000000D03*
%TD*%
%TO.C,D6*%
X170885000Y-109990000D03*
X169915000Y-109990000D03*
%TD*%
%TO.C,D5*%
X170885000Y-111980000D03*
X169915000Y-111980000D03*
%TD*%
%TO.C,D4*%
X105200000Y-94900000D03*
X104230000Y-94900000D03*
%TD*%
%TO.C,D3*%
X105285000Y-85700000D03*
X104315000Y-85700000D03*
%TD*%
%TO.C,D2*%
X162485000Y-86100000D03*
X161515000Y-86100000D03*
%TD*%
D22*
%TO.C,C16*%
X149256000Y-104002000D03*
X148296000Y-104002000D03*
%TD*%
D23*
%TO.C,C74*%
X105300000Y-91280000D03*
X105300000Y-90320000D03*
%TD*%
%TO.C,C4*%
X105000000Y-111580000D03*
X105000000Y-110620000D03*
%TD*%
%TO.C,C20*%
X113650000Y-99942500D03*
X113650000Y-98982500D03*
%TD*%
D24*
%TO.C,J11*%
X144500000Y-79162500D03*
X143850000Y-79162500D03*
X143200000Y-79162500D03*
X142550000Y-79162500D03*
X141900000Y-79162500D03*
D25*
X146700000Y-76462500D03*
D26*
X146100000Y-76462500D03*
D27*
X145700000Y-79162500D03*
D28*
X144200000Y-76462500D03*
X142200000Y-76462500D03*
D27*
X140700000Y-79162500D03*
D26*
X140300000Y-76462500D03*
D25*
X139700000Y-76462500D03*
%TD*%
D29*
%TO.C,C46*%
X135400000Y-107982500D03*
X135400000Y-108942500D03*
%TD*%
%TO.C,C60*%
X143100000Y-98982500D03*
X143100000Y-99942500D03*
%TD*%
D30*
%TO.C,H3*%
X168000000Y-80000000D03*
%TD*%
D31*
%TO.C,TP6*%
X116600000Y-104162500D03*
X114060000Y-104162500D03*
%TD*%
D29*
%TO.C,C6*%
X102800000Y-110620000D03*
X102800000Y-111580000D03*
%TD*%
D32*
%TO.C,U9*%
X142325000Y-91637500D03*
X141675000Y-91637500D03*
X141025000Y-91637500D03*
X140375000Y-91637500D03*
X139725000Y-91637500D03*
X139075000Y-91637500D03*
X138425000Y-91637500D03*
X137775000Y-91637500D03*
X137775000Y-97362500D03*
X138425000Y-97362500D03*
X139075000Y-97362500D03*
X139725000Y-97362500D03*
X140375000Y-97362500D03*
X141025000Y-97362500D03*
X141675000Y-97362500D03*
X142325000Y-97362500D03*
%TD*%
D33*
%TO.C,R33*%
X144510000Y-96262500D03*
X143490000Y-96262500D03*
%TD*%
%TO.C,R16*%
X117160000Y-90362500D03*
X116140000Y-90362500D03*
%TD*%
D29*
%TO.C,C43*%
X135400000Y-105982500D03*
X135400000Y-106942500D03*
%TD*%
D34*
%TO.C,C39*%
X120120000Y-109462500D03*
X121080000Y-109462500D03*
%TD*%
D35*
%TO.C,U1*%
X104850000Y-106862500D03*
X103900000Y-106862500D03*
X102950000Y-106862500D03*
X102950000Y-109137500D03*
X104850000Y-109137500D03*
%TD*%
D23*
%TO.C,C54*%
X141000000Y-90080000D03*
X141000000Y-89120000D03*
%TD*%
D36*
%TO.C,U14*%
X104962500Y-98150000D03*
X104962500Y-97200000D03*
X104962500Y-96250000D03*
X102687500Y-96250000D03*
X102687500Y-98150000D03*
%TD*%
D22*
%TO.C,C12*%
X165080000Y-87420000D03*
X164120000Y-87420000D03*
%TD*%
D29*
%TO.C,C24*%
X115850000Y-98982500D03*
X115850000Y-99942500D03*
%TD*%
D33*
%TO.C,R20*%
X126310000Y-97362500D03*
X125290000Y-97362500D03*
%TD*%
D29*
%TO.C,C22*%
X117250000Y-107982500D03*
X117250000Y-108942500D03*
%TD*%
D33*
%TO.C,R35*%
X144510000Y-95162500D03*
X143490000Y-95162500D03*
%TD*%
D30*
%TO.C,H1*%
X100000000Y-116320000D03*
%TD*%
D37*
%TO.C,TP5*%
X99200000Y-86500000D03*
%TD*%
D38*
%TO.C,R49*%
X150400000Y-85810000D03*
X150400000Y-84790000D03*
%TD*%
D23*
%TO.C,C35*%
X123800000Y-99942500D03*
X123800000Y-98982500D03*
%TD*%
D32*
%TO.C,U5*%
X124125000Y-91625000D03*
X123475000Y-91625000D03*
X122825000Y-91625000D03*
X122175000Y-91625000D03*
X121525000Y-91625000D03*
X120875000Y-91625000D03*
X120225000Y-91625000D03*
X119575000Y-91625000D03*
X119575000Y-97350000D03*
X120225000Y-97350000D03*
X120875000Y-97350000D03*
X121525000Y-97350000D03*
X122175000Y-97350000D03*
X122825000Y-97350000D03*
X123475000Y-97350000D03*
X124125000Y-97350000D03*
%TD*%
D23*
%TO.C,C32*%
X122700000Y-99942500D03*
X122700000Y-98982500D03*
%TD*%
D33*
%TO.C,R14*%
X117260000Y-97362500D03*
X116240000Y-97362500D03*
%TD*%
D23*
%TO.C,C18*%
X113750000Y-90080000D03*
X113750000Y-89120000D03*
%TD*%
D39*
%TO.C,C7*%
X102125000Y-93000000D03*
X105075000Y-93000000D03*
%TD*%
D22*
%TO.C,C71*%
X115780000Y-83800000D03*
X114820000Y-83800000D03*
%TD*%
D23*
%TO.C,C59*%
X142000000Y-99942500D03*
X142000000Y-98982500D03*
%TD*%
D40*
%TO.C,RF1*%
X111862500Y-103862500D03*
X110037500Y-103862500D03*
%TD*%
D29*
%TO.C,C58*%
X144500000Y-107982500D03*
X144500000Y-108942500D03*
%TD*%
D41*
%TO.C,R52*%
X134890000Y-76200000D03*
X135910000Y-76200000D03*
%TD*%
D33*
%TO.C,R28*%
X135310000Y-90362500D03*
X134290000Y-90362500D03*
%TD*%
%TO.C,R32*%
X144510000Y-97362500D03*
X143490000Y-97362500D03*
%TD*%
%TO.C,R15*%
X117260000Y-96262500D03*
X116240000Y-96262500D03*
%TD*%
D42*
%TO.C,Q3*%
X135762500Y-77550000D03*
X135762500Y-79450000D03*
X137637500Y-78500000D03*
%TD*%
D33*
%TO.C,R12*%
X115860000Y-89262500D03*
X114840000Y-89262500D03*
%TD*%
D23*
%TO.C,C56*%
X140900000Y-99942500D03*
X140900000Y-98982500D03*
%TD*%
D43*
%TO.C,Q2*%
X151590000Y-85150000D03*
X151590000Y-87050000D03*
X153610000Y-86100000D03*
%TD*%
D33*
%TO.C,R21*%
X126310000Y-96262500D03*
X125290000Y-96262500D03*
%TD*%
D44*
%TO.C,R40*%
X160200000Y-83890000D03*
X160200000Y-84910000D03*
%TD*%
D38*
%TO.C,R43*%
X125700000Y-79410000D03*
X125700000Y-78390000D03*
%TD*%
D29*
%TO.C,C9*%
X163800000Y-77820000D03*
X163800000Y-78780000D03*
%TD*%
D37*
%TO.C,TP4*%
X99200000Y-99300000D03*
%TD*%
D22*
%TO.C,C28*%
X112030000Y-108362500D03*
X111070000Y-108362500D03*
%TD*%
%TO.C,C11*%
X165080000Y-88450000D03*
X164120000Y-88450000D03*
%TD*%
%TO.C,C76*%
X104305000Y-99500000D03*
X103345000Y-99500000D03*
%TD*%
D23*
%TO.C,C3*%
X106100000Y-111580000D03*
X106100000Y-110620000D03*
%TD*%
D37*
%TO.C,TP3*%
X99200000Y-96000000D03*
%TD*%
D34*
%TO.C,C15*%
X149820000Y-98414000D03*
X150780000Y-98414000D03*
%TD*%
D22*
%TO.C,C14*%
X166880000Y-106550000D03*
X165920000Y-106550000D03*
%TD*%
D29*
%TO.C,C1*%
X105000000Y-104420000D03*
X105000000Y-105380000D03*
%TD*%
D39*
%TO.C,C8*%
X102125000Y-102200000D03*
X105075000Y-102200000D03*
%TD*%
D29*
%TO.C,C57*%
X139800000Y-98982500D03*
X139800000Y-99942500D03*
%TD*%
%TO.C,C25*%
X110050000Y-98982500D03*
X110050000Y-99942500D03*
%TD*%
D33*
%TO.C,R18*%
X124910000Y-89262500D03*
X123890000Y-89262500D03*
%TD*%
%TO.C,R29*%
X135410000Y-95162500D03*
X134390000Y-95162500D03*
%TD*%
D40*
%TO.C,RF3*%
X130012500Y-103862500D03*
X128187500Y-103862500D03*
%TD*%
D29*
%TO.C,C21*%
X112550000Y-98982500D03*
X112550000Y-99942500D03*
%TD*%
%TO.C,C53*%
X139900000Y-89120000D03*
X139900000Y-90080000D03*
%TD*%
D45*
%TO.C,U8*%
X131700000Y-107012500D03*
X131700000Y-107962500D03*
X131700000Y-108912500D03*
X133900000Y-108912500D03*
X133900000Y-107012500D03*
%TD*%
D23*
%TO.C,C78*%
X105325000Y-100480000D03*
X105325000Y-99520000D03*
%TD*%
D37*
%TO.C,TP1*%
X99200000Y-89700000D03*
%TD*%
D46*
%TO.C,X1*%
X132100000Y-77900000D03*
D47*
X132100000Y-79900000D03*
%TD*%
D22*
%TO.C,C64*%
X139280000Y-108362500D03*
X138320000Y-108362500D03*
%TD*%
D23*
%TO.C,C62*%
X138300000Y-99942500D03*
X138300000Y-98982500D03*
%TD*%
D48*
%TO.C,Q1*%
X150810000Y-82950000D03*
X150810000Y-81050000D03*
X148790000Y-82000000D03*
%TD*%
D33*
%TO.C,R17*%
X117260000Y-95162500D03*
X116240000Y-95162500D03*
%TD*%
D29*
%TO.C,C17*%
X112650000Y-89120000D03*
X112650000Y-90080000D03*
%TD*%
D31*
%TO.C,TP9*%
X143850000Y-104162500D03*
X141310000Y-104162500D03*
%TD*%
D29*
%TO.C,C41*%
X130800000Y-89120000D03*
X130800000Y-90080000D03*
%TD*%
D22*
%TO.C,C66*%
X162260000Y-83900000D03*
X161300000Y-83900000D03*
%TD*%
D31*
%TO.C,TP8*%
X134750000Y-104162500D03*
X132210000Y-104162500D03*
%TD*%
D33*
%TO.C,R19*%
X126210000Y-91462500D03*
X125190000Y-91462500D03*
%TD*%
D34*
%TO.C,C27*%
X111070000Y-109462500D03*
X112030000Y-109462500D03*
%TD*%
D22*
%TO.C,C77*%
X104305000Y-100500000D03*
X103345000Y-100500000D03*
%TD*%
D23*
%TO.C,C69*%
X117100000Y-80880000D03*
X117100000Y-79920000D03*
%TD*%
D41*
%TO.C,R2*%
X167990000Y-110000000D03*
X169010000Y-110000000D03*
%TD*%
D44*
%TO.C,R47*%
X149300000Y-84790000D03*
X149300000Y-85810000D03*
%TD*%
D29*
%TO.C,C10*%
X157000000Y-77820000D03*
X157000000Y-78780000D03*
%TD*%
D44*
%TO.C,R3*%
X102800000Y-104390000D03*
X102800000Y-105410000D03*
%TD*%
D22*
%TO.C,C67*%
X162260000Y-84900000D03*
X161300000Y-84900000D03*
%TD*%
D29*
%TO.C,C61*%
X137300000Y-98982500D03*
X137300000Y-99942500D03*
%TD*%
D41*
%TO.C,R53*%
X102305000Y-94905000D03*
X103325000Y-94905000D03*
%TD*%
D29*
%TO.C,C36*%
X124900000Y-98982500D03*
X124900000Y-99942500D03*
%TD*%
D44*
%TO.C,R6*%
X163100000Y-87440000D03*
X163100000Y-88460000D03*
%TD*%
D49*
%TO.C,R41*%
X157400000Y-87297500D03*
X157400000Y-86102500D03*
%TD*%
D50*
%TO.C,IC1*%
X118650000Y-76995000D03*
X118650000Y-78265000D03*
X118650000Y-79535000D03*
X118650000Y-80805000D03*
X124150000Y-80805000D03*
X124150000Y-79535000D03*
X124150000Y-78265000D03*
X124150000Y-76995000D03*
%TD*%
D51*
%TO.C,J5*%
X171100000Y-87200000D03*
%TD*%
D52*
%TO.C,R39*%
X152500000Y-82100000D03*
X153695000Y-82100000D03*
%TD*%
D41*
%TO.C,R4*%
X167990000Y-108000000D03*
X169010000Y-108000000D03*
%TD*%
D29*
%TO.C,C2*%
X103900000Y-104420000D03*
X103900000Y-105380000D03*
%TD*%
D23*
%TO.C,C42*%
X131900000Y-90080000D03*
X131900000Y-89120000D03*
%TD*%
%TO.C,C65*%
X159400000Y-86980000D03*
X159400000Y-86020000D03*
%TD*%
D30*
%TO.C,H4*%
X168000000Y-116320000D03*
%TD*%
D29*
%TO.C,C55*%
X144500000Y-105982500D03*
X144500000Y-106942500D03*
%TD*%
D23*
%TO.C,C68*%
X158400000Y-86980000D03*
X158400000Y-86020000D03*
%TD*%
%TO.C,C47*%
X132900000Y-99942500D03*
X132900000Y-98982500D03*
%TD*%
D33*
%TO.C,R22*%
X126210000Y-90362500D03*
X125190000Y-90362500D03*
%TD*%
D41*
%TO.C,R1*%
X167990000Y-112000000D03*
X169010000Y-112000000D03*
%TD*%
D32*
%TO.C,U7*%
X133225000Y-91637500D03*
X132575000Y-91637500D03*
X131925000Y-91637500D03*
X131275000Y-91637500D03*
X130625000Y-91637500D03*
X129975000Y-91637500D03*
X129325000Y-91637500D03*
X128675000Y-91637500D03*
X128675000Y-97362500D03*
X129325000Y-97362500D03*
X129975000Y-97362500D03*
X130625000Y-97362500D03*
X131275000Y-97362500D03*
X131925000Y-97362500D03*
X132575000Y-97362500D03*
X133225000Y-97362500D03*
%TD*%
D23*
%TO.C,C30*%
X122800000Y-90067500D03*
X122800000Y-89107500D03*
%TD*%
D29*
%TO.C,C49*%
X128200000Y-98982500D03*
X128200000Y-99942500D03*
%TD*%
D41*
%TO.C,R51*%
X102290000Y-85700000D03*
X103310000Y-85700000D03*
%TD*%
D29*
%TO.C,C34*%
X126300000Y-107982500D03*
X126300000Y-108942500D03*
%TD*%
D22*
%TO.C,C13*%
X166880000Y-105550000D03*
X165920000Y-105550000D03*
%TD*%
D53*
%TO.C,J3*%
X153456000Y-116078000D03*
D54*
X155956000Y-116078000D03*
X158456000Y-116078000D03*
X160956000Y-116078000D03*
%TD*%
D22*
%TO.C,C40*%
X121080000Y-108362500D03*
X120120000Y-108362500D03*
%TD*%
%TO.C,C79*%
X149256000Y-102986000D03*
X148296000Y-102986000D03*
%TD*%
D36*
%TO.C,U13*%
X104937500Y-88950000D03*
X104937500Y-88000000D03*
X104937500Y-87050000D03*
X102662500Y-87050000D03*
X102662500Y-88950000D03*
%TD*%
D55*
%TO.C,R50*%
X154800000Y-86102500D03*
X154800000Y-87297500D03*
%TD*%
D22*
%TO.C,C70*%
X126580000Y-80800000D03*
X125620000Y-80800000D03*
%TD*%
D29*
%TO.C,C5*%
X103900000Y-110620000D03*
X103900000Y-111580000D03*
%TD*%
%TO.C,C37*%
X119100000Y-98982500D03*
X119100000Y-99942500D03*
%TD*%
D22*
%TO.C,C52*%
X130180000Y-108362500D03*
X129220000Y-108362500D03*
%TD*%
D29*
%TO.C,C45*%
X130700000Y-98982500D03*
X130700000Y-99942500D03*
%TD*%
D33*
%TO.C,R25*%
X135310000Y-91462500D03*
X134290000Y-91462500D03*
%TD*%
D56*
%TO.C,R38*%
X153700000Y-83200000D03*
X152505000Y-83200000D03*
%TD*%
D34*
%TO.C,C63*%
X138320000Y-109462500D03*
X139280000Y-109462500D03*
%TD*%
D33*
%TO.C,R31*%
X144410000Y-91462500D03*
X143390000Y-91462500D03*
%TD*%
D40*
%TO.C,RF4*%
X139112500Y-103862500D03*
X137287500Y-103862500D03*
%TD*%
D51*
%TO.C,J1*%
X105420000Y-82400000D03*
D57*
X107960000Y-82400000D03*
X110500000Y-82400000D03*
%TD*%
D58*
%TO.C,CF4*%
X139150000Y-105862500D03*
X137250000Y-105862500D03*
%TD*%
D38*
%TO.C,R5*%
X168800000Y-106710000D03*
X168800000Y-105690000D03*
%TD*%
D59*
%TO.C,U11*%
X144250000Y-81162500D03*
D60*
X144175000Y-81700000D03*
D59*
X144250000Y-82237500D03*
X145950000Y-82237500D03*
D60*
X146025000Y-81700000D03*
D59*
X145950000Y-81162500D03*
%TD*%
D31*
%TO.C,TP7*%
X125650000Y-104162500D03*
X123110000Y-104162500D03*
%TD*%
D30*
%TO.C,H2*%
X100000000Y-80000000D03*
%TD*%
D58*
%TO.C,CF1*%
X111900000Y-105862500D03*
X110000000Y-105862500D03*
%TD*%
D51*
%TO.C,J2*%
X152151000Y-110744000D03*
D57*
X154691000Y-110744000D03*
X157231000Y-110744000D03*
X159771000Y-110744000D03*
X162311000Y-110744000D03*
%TD*%
D32*
%TO.C,U3*%
X115075000Y-91625000D03*
X114425000Y-91625000D03*
X113775000Y-91625000D03*
X113125000Y-91625000D03*
X112475000Y-91625000D03*
X111825000Y-91625000D03*
X111175000Y-91625000D03*
X110525000Y-91625000D03*
X110525000Y-97350000D03*
X111175000Y-97350000D03*
X111825000Y-97350000D03*
X112475000Y-97350000D03*
X113125000Y-97350000D03*
X113775000Y-97350000D03*
X114425000Y-97350000D03*
X115075000Y-97350000D03*
%TD*%
D55*
%TO.C,R42*%
X156400000Y-86100000D03*
X156400000Y-87295000D03*
%TD*%
D22*
%TO.C,C73*%
X104280000Y-90300000D03*
X103320000Y-90300000D03*
%TD*%
D33*
%TO.C,R26*%
X135410000Y-97362500D03*
X134390000Y-97362500D03*
%TD*%
%TO.C,R23*%
X126310000Y-95162500D03*
X125290000Y-95162500D03*
%TD*%
%TO.C,R30*%
X143110000Y-89262500D03*
X142090000Y-89262500D03*
%TD*%
D29*
%TO.C,C31*%
X126300000Y-105982500D03*
X126300000Y-106942500D03*
%TD*%
D33*
%TO.C,R34*%
X144410000Y-90362500D03*
X143390000Y-90362500D03*
%TD*%
D37*
%TO.C,TP2*%
X99200000Y-92900000D03*
%TD*%
D22*
%TO.C,C81*%
X151288000Y-102986000D03*
X150328000Y-102986000D03*
%TD*%
D44*
%TO.C,R46*%
X117100000Y-77890000D03*
X117100000Y-78910000D03*
%TD*%
D41*
%TO.C,R37*%
X160090000Y-82800000D03*
X161110000Y-82800000D03*
%TD*%
D33*
%TO.C,R24*%
X134010000Y-89262500D03*
X132990000Y-89262500D03*
%TD*%
%TO.C,R27*%
X135410000Y-96262500D03*
X134390000Y-96262500D03*
%TD*%
D45*
%TO.C,U6*%
X122600000Y-107012500D03*
X122600000Y-107962500D03*
X122600000Y-108912500D03*
X124800000Y-108912500D03*
X124800000Y-107012500D03*
%TD*%
D61*
%TO.C,J6*%
X107825000Y-85612500D03*
D62*
X107825000Y-87237500D03*
D63*
X107825000Y-92462500D03*
X107825000Y-98462500D03*
X107825000Y-104462500D03*
D62*
X107825000Y-109687500D03*
D61*
X107825000Y-111312500D03*
D64*
X109625000Y-85612500D03*
D65*
X109650000Y-111312500D03*
D66*
X115050000Y-85612500D03*
X115050000Y-111312500D03*
X121050000Y-85612500D03*
X121050000Y-111312500D03*
X127050000Y-85612500D03*
X127050000Y-111312500D03*
X133050000Y-85612500D03*
X133050000Y-111312500D03*
X139050000Y-85612500D03*
X139050000Y-111312500D03*
D65*
X144450000Y-85612500D03*
X144450000Y-111312500D03*
D61*
X146275000Y-85612500D03*
D62*
X146275000Y-87237500D03*
D63*
X146275000Y-92462500D03*
X146275000Y-98462500D03*
X146275000Y-104462500D03*
D62*
X146275000Y-109687500D03*
D61*
X146275000Y-111312500D03*
%TD*%
D23*
%TO.C,C50*%
X129200000Y-99942500D03*
X129200000Y-98982500D03*
%TD*%
D34*
%TO.C,C75*%
X132920000Y-82900000D03*
X133880000Y-82900000D03*
%TD*%
D44*
%TO.C,R36*%
X160400000Y-85990000D03*
X160400000Y-87010000D03*
%TD*%
D67*
%TO.C,D1*%
X136000000Y-82100000D03*
X140000000Y-82100000D03*
%TD*%
D29*
%TO.C,C33*%
X121600000Y-98982500D03*
X121600000Y-99942500D03*
%TD*%
D33*
%TO.C,R48*%
X115810000Y-82800000D03*
X114790000Y-82800000D03*
%TD*%
D45*
%TO.C,U10*%
X140800000Y-107012500D03*
X140800000Y-107962500D03*
X140800000Y-108912500D03*
X143000000Y-108912500D03*
X143000000Y-107012500D03*
%TD*%
D29*
%TO.C,C48*%
X134000000Y-98982500D03*
X134000000Y-99942500D03*
%TD*%
D22*
%TO.C,C80*%
X151288000Y-104002000D03*
X150328000Y-104002000D03*
%TD*%
D33*
%TO.C,R44*%
X113810000Y-82800000D03*
X112790000Y-82800000D03*
%TD*%
D45*
%TO.C,U4*%
X113550000Y-107012500D03*
X113550000Y-107962500D03*
X113550000Y-108912500D03*
X115750000Y-108912500D03*
X115750000Y-107012500D03*
%TD*%
D29*
%TO.C,C29*%
X121700000Y-89107500D03*
X121700000Y-90067500D03*
%TD*%
%TO.C,C19*%
X117250000Y-105982500D03*
X117250000Y-106942500D03*
%TD*%
D68*
%TO.C,U2*%
X165800000Y-90050000D03*
X164950000Y-90050000D03*
X164100000Y-90050000D03*
X163250000Y-90050000D03*
X162400000Y-90050000D03*
X161550000Y-90050000D03*
X160700000Y-90050000D03*
X159850000Y-90050000D03*
X159000000Y-90050000D03*
X158150000Y-90050000D03*
X157300000Y-90050000D03*
X156450000Y-90050000D03*
X155600000Y-90050000D03*
X154750000Y-90050000D03*
X153900000Y-90050000D03*
D69*
X152850000Y-91100000D03*
X152850000Y-91950000D03*
X152850000Y-92800000D03*
X152850000Y-93650000D03*
X152850000Y-94500000D03*
X152850000Y-95350000D03*
X152850000Y-96200000D03*
X152850000Y-97050000D03*
X152850000Y-97900000D03*
X152850000Y-98750000D03*
X152850000Y-99600000D03*
X152850000Y-100450000D03*
X152850000Y-101300000D03*
X152850000Y-102150000D03*
X152850000Y-103000000D03*
D68*
X153900000Y-104050000D03*
X154750000Y-104050000D03*
X155600000Y-104050000D03*
X156450000Y-104050000D03*
X157300000Y-104050000D03*
X158150000Y-104050000D03*
X159000000Y-104050000D03*
X159850000Y-104050000D03*
X160700000Y-104050000D03*
X161550000Y-104050000D03*
X162400000Y-104050000D03*
X163250000Y-104050000D03*
X164100000Y-104050000D03*
X164950000Y-104050000D03*
X165800000Y-104050000D03*
D69*
X166850000Y-103000000D03*
X166850000Y-102150000D03*
X166850000Y-101300000D03*
X166850000Y-100450000D03*
X166850000Y-99600000D03*
X166850000Y-98750000D03*
X166850000Y-97900000D03*
X166850000Y-97050000D03*
X166850000Y-96200000D03*
X166850000Y-95350000D03*
X166850000Y-94500000D03*
X166850000Y-93650000D03*
X166850000Y-92800000D03*
X166850000Y-91950000D03*
X166850000Y-91100000D03*
D70*
X159850000Y-97050000D03*
X161500000Y-97050000D03*
X161500000Y-98700000D03*
X159850000Y-98700000D03*
X158200000Y-98700000D03*
X158200000Y-97050000D03*
X158200000Y-95400000D03*
X159850000Y-95400000D03*
D71*
X166850000Y-90050000D03*
X152850000Y-90050000D03*
X152850000Y-104050000D03*
X166850000Y-104050000D03*
%TD*%
D23*
%TO.C,C23*%
X114750000Y-99942500D03*
X114750000Y-98982500D03*
%TD*%
D22*
%TO.C,C72*%
X104280000Y-91300000D03*
X103320000Y-91300000D03*
%TD*%
D23*
%TO.C,C26*%
X111050000Y-99942500D03*
X111050000Y-98982500D03*
%TD*%
%TO.C,C44*%
X131800000Y-99942500D03*
X131800000Y-98982500D03*
%TD*%
D52*
%TO.C,R45*%
X148802500Y-79600000D03*
X149997500Y-79600000D03*
%TD*%
D38*
%TO.C,R7*%
X164800000Y-106560000D03*
X164800000Y-105540000D03*
%TD*%
D40*
%TO.C,RF2*%
X120912500Y-103862500D03*
X119087500Y-103862500D03*
%TD*%
D58*
%TO.C,CF3*%
X130050000Y-105862500D03*
X128150000Y-105862500D03*
%TD*%
D33*
%TO.C,R13*%
X117160000Y-91462500D03*
X116140000Y-91462500D03*
%TD*%
D34*
%TO.C,C51*%
X129220000Y-109462500D03*
X130180000Y-109462500D03*
%TD*%
D58*
%TO.C,CF2*%
X120950000Y-105862500D03*
X119050000Y-105862500D03*
%TD*%
D23*
%TO.C,C38*%
X120100000Y-99942500D03*
X120100000Y-98982500D03*
%TD*%
D72*
%TO.C,S3*%
X162475000Y-79375000D03*
X158325000Y-79375000D03*
X162475000Y-77225000D03*
X158325000Y-77225000D03*
%TD*%
%TO.C,S2*%
X155675000Y-79375000D03*
X151525000Y-79375000D03*
X155675000Y-77225000D03*
X151525000Y-77225000D03*
%TD*%
M02*
