M48
; DRILL file {KiCad 9.0.9-9.0.9~ubuntu24.04.1} date 2026-08-28T14:24:10+0200
; FORMAT={-:-/ absolute / inch / decimal}
; #@! TF.CreationDate,2026-08-28T14:24:10+02:00
; #@! TF.GenerationSoftware,Kicad,Pcbnew,9.0.9-9.0.9~ubuntu24.04.1
; #@! TF.FileFunction,Plated,1,4,PTH
FMAT,2
INCH
; #@! TA.AperFunction,Plated,PTH,ComponentDrill
T1C0.0098
; #@! TA.AperFunction,Plated,PTH,ViaDrill
T2C0.0157
; #@! TA.AperFunction,Plated,PTH,ComponentDrill
T3C0.0236
; #@! TA.AperFunction,Plated,PTH,ComponentDrill
T4C0.0276
; #@! TA.AperFunction,Plated,PTH,ComponentDrill
T5C0.0295
; #@! TA.AperFunction,Plated,PTH,ComponentDrill
T6C0.0315
; #@! TA.AperFunction,Plated,PTH,ComponentDrill
T7C0.0335
; #@! TA.AperFunction,Plated,PTH,ComponentDrill
T8C0.0374
; #@! TA.AperFunction,Plated,PTH,ComponentDrill
T9C0.0394
; #@! TA.AperFunction,Plated,PTH,ComponentDrill
T10C0.0652
; #@! TA.AperFunction,Plated,PTH,ComponentDrill
T11C0.1260
%
G90
G05
T1
X5.8976Y-3.9646
X5.937Y-3.9646
T2
X4.0202Y-3.5984
X4.0709Y-4.0236
X4.0787Y-3.4646
X4.0787Y-3.8268
X4.0906Y-4.2441
X4.0906Y-4.437
X4.0945Y-3.6614
X4.1457Y-3.3425
X4.1634Y-3.7357
X4.1732Y-4.0236
X4.1732Y-4.1102
X4.1772Y-4.2992
X4.2451Y-3.3706
X4.2451Y-3.4345
X4.2451Y-3.6403
X4.2451Y-3.8765
X4.2451Y-4.1127
X4.2451Y-4.3184
X4.2451Y-4.3824
X4.2835Y-4.5787
X4.311Y-3.6063
X4.3159Y-3.3706
X4.3169Y-4.3824
X4.3307Y-4.0197
X4.3366Y-4.2874
X4.3685Y-3.9724
X4.376Y-3.7756
X4.3898Y-3.5354
X4.3937Y-4.3504
X4.4252Y-4.0197
X4.4272Y-3.6654
X4.5295Y-3.3706
X4.5295Y-4.3824
X4.5354Y-4.1732
X4.5709Y-3.126
X4.5945Y-3.2795
X4.6004Y-3.937
X4.6142Y-3.0236
X4.6161Y-4.3189
X4.6417Y-3.5571
X4.6422Y-3.6009
X4.6461Y-3.7466
X4.6461Y-3.7899
X4.6461Y-3.8332
X4.6535Y-4.0197
X4.6909Y-3.9747
X4.6949Y-4.2897
X4.748Y-3.5433
X4.7559Y-4.5787
X4.7638Y-3.7795
X4.7657Y-3.3706
X4.7657Y-4.3824
X4.7854Y-3.6676
X4.7874Y-4.0197
X4.8071Y-4.3268
X4.8898Y-4.1732
X4.9587Y-3.9393
X4.9744Y-4.3212
X4.9996Y-3.6009
X5.0Y-3.5583
X5.002Y-3.3706
X5.002Y-4.3839
X5.0035Y-3.7466
X5.0035Y-3.7899
X5.0035Y-3.8332
X5.0118Y-4.0197
X5.0197Y-3.1575
X5.0453Y-3.9747
X5.0492Y-4.2897
X5.1024Y-3.5433
X5.1096Y-3.7779
X5.1398Y-3.6676
X5.1417Y-4.0197
X5.1654Y-4.3268
X5.1929Y-3.2638
X5.2283Y-4.5787
X5.2382Y-3.3706
X5.2382Y-4.3824
X5.248Y-4.1732
X5.2756Y-3.0
X5.313Y-3.9393
X5.3287Y-4.3212
X5.3563Y-3.5598
X5.3583Y-3.6009
X5.3622Y-3.7466
X5.3622Y-3.7899
X5.3622Y-3.8332
X5.3701Y-4.0197
X5.3937Y-3.0
X5.4035Y-3.9747
X5.4075Y-4.2897
X5.4503Y-3.7903
X5.4646Y-3.5591
X5.4744Y-3.3706
X5.4744Y-4.3824
X5.498Y-3.6676
X5.5039Y-4.0157
X5.5236Y-4.3268
X5.5669Y-3.1693
X5.6063Y-4.1732
X5.6339Y-3.2362
X5.6713Y-3.9393
X5.687Y-3.3706
X5.687Y-4.3212
X5.687Y-4.3824
X5.6988Y-3.5598
X5.7008Y-3.6009
X5.7008Y-4.5787
X5.7047Y-3.7466
X5.7047Y-3.7899
X5.7047Y-3.8332
X5.7283Y-3.3071
X5.7572Y-3.6386
X5.7589Y-3.3706
X5.7589Y-3.4345
X5.7589Y-3.8765
X5.7589Y-4.1127
X5.7589Y-4.3184
X5.7589Y-4.3824
X5.7913Y-3.2165
X5.8307Y-4.1417
X5.8583Y-4.0
X5.9104Y-3.4572
X5.9131Y-3.5711
X5.9134Y-3.6339
X5.9173Y-4.1417
X5.94Y-3.5999
X5.9409Y-3.5433
X5.9429Y-3.502
X5.9803Y-3.5433
X6.0039Y-3.2008
X6.0039Y-3.3071
X6.0157Y-4.1417
X6.0472Y-3.0394
X6.0472Y-3.125
X6.0472Y-3.4369
X6.0591Y-4.0512
X6.061Y-4.1437
X6.063Y-3.7631
X6.0669Y-3.9685
X6.0748Y-4.0118
X6.0945Y-3.7283
X6.1063Y-4.0472
X6.126Y-3.6929
X6.1575Y-3.6614
X6.1791Y-3.2618
X6.1929Y-3.5906
X6.2283Y-3.622
X6.2362Y-3.4567
X6.2598Y-3.5906
X6.2717Y-3.3425
X6.2933Y-3.8209
X6.315Y-3.0394
X6.3228Y-4.1575
X6.3268Y-4.0433
X6.3543Y-3.4921
X6.3583Y-4.1929
X6.3661Y-3.437
X6.378Y-4.0433
X6.4213Y-3.3228
X6.4213Y-4.2047
X6.4291Y-4.1339
X6.4331Y-3.3898
X6.437Y-4.248
X6.4442Y-3.618
X6.4488Y-4.1732
X6.5197Y-4.0472
X6.5315Y-4.2441
X6.5472Y-3.4094
X6.5984Y-3.4646
X6.6063Y-4.1575
X6.7283Y-4.2913
T4
X3.9055Y-3.4055
X3.9055Y-3.5315
X3.9055Y-3.6575
X3.9055Y-3.7795
X3.9055Y-3.9094
T5
X5.2008Y-3.0669
X5.2008Y-3.1457
T6
X4.252Y-3.0394
X4.3307Y-3.0394
X4.4094Y-3.0394
X4.4906Y-4.1009
X4.5906Y-4.1009
X4.8469Y-4.1009
X4.9469Y-4.1009
X5.2051Y-4.1009
X5.3051Y-4.1009
X5.5634Y-4.1009
X5.6634Y-4.1009
T7
X5.5394Y-3.1166
X5.7362Y-3.1166
T8
X6.0416Y-4.57
X6.14Y-4.57
X6.2384Y-4.57
X6.3369Y-4.57
T9
X4.1504Y-3.2441
X4.2504Y-3.2441
X4.3504Y-3.2441
X5.9902Y-4.36
X6.0902Y-4.36
X6.1902Y-4.36
X6.2902Y-4.36
X6.3902Y-4.36
X6.7362Y-3.4331
T10
X4.1693Y-3.0394
X4.4921Y-3.0394
T11
X3.937Y-3.1496
X3.937Y-4.5795
X6.6142Y-3.1496
X6.6142Y-4.5795
T3
G00X4.123Y-4.5115
M15
G01X4.123Y-4.5548
M16
G05
G00X4.123Y-4.6816
M15
G01X4.123Y-4.7131
M16
G05
G00X4.4636Y-4.5115
M15
G01X4.4636Y-4.5548
M16
G05
G00X4.4636Y-4.6816
M15
G01X4.4636Y-4.7131
M16
G05
G00X4.5955Y-4.5115
M15
G01X4.5955Y-4.5548
M16
G05
G00X4.5955Y-4.6816
M15
G01X4.5955Y-4.7131
M16
G05
G00X4.936Y-4.5115
M15
G01X4.936Y-4.5548
M16
G05
G00X4.936Y-4.6816
M15
G01X4.936Y-4.7131
M16
G05
G00X5.0679Y-4.5115
M15
G01X5.0679Y-4.5548
M16
G05
G00X5.0679Y-4.6816
M15
G01X5.0679Y-4.7131
M16
G05
G00X5.4085Y-4.5115
M15
G01X5.4085Y-4.5548
M16
G05
G00X5.4085Y-4.6816
M15
G01X5.4085Y-4.7131
M16
G05
G00X5.5Y-3.0241
M15
G01X5.5Y-2.9966
M16
G05
G00X5.5404Y-4.5115
M15
G01X5.5404Y-4.5548
M16
G05
G00X5.5404Y-4.6816
M15
G01X5.5404Y-4.7131
M16
G05
G00X5.7756Y-2.9966
M15
G01X5.7756Y-3.0241
M16
G05
G00X5.8809Y-4.5115
M15
G01X5.8809Y-4.5548
M16
G05
G00X5.8809Y-4.6816
M15
G01X5.8809Y-4.7131
M16
G05
M30
