%TF.GenerationSoftware,KiCad,Pcbnew,9.0.9-9.0.9~ubuntu24.04.1*%
%TF.CreationDate,2026-08-28T14:24:10+02:00*%
%TF.ProjectId,ChrisPCB,43687269-7350-4434-922e-6b696361645f,rev?*%
%TF.SameCoordinates,Original*%
%TF.FileFunction,Copper,L2,Inr*%
%TF.FilePolarity,Positive*%
%FSLAX46Y46*%
G04 Gerber Fmt 4.6, Leading zero omitted, Abs format (unit mm)*
G04 Created by KiCad (PCBNEW 9.0.9-9.0.9~ubuntu24.04.1) date 2026-08-28 14:24:10*
%MOMM*%
%LPD*%
G01*
G04 APERTURE LIST*
G04 Aperture macros list*
%AMRoundRect*
0 Rectangle with rounded corners*
0 $1 Rounding radius*
0 $2 $3 $4 $5 $6 $7 $8 $9 X,Y pos of 4 corners*
0 Add a 4 corners polygon primitive as box body*
4,1,4,$2,$3,$4,$5,$6,$7,$8,$9,$2,$3,0*
0 Add four circle primitives for the rounded corners*
1,1,$1+$1,$2,$3*
1,1,$1+$1,$4,$5*
1,1,$1+$1,$6,$7*
1,1,$1+$1,$8,$9*
0 Add four rect primitives between the rounded corners*
20,1,$1+$1,$2,$3,$4,$5,0*
20,1,$1+$1,$4,$5,$6,$7,0*
20,1,$1+$1,$6,$7,$8,$9,0*
20,1,$1+$1,$8,$9,$2,$3,0*%
G04 Aperture macros list end*
%TA.AperFunction,ComponentPad*%
%ADD10O,0.900000X1.700000*%
%TD*%
%TA.AperFunction,ComponentPad*%
%ADD11O,0.900000X2.000000*%
%TD*%
%TA.AperFunction,ComponentPad*%
%ADD12C,2.483000*%
%TD*%
%TA.AperFunction,ComponentPad*%
%ADD13C,1.300000*%
%TD*%
%TA.AperFunction,ComponentPad*%
%ADD14C,0.600000*%
%TD*%
%TA.AperFunction,ComponentPad*%
%ADD15O,1.200000X1.900000*%
%TD*%
%TA.AperFunction,ComponentPad*%
%ADD16C,1.450000*%
%TD*%
%TA.AperFunction,ComponentPad*%
%ADD17C,6.400000*%
%TD*%
%TA.AperFunction,ComponentPad*%
%ADD18C,1.400000*%
%TD*%
%TA.AperFunction,ComponentPad*%
%ADD19C,1.500000*%
%TD*%
%TA.AperFunction,ComponentPad*%
%ADD20RoundRect,0.250000X-0.625000X0.350000X-0.625000X-0.350000X0.625000X-0.350000X0.625000X0.350000X0*%
%TD*%
%TA.AperFunction,ComponentPad*%
%ADD21O,1.750000X1.200000*%
%TD*%
%TA.AperFunction,ComponentPad*%
%ADD22R,1.700000X1.700000*%
%TD*%
%TA.AperFunction,ComponentPad*%
%ADD23RoundRect,0.250000X-0.600000X-0.725000X0.600000X-0.725000X0.600000X0.725000X-0.600000X0.725000X0*%
%TD*%
%TA.AperFunction,ComponentPad*%
%ADD24O,1.700000X1.950000*%
%TD*%
%TA.AperFunction,ComponentPad*%
%ADD25O,1.700000X1.700000*%
%TD*%
%TA.AperFunction,ViaPad*%
%ADD26C,0.800000*%
%TD*%
%TA.AperFunction,Conductor*%
%ADD27C,0.300000*%
%TD*%
%TA.AperFunction,Conductor*%
%ADD28C,0.160000*%
%TD*%
G04 APERTURE END LIST*
D10*
%TO.N,Shield*%
%TO.C,J7*%
X113375000Y-119312500D03*
X104725000Y-119312500D03*
D11*
X113375000Y-115142500D03*
X104725000Y-115142500D03*
%TD*%
D10*
%TO.N,Shield*%
%TO.C,J8*%
X125375000Y-119312500D03*
X116725000Y-119312500D03*
D11*
X125375000Y-115142500D03*
X116725000Y-115142500D03*
%TD*%
D10*
%TO.N,Shield*%
%TO.C,J9*%
X137375000Y-119312500D03*
X128725000Y-119312500D03*
D11*
X137375000Y-115142500D03*
X128725000Y-115142500D03*
%TD*%
D10*
%TO.N,Shield*%
%TO.C,J10*%
X149375000Y-119312500D03*
X140725000Y-119312500D03*
D11*
X149375000Y-115142500D03*
X140725000Y-115142500D03*
%TD*%
D12*
%TO.N,N/C*%
%TO.C,S1*%
X105900000Y-77200000D03*
X114100000Y-77200000D03*
D13*
%TO.N,unconnected-(S1-Pad3)*%
X108000000Y-77200000D03*
%TO.N,VCC*%
X110000000Y-77200000D03*
%TO.N,Net-(D1-K)*%
X112000000Y-77200000D03*
%TD*%
D14*
%TO.N,GND*%
%TO.C,U15*%
X149800000Y-100700000D03*
X150800000Y-100700000D03*
%TD*%
D15*
%TO.N,Shield*%
%TO.C,J11*%
X146700000Y-76462500D03*
D16*
X145700000Y-79162500D03*
X140700000Y-79162500D03*
D15*
X139700000Y-76462500D03*
%TD*%
D17*
%TO.N,GND*%
%TO.C,H3*%
X168000000Y-80000000D03*
%TD*%
D18*
%TO.N,GND*%
%TO.C,TP6*%
X116600000Y-104162500D03*
%TO.N,/Ferro Amplifier 1/Vout*%
X114060000Y-104162500D03*
%TD*%
D17*
%TO.N,GND*%
%TO.C,H1*%
X100000000Y-116320000D03*
%TD*%
D19*
%TO.N,GND*%
%TO.C,TP5*%
X99200000Y-86500000D03*
%TD*%
%TO.N,VRef*%
%TO.C,TP4*%
X99200000Y-99300000D03*
%TD*%
%TO.N,+3.3VA*%
%TO.C,TP3*%
X99200000Y-96000000D03*
%TD*%
%TO.N,VCC*%
%TO.C,TP1*%
X99200000Y-89700000D03*
%TD*%
D20*
%TO.N,BAT+*%
%TO.C,X1*%
X132100000Y-77900000D03*
D21*
%TO.N,GND*%
X132100000Y-79900000D03*
%TD*%
D18*
%TO.N,GND*%
%TO.C,TP9*%
X143850000Y-104162500D03*
%TO.N,/Ferro Amplifier 4/Vout*%
X141310000Y-104162500D03*
%TD*%
%TO.N,GND*%
%TO.C,TP8*%
X134750000Y-104162500D03*
%TO.N,/Ferro Amplifier 3/Vout*%
X132210000Y-104162500D03*
%TD*%
D22*
%TO.N,Shield*%
%TO.C,J5*%
X171100000Y-87200000D03*
%TD*%
D17*
%TO.N,GND*%
%TO.C,H4*%
X168000000Y-116320000D03*
%TD*%
D23*
%TO.N,+5V_Gen*%
%TO.C,J3*%
X153456000Y-116078000D03*
D24*
%TO.N,UART2 RXD*%
X155956000Y-116078000D03*
%TO.N,UART2 TXD*%
X158456000Y-116078000D03*
%TO.N,GND*%
X160956000Y-116078000D03*
%TD*%
D22*
%TO.N,GND*%
%TO.C,J1*%
X105420000Y-82400000D03*
D25*
%TO.N,+3.3V*%
X107960000Y-82400000D03*
%TO.N,VCC*%
X110500000Y-82400000D03*
%TD*%
D18*
%TO.N,GND*%
%TO.C,TP7*%
X125650000Y-104162500D03*
%TO.N,/Ferro Amplifier 2/Vout*%
X123110000Y-104162500D03*
%TD*%
D17*
%TO.N,GND*%
%TO.C,H2*%
X100000000Y-80000000D03*
%TD*%
D22*
%TO.N,GPIO38*%
%TO.C,J2*%
X152151000Y-110744000D03*
D25*
%TO.N,GPIO39*%
X154691000Y-110744000D03*
%TO.N,GPIO40*%
X157231000Y-110744000D03*
%TO.N,GPIO41*%
X159771000Y-110744000D03*
%TO.N,GPIO42*%
X162311000Y-110744000D03*
%TD*%
D19*
%TO.N,+3.3V*%
%TO.C,TP2*%
X99200000Y-92900000D03*
%TD*%
D26*
%TO.N,Shield*%
X107825000Y-98462500D03*
X133050000Y-85612500D03*
X146275000Y-111312500D03*
X127050000Y-111350000D03*
X139050000Y-111312500D03*
X115050000Y-111312500D03*
X146275000Y-98462500D03*
X127050000Y-85612500D03*
X121050000Y-85612500D03*
X133050000Y-111312500D03*
X146275000Y-85612500D03*
X121050000Y-111312500D03*
X146275000Y-109687500D03*
X107825000Y-109687500D03*
X107825000Y-92462500D03*
X139050000Y-85612500D03*
X107825000Y-87237500D03*
X109650000Y-111312500D03*
X144450000Y-111312500D03*
X107825000Y-111312500D03*
X146232502Y-92420000D03*
X107825000Y-85612500D03*
X146275000Y-87237500D03*
X146275000Y-104462500D03*
X115050000Y-85612500D03*
X109625000Y-85612500D03*
X144450000Y-85612500D03*
X107825000Y-104462500D03*
%TO.N,+3.3V*%
X166300000Y-86600000D03*
X150300000Y-105200000D03*
X165900000Y-107800000D03*
X163800000Y-106000000D03*
X102112500Y-91400000D03*
X109500000Y-91600000D03*
%TO.N,UART2 TXD*%
X163682719Y-91896788D03*
%TO.N,VBUS*%
X159300000Y-84900000D03*
X147100000Y-81700000D03*
%TO.N,VCC_STATE*%
X161400000Y-88700000D03*
X145500000Y-84000000D03*
%TO.N,BOOT*%
X153600000Y-87297500D03*
X161700000Y-87300000D03*
%TO.N,+3.3VA*%
X133300000Y-106000000D03*
X103400000Y-102200000D03*
X127300000Y-102100000D03*
X115200000Y-106000000D03*
X142400000Y-106000000D03*
X110000000Y-102100000D03*
X118200000Y-102100000D03*
X139800000Y-102000000D03*
X121600000Y-102100000D03*
X112400000Y-102100000D03*
X136400000Y-102100000D03*
X130600000Y-102100000D03*
X124200000Y-106000000D03*
%TO.N,DRDY 1*%
X156400000Y-93000000D03*
X118011250Y-95162500D03*
%TO.N,USBD-*%
X150950000Y-88950000D03*
X150124868Y-87813466D03*
%TO.N,VRef*%
X121000000Y-96000000D03*
X131200000Y-109900000D03*
X120800000Y-116300000D03*
X122100000Y-109900000D03*
X111150000Y-95900000D03*
X129784340Y-95957500D03*
X111600000Y-110500000D03*
X108800000Y-116300000D03*
X140300000Y-109900000D03*
X106100000Y-109200000D03*
X138438599Y-96272878D03*
X144800000Y-116300000D03*
X132800000Y-116300000D03*
%TO.N,SCK*%
X126990000Y-91462500D03*
X144800000Y-91462500D03*
X157300000Y-91200000D03*
X136100000Y-91462500D03*
X117911250Y-91462500D03*
%TO.N,MOSI*%
X136200000Y-97362500D03*
X144900000Y-97362500D03*
X118011250Y-97362500D03*
X127090000Y-97362500D03*
X159000000Y-91200000D03*
%TO.N,MISO*%
X118011250Y-96262500D03*
X144900000Y-96262500D03*
X127090000Y-96262500D03*
X136200000Y-96262500D03*
X158200000Y-92000000D03*
%TO.N,DRDY 2*%
X127090000Y-95162500D03*
X155600000Y-93800000D03*
%TO.N,DRDY 3*%
X136200000Y-95162500D03*
X154800000Y-94700000D03*
%TO.N,DRDY 4*%
X144900000Y-95162500D03*
X154000000Y-95582500D03*
%TO.N,ESP EN*%
X153600000Y-79375000D03*
X165600000Y-102800000D03*
%TO.N,CS 1*%
X150900000Y-90000000D03*
X117900000Y-90351250D03*
%TO.N,CS 2*%
X150192891Y-90707109D03*
X127000000Y-90380000D03*
%TO.N,CS 3*%
X136050000Y-90420000D03*
X150876239Y-91437905D03*
%TO.N,CS 4*%
X144750000Y-90420000D03*
X150200000Y-92300000D03*
%TO.N,LED3*%
X163500000Y-107900000D03*
X153950000Y-105250000D03*
%TO.N,LED4*%
X155100000Y-102800000D03*
X163100000Y-106800000D03*
%TO.N,LED1*%
X161500000Y-106500000D03*
X154100000Y-100800000D03*
%TO.N,LED2*%
X160600000Y-105600000D03*
X154300000Y-101900000D03*
%TO.N,GND*%
X119250000Y-108957500D03*
X106000000Y-102200000D03*
X135350000Y-109757500D03*
X120600000Y-90000000D03*
X151900000Y-90000000D03*
X137350000Y-108957500D03*
X134950000Y-100057500D03*
X138800000Y-90400000D03*
X134000000Y-76200000D03*
X105300000Y-84900000D03*
X129600000Y-90000000D03*
X104000000Y-93000000D03*
X139650000Y-93157500D03*
X116850000Y-100000000D03*
X163100000Y-84400000D03*
X137000000Y-76200000D03*
X110960000Y-100900000D03*
X167600000Y-88000000D03*
X158400000Y-87800000D03*
X117200000Y-76800000D03*
X141400000Y-80500000D03*
X153600000Y-77200000D03*
X117250000Y-109700000D03*
X130550000Y-93157500D03*
X170900000Y-109000000D03*
X143100000Y-82200000D03*
X106000000Y-104400000D03*
X103900000Y-107800000D03*
X163300000Y-105000000D03*
X144450000Y-109757500D03*
X105750000Y-94885661D03*
X137250000Y-100957500D03*
X156950000Y-82850000D03*
X116100000Y-79400000D03*
X127500000Y-80200000D03*
X128250000Y-108957500D03*
X152800000Y-105200000D03*
X110150000Y-108900000D03*
X116700000Y-83300000D03*
X163400000Y-86100000D03*
X103600000Y-88000000D03*
X111500000Y-89800000D03*
X167800000Y-105600000D03*
X121550000Y-93157500D03*
X103600000Y-97200000D03*
X159850000Y-97050000D03*
X131900000Y-82900000D03*
X128150000Y-100957500D03*
X144050000Y-100057500D03*
X125950000Y-100057500D03*
X148100000Y-105200000D03*
X103900000Y-112700000D03*
X160400000Y-77200000D03*
X112450000Y-93100000D03*
X126350000Y-109757500D03*
X119150000Y-100957500D03*
%TO.N,ESP TXD*%
X160700000Y-102700000D03*
X152500000Y-81300000D03*
%TO.N,ESP RXD*%
X152500000Y-84000000D03*
X162000000Y-102700000D03*
%TO.N,EN_5V*%
X153900000Y-102900000D03*
X148800000Y-101600000D03*
%TD*%
D27*
%TO.N,+3.3V*%
X159452548Y-78300000D02*
X149000000Y-78300000D01*
X166350000Y-86650000D02*
X166350000Y-107350000D01*
X149200000Y-99800000D02*
X156739339Y-99800000D01*
X148050000Y-102850000D02*
X148050000Y-100950000D01*
X109500000Y-91600000D02*
X102312500Y-91600000D01*
X150300000Y-105200000D02*
X150300000Y-105100000D01*
X148050000Y-100950000D02*
X149200000Y-99800000D01*
X156739339Y-99800000D02*
X162939339Y-106000000D01*
X162939339Y-106000000D02*
X163800000Y-106000000D01*
X150300000Y-105100000D02*
X148050000Y-102850000D01*
X166350000Y-107350000D02*
X165900000Y-107800000D01*
X102312500Y-91600000D02*
X102112500Y-91400000D01*
X166300000Y-86600000D02*
X166350000Y-86650000D01*
X166300000Y-86600000D02*
X166300000Y-85147452D01*
X166300000Y-85147452D02*
X159452548Y-78300000D01*
X149000000Y-78300000D02*
X142900000Y-84400000D01*
X110900000Y-91600000D02*
X109500000Y-91600000D01*
X118100000Y-84400000D02*
X110900000Y-91600000D01*
X142900000Y-84400000D02*
X118100000Y-84400000D01*
D28*
%TO.N,UART2 TXD*%
X165100000Y-112000000D02*
X162900000Y-114200000D01*
X160334000Y-114200000D02*
X158456000Y-116078000D01*
X162900000Y-114200000D02*
X160334000Y-114200000D01*
X163682719Y-94182719D02*
X165100000Y-95600000D01*
X164300000Y-103900000D02*
X165100000Y-104700000D01*
X164300000Y-101800000D02*
X164300000Y-103900000D01*
X165100000Y-95600000D02*
X165100000Y-101000000D01*
X163682719Y-91896788D02*
X163682719Y-94182719D01*
X165100000Y-104700000D02*
X165100000Y-112000000D01*
X165100000Y-101000000D02*
X164300000Y-101800000D01*
D27*
%TO.N,VBUS*%
X159300000Y-84900000D02*
X159300000Y-84000000D01*
X148300000Y-80500000D02*
X147100000Y-81700000D01*
X155800000Y-80500000D02*
X148300000Y-80500000D01*
X159300000Y-84000000D02*
X155800000Y-80500000D01*
D28*
%TO.N,VCC_STATE*%
X145500000Y-84000000D02*
X148600000Y-84000000D01*
X153300000Y-88700000D02*
X161400000Y-88700000D01*
X148600000Y-84000000D02*
X153300000Y-88700000D01*
%TO.N,BOOT*%
X161700000Y-87300000D02*
X161520000Y-87120000D01*
X161520000Y-87120000D02*
X153777500Y-87120000D01*
X153777500Y-87120000D02*
X153600000Y-87297500D01*
%TO.N,+3.3VA*%
X131533430Y-102100000D02*
X130600000Y-102100000D01*
X124200000Y-103866570D02*
X122433430Y-102100000D01*
D27*
X110000000Y-102100000D02*
X108800000Y-103300000D01*
D28*
X133300000Y-103866570D02*
X131533430Y-102100000D01*
X142400000Y-106000000D02*
X142400000Y-103866570D01*
X124200000Y-106000000D02*
X124200000Y-103866570D01*
D27*
X108800000Y-103300000D02*
X104500000Y-103300000D01*
X110000000Y-102100000D02*
X139700000Y-102100000D01*
D28*
X122433430Y-102100000D02*
X121600000Y-102100000D01*
X133300000Y-106000000D02*
X133300000Y-103866570D01*
X139700000Y-102100000D02*
X139800000Y-102000000D01*
X115200000Y-106000000D02*
X115200000Y-103916570D01*
X115200000Y-103916570D02*
X113383430Y-102100000D01*
X113383430Y-102100000D02*
X112400000Y-102100000D01*
X140533430Y-102000000D02*
X139800000Y-102000000D01*
X142400000Y-103866570D02*
X140533430Y-102000000D01*
D27*
X104500000Y-103300000D02*
X103400000Y-102200000D01*
D28*
%TO.N,DRDY 1*%
X140354166Y-94100000D02*
X119073750Y-94100000D01*
X154000000Y-93000000D02*
X153500000Y-93500000D01*
X140954166Y-93500000D02*
X140354166Y-94100000D01*
X156400000Y-93000000D02*
X154000000Y-93000000D01*
X119073750Y-94100000D02*
X118011250Y-95162500D01*
X153500000Y-93500000D02*
X140954166Y-93500000D01*
%TO.N,USBD-*%
X150950000Y-88950000D02*
X150124868Y-88124868D01*
X150124868Y-88124868D02*
X150124868Y-87813466D01*
D27*
%TO.N,VRef*%
X139692500Y-110507500D02*
X140300000Y-109900000D01*
X131200000Y-114700000D02*
X132800000Y-116300000D01*
X122100000Y-109900000D02*
X122200000Y-110000000D01*
X118887500Y-98112500D02*
X113362500Y-98112500D01*
X138438599Y-96272878D02*
X136598977Y-98112500D01*
X106100000Y-109200000D02*
X107400000Y-110500000D01*
X131939340Y-98112500D02*
X129784340Y-95957500D01*
X131200000Y-109900000D02*
X131807500Y-110507500D01*
X128131839Y-109900000D02*
X131200000Y-109900000D01*
X144800000Y-114400000D02*
X144800000Y-116300000D01*
X127431839Y-110600000D02*
X128131839Y-109900000D01*
X121500000Y-110500000D02*
X122100000Y-109900000D01*
X136598977Y-98112500D02*
X131939340Y-98112500D01*
X122200000Y-110000000D02*
X122200000Y-114900000D01*
X113362500Y-98112500D02*
X111150000Y-95900000D01*
X122200000Y-114900000D02*
X120800000Y-116300000D01*
X121000000Y-96000000D02*
X118887500Y-98112500D01*
X123112500Y-98112500D02*
X121000000Y-96000000D01*
X131200000Y-109900000D02*
X131200000Y-114700000D01*
X111600000Y-110500000D02*
X121500000Y-110500000D01*
X107400000Y-110500000D02*
X111600000Y-110500000D01*
X140300000Y-109900000D02*
X144800000Y-114400000D01*
X127629340Y-98112500D02*
X123112500Y-98112500D01*
X111600000Y-110500000D02*
X108800000Y-113300000D01*
X129784340Y-95957500D02*
X127629340Y-98112500D01*
X108800000Y-113300000D02*
X108800000Y-116300000D01*
X122800000Y-110600000D02*
X127431839Y-110600000D01*
X131807500Y-110507500D02*
X139692500Y-110507500D01*
X122100000Y-109900000D02*
X122800000Y-110600000D01*
X132607500Y-116492500D02*
X132800000Y-116300000D01*
D28*
%TO.N,SCK*%
X144800000Y-91462500D02*
X136100000Y-91462500D01*
X144800000Y-92400000D02*
X144800000Y-91462500D01*
X157300000Y-91200000D02*
X155200000Y-91200000D01*
X153300000Y-93100000D02*
X145500000Y-93100000D01*
X126990000Y-91462500D02*
X117911250Y-91462500D01*
X126990000Y-91462500D02*
X136100000Y-91462500D01*
X155200000Y-91200000D02*
X153300000Y-93100000D01*
X145500000Y-93100000D02*
X144800000Y-92400000D01*
%TO.N,MOSI*%
X134037500Y-95200000D02*
X136200000Y-97362500D01*
X124927500Y-95200000D02*
X127090000Y-97362500D01*
X127090000Y-97362500D02*
X129252500Y-95200000D01*
X137969622Y-95592878D02*
X143130378Y-95592878D01*
X129252500Y-95200000D02*
X134037500Y-95200000D01*
X159000000Y-93400000D02*
X159000000Y-91200000D01*
X144900000Y-97362500D02*
X155037500Y-97362500D01*
X120173750Y-95200000D02*
X124927500Y-95200000D01*
X136200000Y-97362500D02*
X137969622Y-95592878D01*
X155037500Y-97362500D02*
X159000000Y-93400000D01*
X118011250Y-97362500D02*
X120173750Y-95200000D01*
X143130378Y-95592878D02*
X144900000Y-97362500D01*
%TO.N,MISO*%
X128620000Y-94732500D02*
X127090000Y-96262500D01*
X125527500Y-94700000D02*
X119573750Y-94700000D01*
X158200000Y-93100000D02*
X158200000Y-92000000D01*
X144900000Y-96262500D02*
X143937500Y-95300000D01*
X155037500Y-96262500D02*
X158200000Y-93100000D01*
X134670000Y-94732500D02*
X128620000Y-94732500D01*
X136200000Y-96262500D02*
X134670000Y-94732500D01*
X127090000Y-96262500D02*
X125527500Y-94700000D01*
X119573750Y-94700000D02*
X118011250Y-96262500D01*
X137162500Y-95300000D02*
X136200000Y-96262500D01*
X144900000Y-96262500D02*
X155037500Y-96262500D01*
X143937500Y-95300000D02*
X137162500Y-95300000D01*
%TO.N,DRDY 2*%
X136499166Y-94500000D02*
X136481666Y-94482500D01*
X155600000Y-93800000D02*
X155500000Y-93900000D01*
X141100000Y-93900000D02*
X140500000Y-94500000D01*
X136481666Y-94482500D02*
X127770000Y-94482500D01*
X155500000Y-93900000D02*
X141100000Y-93900000D01*
X140500000Y-94500000D02*
X136499166Y-94500000D01*
X127770000Y-94482500D02*
X127090000Y-95162500D01*
%TO.N,DRDY 3*%
X136200000Y-95162500D02*
X136462500Y-94900000D01*
X141300000Y-94300000D02*
X154400000Y-94300000D01*
X136462500Y-94900000D02*
X140700000Y-94900000D01*
X140700000Y-94900000D02*
X141300000Y-94300000D01*
X154400000Y-94300000D02*
X154800000Y-94700000D01*
%TO.N,DRDY 4*%
X153474375Y-94720000D02*
X154000000Y-95245625D01*
X154000000Y-95245625D02*
X154000000Y-95582500D01*
X145342500Y-94720000D02*
X153474375Y-94720000D01*
X144900000Y-95162500D02*
X145342500Y-94720000D01*
%TO.N,ESP EN*%
X157362000Y-80400000D02*
X156337000Y-79375000D01*
X156337000Y-79375000D02*
X153600000Y-79375000D01*
X160918000Y-80400000D02*
X157362000Y-80400000D01*
X165600000Y-85082000D02*
X160918000Y-80400000D01*
X165600000Y-102800000D02*
X165600000Y-85082000D01*
%TO.N,CS 1*%
X150900000Y-90000000D02*
X146600000Y-90000000D01*
X146600000Y-90000000D02*
X145500000Y-88900000D01*
X145500000Y-88900000D02*
X119351250Y-88900000D01*
X119351250Y-88900000D02*
X117900000Y-90351250D01*
%TO.N,CS 2*%
X145300000Y-89300000D02*
X128080000Y-89300000D01*
X128080000Y-89300000D02*
X127000000Y-90380000D01*
X146707109Y-90707109D02*
X145300000Y-89300000D01*
X150192891Y-90707109D02*
X146707109Y-90707109D01*
%TO.N,CS 3*%
X136770000Y-89700000D02*
X136050000Y-90420000D01*
X145100000Y-89700000D02*
X136770000Y-89700000D01*
X150876239Y-91437905D02*
X146837905Y-91437905D01*
X146837905Y-91437905D02*
X145100000Y-89700000D01*
%TO.N,CS 4*%
X150200000Y-92300000D02*
X147074166Y-92300000D01*
X147074166Y-92300000D02*
X145194166Y-90420000D01*
X145194166Y-90420000D02*
X144750000Y-90420000D01*
%TO.N,LED3*%
X153950000Y-105250000D02*
X156600000Y-107900000D01*
X156600000Y-107900000D02*
X163500000Y-107900000D01*
%TO.N,LED4*%
X163100000Y-106800000D02*
X162720000Y-107180000D01*
X159480000Y-107180000D02*
X155100000Y-102800000D01*
X162720000Y-107180000D02*
X159480000Y-107180000D01*
%TO.N,LED1*%
X161500000Y-105400000D02*
X156900000Y-100800000D01*
X161500000Y-106500000D02*
X161500000Y-105400000D01*
X156900000Y-100800000D02*
X154100000Y-100800000D01*
%TO.N,LED2*%
X160600000Y-105600000D02*
X156900000Y-101900000D01*
X156900000Y-101900000D02*
X154300000Y-101900000D01*
%TO.N,ESP TXD*%
X151800000Y-84500000D02*
X151800000Y-82000000D01*
X153400000Y-86100000D02*
X151800000Y-84500000D01*
X151800000Y-82000000D02*
X152500000Y-81300000D01*
X162400000Y-101000000D02*
X162400000Y-87038334D01*
X162400000Y-87038334D02*
X161461666Y-86100000D01*
X161461666Y-86100000D02*
X153400000Y-86100000D01*
X160700000Y-102700000D02*
X162400000Y-101000000D01*
%TO.N,ESP RXD*%
X154100000Y-85600000D02*
X152500000Y-84000000D01*
X162900000Y-86800000D02*
X161700000Y-85600000D01*
X162900000Y-101800000D02*
X162900000Y-86800000D01*
X161700000Y-85600000D02*
X154100000Y-85600000D01*
X162000000Y-102700000D02*
X162900000Y-101800000D01*
%TO.N,EN_5V*%
X148800000Y-101700000D02*
X148800000Y-101600000D01*
X150100000Y-103000000D02*
X148800000Y-101700000D01*
X153800000Y-103000000D02*
X150100000Y-103000000D01*
X153900000Y-102900000D02*
X153800000Y-103000000D01*
%TD*%
M02*
