%TF.GenerationSoftware,KiCad,Pcbnew,9.0.9-9.0.9~ubuntu24.04.1*%
%TF.CreationDate,2026-08-28T14:24:10+02:00*%
%TF.ProjectId,ChrisPCB,43687269-7350-4434-922e-6b696361645f,rev?*%
%TF.SameCoordinates,Original*%
%TF.FileFunction,Soldermask,Bot*%
%TF.FilePolarity,Negative*%
%FSLAX46Y46*%
G04 Gerber Fmt 4.6, Leading zero omitted, Abs format (unit mm)*
G04 Created by KiCad (PCBNEW 9.0.9-9.0.9~ubuntu24.04.1) date 2026-08-28 14:24:10*
%MOMM*%
%LPD*%
G01*
G04 APERTURE LIST*
G04 Aperture macros list*
%AMRoundRect*
0 Rectangle with rounded corners*
0 $1 Rounding radius*
0 $2 $3 $4 $5 $6 $7 $8 $9 X,Y pos of 4 corners*
0 Add a 4 corners polygon primitive as box body*
4,1,4,$2,$3,$4,$5,$6,$7,$8,$9,$2,$3,0*
0 Add four circle primitives for the rounded corners*
1,1,$1+$1,$2,$3*
1,1,$1+$1,$4,$5*
1,1,$1+$1,$6,$7*
1,1,$1+$1,$8,$9*
0 Add four rect primitives between the rounded corners*
20,1,$1+$1,$2,$3,$4,$5,0*
20,1,$1+$1,$4,$5,$6,$7,0*
20,1,$1+$1,$6,$7,$8,$9,0*
20,1,$1+$1,$8,$9,$2,$3,0*%
G04 Aperture macros list end*
%ADD10O,1.104000X1.904000*%
%ADD11O,1.104000X2.204000*%
%ADD12C,0.600000*%
%ADD13C,2.483000*%
%ADD14C,1.300000*%
%ADD15O,1.200000X1.900000*%
%ADD16C,1.450000*%
%ADD17C,6.400000*%
%ADD18C,1.400000*%
%ADD19C,1.500000*%
%ADD20RoundRect,0.250000X-0.625000X0.350000X-0.625000X-0.350000X0.625000X-0.350000X0.625000X0.350000X0*%
%ADD21O,1.750000X1.200000*%
%ADD22R,1.700000X1.700000*%
%ADD23RoundRect,0.250000X-0.600000X-0.725000X0.600000X-0.725000X0.600000X0.725000X-0.600000X0.725000X0*%
%ADD24O,1.700000X1.950000*%
%ADD25O,1.700000X1.700000*%
G04 APERTURE END LIST*
D10*
%TO.C,J7*%
X113375000Y-119312500D03*
X104725000Y-119312500D03*
D11*
X113375000Y-115142500D03*
X104725000Y-115142500D03*
D12*
X111940000Y-115632500D03*
X106160000Y-115632500D03*
%TD*%
D10*
%TO.C,J8*%
X125375000Y-119312500D03*
X116725000Y-119312500D03*
D11*
X125375000Y-115142500D03*
X116725000Y-115142500D03*
D12*
X123940000Y-115632500D03*
X118160000Y-115632500D03*
%TD*%
D10*
%TO.C,J9*%
X137375000Y-119312500D03*
X128725000Y-119312500D03*
D11*
X137375000Y-115142500D03*
X128725000Y-115142500D03*
D12*
X135940000Y-115632500D03*
X130160000Y-115632500D03*
%TD*%
D10*
%TO.C,J10*%
X149375000Y-119312500D03*
X140725000Y-119312500D03*
D11*
X149375000Y-115142500D03*
X140725000Y-115142500D03*
D12*
X147940000Y-115632500D03*
X142160000Y-115632500D03*
%TD*%
D13*
%TO.C,S1*%
X105900000Y-77200000D03*
X114100000Y-77200000D03*
D14*
X108000000Y-77200000D03*
X110000000Y-77200000D03*
X112000000Y-77200000D03*
%TD*%
D15*
%TO.C,J11*%
X146700000Y-76462500D03*
D16*
X145700000Y-79162500D03*
X140700000Y-79162500D03*
D15*
X139700000Y-76462500D03*
%TD*%
D17*
%TO.C,H3*%
X168000000Y-80000000D03*
%TD*%
D18*
%TO.C,TP6*%
X116600000Y-104162500D03*
X114060000Y-104162500D03*
%TD*%
D17*
%TO.C,H1*%
X100000000Y-116320000D03*
%TD*%
D19*
%TO.C,TP5*%
X99200000Y-86500000D03*
%TD*%
%TO.C,TP4*%
X99200000Y-99300000D03*
%TD*%
%TO.C,TP3*%
X99200000Y-96000000D03*
%TD*%
%TO.C,TP1*%
X99200000Y-89700000D03*
%TD*%
D20*
%TO.C,X1*%
X132100000Y-77900000D03*
D21*
X132100000Y-79900000D03*
%TD*%
D18*
%TO.C,TP9*%
X143850000Y-104162500D03*
X141310000Y-104162500D03*
%TD*%
%TO.C,TP8*%
X134750000Y-104162500D03*
X132210000Y-104162500D03*
%TD*%
D22*
%TO.C,J5*%
X171100000Y-87200000D03*
%TD*%
D17*
%TO.C,H4*%
X168000000Y-116320000D03*
%TD*%
D23*
%TO.C,J3*%
X153456000Y-116078000D03*
D24*
X155956000Y-116078000D03*
X158456000Y-116078000D03*
X160956000Y-116078000D03*
%TD*%
D22*
%TO.C,J1*%
X105420000Y-82400000D03*
D25*
X107960000Y-82400000D03*
X110500000Y-82400000D03*
%TD*%
D18*
%TO.C,TP7*%
X125650000Y-104162500D03*
X123110000Y-104162500D03*
%TD*%
D17*
%TO.C,H2*%
X100000000Y-80000000D03*
%TD*%
D22*
%TO.C,J2*%
X152151000Y-110744000D03*
D25*
X154691000Y-110744000D03*
X157231000Y-110744000D03*
X159771000Y-110744000D03*
X162311000Y-110744000D03*
%TD*%
D19*
%TO.C,TP2*%
X99200000Y-92900000D03*
%TD*%
M02*
