%TF.GenerationSoftware,KiCad,Pcbnew,9.0.9-9.0.9~ubuntu24.04.1*%
%TF.CreationDate,2026-08-28T14:24:10+02:00*%
%TF.ProjectId,ChrisPCB,43687269-7350-4434-922e-6b696361645f,rev?*%
%TF.SameCoordinates,Original*%
%TF.FileFunction,Copper,L1,Top*%
%TF.FilePolarity,Positive*%
%FSLAX46Y46*%
G04 Gerber Fmt 4.6, Leading zero omitted, Abs format (unit mm)*
G04 Created by KiCad (PCBNEW 9.0.9-9.0.9~ubuntu24.04.1) date 2026-08-28 14:24:10*
%MOMM*%
%LPD*%
G01*
G04 APERTURE LIST*
G04 Aperture macros list*
%AMRoundRect*
0 Rectangle with rounded corners*
0 $1 Rounding radius*
0 $2 $3 $4 $5 $6 $7 $8 $9 X,Y pos of 4 corners*
0 Add a 4 corners polygon primitive as box body*
4,1,4,$2,$3,$4,$5,$6,$7,$8,$9,$2,$3,0*
0 Add four circle primitives for the rounded corners*
1,1,$1+$1,$2,$3*
1,1,$1+$1,$4,$5*
1,1,$1+$1,$6,$7*
1,1,$1+$1,$8,$9*
0 Add four rect primitives between the rounded corners*
20,1,$1+$1,$2,$3,$4,$5,0*
20,1,$1+$1,$4,$5,$6,$7,0*
20,1,$1+$1,$6,$7,$8,$9,0*
20,1,$1+$1,$8,$9,$2,$3,0*%
%AMFreePoly0*
4,1,14,0.603536,0.603536,0.605000,0.600000,0.605000,-0.600000,0.603536,-0.603536,0.600000,-0.605000,-0.600000,-0.605000,-0.603536,-0.603536,-0.605000,-0.600000,-0.605000,0.000000,-0.603536,0.003536,-0.003536,0.603536,0.000000,0.605000,0.600000,0.605000,0.603536,0.603536,0.603536,0.603536,$1*%
G04 Aperture macros list end*
%TA.AperFunction,EtchedComponent*%
%ADD10C,0.000000*%
%TD*%
%TA.AperFunction,ComponentPad*%
%ADD11O,0.900000X1.700000*%
%TD*%
%TA.AperFunction,ComponentPad*%
%ADD12O,0.900000X2.000000*%
%TD*%
%TA.AperFunction,SMDPad,CuDef*%
%ADD13R,0.300000X1.140000*%
%TD*%
%TA.AperFunction,SMDPad,CuDef*%
%ADD14R,0.600000X1.140000*%
%TD*%
%TA.AperFunction,ComponentPad*%
%ADD15C,2.483000*%
%TD*%
%TA.AperFunction,ComponentPad*%
%ADD16C,1.300000*%
%TD*%
%TA.AperFunction,HeatsinkPad*%
%ADD17R,2.600000X2.600000*%
%TD*%
%TA.AperFunction,SMDPad,CuDef*%
%ADD18RoundRect,0.062500X0.350000X-0.062500X0.350000X0.062500X-0.350000X0.062500X-0.350000X-0.062500X0*%
%TD*%
%TA.AperFunction,SMDPad,CuDef*%
%ADD19RoundRect,0.062500X0.062500X-0.350000X0.062500X0.350000X-0.062500X0.350000X-0.062500X-0.350000X0*%
%TD*%
%TA.AperFunction,ComponentPad*%
%ADD20C,0.600000*%
%TD*%
%TA.AperFunction,SMDPad,CuDef*%
%ADD21R,1.600000X0.900000*%
%TD*%
%TA.AperFunction,SMDPad,CuDef*%
%ADD22RoundRect,0.062500X-0.062500X0.187500X-0.062500X-0.187500X0.062500X-0.187500X0.062500X0.187500X0*%
%TD*%
%TA.AperFunction,SMDPad,CuDef*%
%ADD23RoundRect,0.147500X0.172500X-0.147500X0.172500X0.147500X-0.172500X0.147500X-0.172500X-0.147500X0*%
%TD*%
%TA.AperFunction,SMDPad,CuDef*%
%ADD24RoundRect,0.147500X0.147500X0.172500X-0.147500X0.172500X-0.147500X-0.172500X0.147500X-0.172500X0*%
%TD*%
%TA.AperFunction,SMDPad,CuDef*%
%ADD25RoundRect,0.140000X0.140000X0.170000X-0.140000X0.170000X-0.140000X-0.170000X0.140000X-0.170000X0*%
%TD*%
%TA.AperFunction,SMDPad,CuDef*%
%ADD26RoundRect,0.140000X0.170000X-0.140000X0.170000X0.140000X-0.170000X0.140000X-0.170000X-0.140000X0*%
%TD*%
%TA.AperFunction,SMDPad,CuDef*%
%ADD27R,0.400000X1.350000*%
%TD*%
%TA.AperFunction,ComponentPad*%
%ADD28O,1.200000X1.900000*%
%TD*%
%TA.AperFunction,SMDPad,CuDef*%
%ADD29R,1.200000X1.900000*%
%TD*%
%TA.AperFunction,ComponentPad*%
%ADD30C,1.450000*%
%TD*%
%TA.AperFunction,SMDPad,CuDef*%
%ADD31R,1.500000X1.900000*%
%TD*%
%TA.AperFunction,SMDPad,CuDef*%
%ADD32RoundRect,0.140000X-0.170000X0.140000X-0.170000X-0.140000X0.170000X-0.140000X0.170000X0.140000X0*%
%TD*%
%TA.AperFunction,ComponentPad*%
%ADD33C,6.400000*%
%TD*%
%TA.AperFunction,ComponentPad*%
%ADD34C,1.400000*%
%TD*%
%TA.AperFunction,SMDPad,CuDef*%
%ADD35RoundRect,0.100000X-0.100000X0.637500X-0.100000X-0.637500X0.100000X-0.637500X0.100000X0.637500X0*%
%TD*%
%TA.AperFunction,SMDPad,CuDef*%
%ADD36RoundRect,0.135000X0.135000X0.185000X-0.135000X0.185000X-0.135000X-0.185000X0.135000X-0.185000X0*%
%TD*%
%TA.AperFunction,SMDPad,CuDef*%
%ADD37RoundRect,0.140000X-0.140000X-0.170000X0.140000X-0.170000X0.140000X0.170000X-0.140000X0.170000X0*%
%TD*%
%TA.AperFunction,SMDPad,CuDef*%
%ADD38RoundRect,0.150000X-0.150000X0.512500X-0.150000X-0.512500X0.150000X-0.512500X0.150000X0.512500X0*%
%TD*%
%TA.AperFunction,SMDPad,CuDef*%
%ADD39RoundRect,0.150000X0.512500X0.150000X-0.512500X0.150000X-0.512500X-0.150000X0.512500X-0.150000X0*%
%TD*%
%TA.AperFunction,ComponentPad*%
%ADD40C,1.500000*%
%TD*%
%TA.AperFunction,SMDPad,CuDef*%
%ADD41RoundRect,0.135000X0.185000X-0.135000X0.185000X0.135000X-0.185000X0.135000X-0.185000X-0.135000X0*%
%TD*%
%TA.AperFunction,SMDPad,CuDef*%
%ADD42RoundRect,0.250000X-0.325000X-0.650000X0.325000X-0.650000X0.325000X0.650000X-0.325000X0.650000X0*%
%TD*%
%TA.AperFunction,SMDPad,CuDef*%
%ADD43RoundRect,0.250000X0.262500X0.450000X-0.262500X0.450000X-0.262500X-0.450000X0.262500X-0.450000X0*%
%TD*%
%TA.AperFunction,SMDPad,CuDef*%
%ADD44RoundRect,0.135000X-0.135000X-0.185000X0.135000X-0.185000X0.135000X0.185000X-0.135000X0.185000X0*%
%TD*%
%TA.AperFunction,SMDPad,CuDef*%
%ADD45RoundRect,0.150000X-0.587500X-0.150000X0.587500X-0.150000X0.587500X0.150000X-0.587500X0.150000X0*%
%TD*%
%TA.AperFunction,SMDPad,CuDef*%
%ADD46R,0.800000X0.600000*%
%TD*%
%TA.AperFunction,SMDPad,CuDef*%
%ADD47RoundRect,0.135000X-0.185000X0.135000X-0.185000X-0.135000X0.185000X-0.135000X0.185000X0.135000X0*%
%TD*%
%TA.AperFunction,SMDPad,CuDef*%
%ADD48C,0.500000*%
%TD*%
%TA.AperFunction,SMDPad,CuDef*%
%ADD49RoundRect,0.162500X-0.367500X-0.162500X0.367500X-0.162500X0.367500X0.162500X-0.367500X0.162500X0*%
%TD*%
%TA.AperFunction,ComponentPad*%
%ADD50RoundRect,0.250000X-0.625000X0.350000X-0.625000X-0.350000X0.625000X-0.350000X0.625000X0.350000X0*%
%TD*%
%TA.AperFunction,ComponentPad*%
%ADD51O,1.750000X1.200000*%
%TD*%
%TA.AperFunction,SMDPad,CuDef*%
%ADD52RoundRect,0.160000X0.160000X-0.197500X0.160000X0.197500X-0.160000X0.197500X-0.160000X-0.197500X0*%
%TD*%
%TA.AperFunction,SMDPad,CuDef*%
%ADD53R,1.300000X0.700000*%
%TD*%
%TA.AperFunction,ComponentPad*%
%ADD54R,1.700000X1.700000*%
%TD*%
%TA.AperFunction,SMDPad,CuDef*%
%ADD55RoundRect,0.160000X-0.197500X-0.160000X0.197500X-0.160000X0.197500X0.160000X-0.197500X0.160000X0*%
%TD*%
%TA.AperFunction,ComponentPad*%
%ADD56RoundRect,0.250000X-0.600000X-0.725000X0.600000X-0.725000X0.600000X0.725000X-0.600000X0.725000X0*%
%TD*%
%TA.AperFunction,ComponentPad*%
%ADD57O,1.700000X1.950000*%
%TD*%
%TA.AperFunction,SMDPad,CuDef*%
%ADD58RoundRect,0.160000X-0.160000X0.197500X-0.160000X-0.197500X0.160000X-0.197500X0.160000X0.197500X0*%
%TD*%
%TA.AperFunction,SMDPad,CuDef*%
%ADD59RoundRect,0.160000X0.197500X0.160000X-0.197500X0.160000X-0.197500X-0.160000X0.197500X-0.160000X0*%
%TD*%
%TA.AperFunction,ComponentPad*%
%ADD60O,1.700000X1.700000*%
%TD*%
%TA.AperFunction,SMDPad,CuDef*%
%ADD61RoundRect,0.250000X0.250000X0.475000X-0.250000X0.475000X-0.250000X-0.475000X0.250000X-0.475000X0*%
%TD*%
%TA.AperFunction,SMDPad,CuDef*%
%ADD62RoundRect,0.093750X-0.156250X-0.093750X0.156250X-0.093750X0.156250X0.093750X-0.156250X0.093750X0*%
%TD*%
%TA.AperFunction,SMDPad,CuDef*%
%ADD63RoundRect,0.075000X-0.250000X-0.075000X0.250000X-0.075000X0.250000X0.075000X-0.250000X0.075000X0*%
%TD*%
%TA.AperFunction,SMDPad,CuDef*%
%ADD64R,1.550000X1.500000*%
%TD*%
%TA.AperFunction,SMDPad,CuDef*%
%ADD65R,1.550000X1.750000*%
%TD*%
%TA.AperFunction,SMDPad,CuDef*%
%ADD66R,1.550000X3.300000*%
%TD*%
%TA.AperFunction,SMDPad,CuDef*%
%ADD67R,2.050000X1.500000*%
%TD*%
%TA.AperFunction,SMDPad,CuDef*%
%ADD68R,2.100000X1.500000*%
%TD*%
%TA.AperFunction,SMDPad,CuDef*%
%ADD69R,3.300000X1.500000*%
%TD*%
%TA.AperFunction,SMDPad,CuDef*%
%ADD70RoundRect,0.250000X-1.000000X-0.650000X1.000000X-0.650000X1.000000X0.650000X-1.000000X0.650000X0*%
%TD*%
%TA.AperFunction,SMDPad,CuDef*%
%ADD71R,0.400000X0.800000*%
%TD*%
%TA.AperFunction,SMDPad,CuDef*%
%ADD72R,0.800000X0.400000*%
%TD*%
%TA.AperFunction,SMDPad,CuDef*%
%ADD73R,1.200000X1.200000*%
%TD*%
%TA.AperFunction,SMDPad,CuDef*%
%ADD74FreePoly0,270.000000*%
%TD*%
%TA.AperFunction,SMDPad,CuDef*%
%ADD75R,0.800000X0.800000*%
%TD*%
%TA.AperFunction,SMDPad,CuDef*%
%ADD76R,1.050000X0.650000*%
%TD*%
%TA.AperFunction,ViaPad*%
%ADD77C,0.800000*%
%TD*%
%TA.AperFunction,Conductor*%
%ADD78C,0.160000*%
%TD*%
%TA.AperFunction,Conductor*%
%ADD79C,0.300000*%
%TD*%
G04 APERTURE END LIST*
D10*
%TA.AperFunction,EtchedComponent*%
%TO.C,NT1*%
G36*
X138800000Y-76450000D02*
G01*
X137800000Y-76450000D01*
X137800000Y-75950000D01*
X138800000Y-75950000D01*
X138800000Y-76450000D01*
G37*
%TD.AperFunction*%
%TA.AperFunction,EtchedComponent*%
%TO.C,IC1*%
G36*
X122600000Y-80600368D02*
G01*
X120199741Y-80600368D01*
X120199741Y-77200000D01*
X122600000Y-77200000D01*
X122600000Y-80600368D01*
G37*
%TD.AperFunction*%
%TD*%
D11*
%TO.P,J7,S4,SHIELD*%
%TO.N,Shield*%
X113375000Y-119312500D03*
%TO.P,J7,S3,SHIELD*%
X104725000Y-119312500D03*
D12*
%TO.P,J7,S2,SHIELD*%
X113375000Y-115142500D03*
%TO.P,J7,S1,SHIELD*%
X104725000Y-115142500D03*
D13*
%TO.P,J7,B8,SBU2*%
X107300000Y-114562500D03*
%TO.P,J7,B7,DN2*%
%TO.N,VRef*%
X108300000Y-114562500D03*
%TO.P,J7,B6,DP2*%
%TO.N,/Ferro Amplifier 1/Ferro*%
X109800000Y-114562500D03*
%TO.P,J7,B5,CC2*%
%TO.N,unconnected-(J7-CC2-PadB5)*%
X110800000Y-114562500D03*
D14*
%TO.P,J7,B4_A9,VBUS*%
%TO.N,unconnected-(J7-VBUS-PadA4_B9)_1*%
X111450000Y-114562500D03*
%TO.P,J7,B1_A12,GND*%
%TO.N,Shield*%
X112250000Y-114562500D03*
D13*
%TO.P,J7,A8,SBU1*%
X110300000Y-114562500D03*
%TO.P,J7,A7,DN1*%
%TO.N,VRef*%
X109300000Y-114562500D03*
%TO.P,J7,A6,DP1*%
%TO.N,/Ferro Amplifier 1/Ferro*%
X108800000Y-114562500D03*
%TO.P,J7,A5,CC1*%
%TO.N,unconnected-(J7-CC1-PadA5)*%
X107800000Y-114562500D03*
D14*
%TO.P,J7,A4_B9,VBUS*%
%TO.N,unconnected-(J7-VBUS-PadA4_B9)*%
X106650000Y-114562500D03*
%TO.P,J7,A1_B12,GND*%
%TO.N,Shield*%
X105850000Y-114562500D03*
%TD*%
D11*
%TO.P,J8,S4,SHIELD*%
%TO.N,Shield*%
X125375000Y-119312500D03*
%TO.P,J8,S3,SHIELD*%
X116725000Y-119312500D03*
D12*
%TO.P,J8,S2,SHIELD*%
X125375000Y-115142500D03*
%TO.P,J8,S1,SHIELD*%
X116725000Y-115142500D03*
D13*
%TO.P,J8,B8,SBU2*%
X119300000Y-114562500D03*
%TO.P,J8,B7,DN2*%
%TO.N,VRef*%
X120300000Y-114562500D03*
%TO.P,J8,B6,DP2*%
%TO.N,/Ferro Amplifier 2/Ferro*%
X121800000Y-114562500D03*
%TO.P,J8,B5,CC2*%
%TO.N,unconnected-(J8-CC2-PadB5)*%
X122800000Y-114562500D03*
D14*
%TO.P,J8,B4_A9,VBUS*%
%TO.N,unconnected-(J8-VBUS-PadA4_B9)*%
X123450000Y-114562500D03*
%TO.P,J8,B1_A12,GND*%
%TO.N,Shield*%
X124250000Y-114562500D03*
D13*
%TO.P,J8,A8,SBU1*%
X122300000Y-114562500D03*
%TO.P,J8,A7,DN1*%
%TO.N,VRef*%
X121300000Y-114562500D03*
%TO.P,J8,A6,DP1*%
%TO.N,/Ferro Amplifier 2/Ferro*%
X120800000Y-114562500D03*
%TO.P,J8,A5,CC1*%
%TO.N,unconnected-(J8-CC1-PadA5)*%
X119800000Y-114562500D03*
D14*
%TO.P,J8,A4_B9,VBUS*%
%TO.N,unconnected-(J8-VBUS-PadA4_B9)_1*%
X118650000Y-114562500D03*
%TO.P,J8,A1_B12,GND*%
%TO.N,Shield*%
X117850000Y-114562500D03*
%TD*%
D11*
%TO.P,J9,S4,SHIELD*%
%TO.N,Shield*%
X137375000Y-119312500D03*
%TO.P,J9,S3,SHIELD*%
X128725000Y-119312500D03*
D12*
%TO.P,J9,S2,SHIELD*%
X137375000Y-115142500D03*
%TO.P,J9,S1,SHIELD*%
X128725000Y-115142500D03*
D13*
%TO.P,J9,B8,SBU2*%
X131300000Y-114562500D03*
%TO.P,J9,B7,DN2*%
%TO.N,VRef*%
X132300000Y-114562500D03*
%TO.P,J9,B6,DP2*%
%TO.N,/Ferro Amplifier 3/Ferro*%
X133800000Y-114562500D03*
%TO.P,J9,B5,CC2*%
%TO.N,unconnected-(J9-CC2-PadB5)*%
X134800000Y-114562500D03*
D14*
%TO.P,J9,B4_A9,VBUS*%
%TO.N,unconnected-(J9-VBUS-PadA4_B9)_1*%
X135450000Y-114562500D03*
%TO.P,J9,B1_A12,GND*%
%TO.N,Shield*%
X136250000Y-114562500D03*
D13*
%TO.P,J9,A8,SBU1*%
X134300000Y-114562500D03*
%TO.P,J9,A7,DN1*%
%TO.N,VRef*%
X133300000Y-114562500D03*
%TO.P,J9,A6,DP1*%
%TO.N,/Ferro Amplifier 3/Ferro*%
X132800000Y-114562500D03*
%TO.P,J9,A5,CC1*%
%TO.N,unconnected-(J9-CC1-PadA5)*%
X131800000Y-114562500D03*
D14*
%TO.P,J9,A4_B9,VBUS*%
%TO.N,unconnected-(J9-VBUS-PadA4_B9)*%
X130650000Y-114562500D03*
%TO.P,J9,A1_B12,GND*%
%TO.N,Shield*%
X129850000Y-114562500D03*
%TD*%
D11*
%TO.P,J10,S4,SHIELD*%
%TO.N,Shield*%
X149375000Y-119312500D03*
%TO.P,J10,S3,SHIELD*%
X140725000Y-119312500D03*
D12*
%TO.P,J10,S2,SHIELD*%
X149375000Y-115142500D03*
%TO.P,J10,S1,SHIELD*%
X140725000Y-115142500D03*
D13*
%TO.P,J10,B8,SBU2*%
X143300000Y-114562500D03*
%TO.P,J10,B7,DN2*%
%TO.N,VRef*%
X144300000Y-114562500D03*
%TO.P,J10,B6,DP2*%
%TO.N,/Ferro Amplifier 4/Ferro*%
X145800000Y-114562500D03*
%TO.P,J10,B5,CC2*%
%TO.N,unconnected-(J10-CC2-PadB5)*%
X146800000Y-114562500D03*
D14*
%TO.P,J10,B4_A9,VBUS*%
%TO.N,unconnected-(J10-VBUS-PadA4_B9)_1*%
X147450000Y-114562500D03*
%TO.P,J10,B1_A12,GND*%
%TO.N,Shield*%
X148250000Y-114562500D03*
D13*
%TO.P,J10,A8,SBU1*%
X146300000Y-114562500D03*
%TO.P,J10,A7,DN1*%
%TO.N,VRef*%
X145300000Y-114562500D03*
%TO.P,J10,A6,DP1*%
%TO.N,/Ferro Amplifier 4/Ferro*%
X144800000Y-114562500D03*
%TO.P,J10,A5,CC1*%
%TO.N,unconnected-(J10-CC1-PadA5)*%
X143800000Y-114562500D03*
D14*
%TO.P,J10,A4_B9,VBUS*%
%TO.N,unconnected-(J10-VBUS-PadA4_B9)*%
X142650000Y-114562500D03*
%TO.P,J10,A1_B12,GND*%
%TO.N,Shield*%
X141850000Y-114562500D03*
%TD*%
D15*
%TO.P,S1,MH2*%
%TO.N,N/C*%
X105900000Y-77200000D03*
%TO.P,S1,MH1*%
X114100000Y-77200000D03*
D16*
%TO.P,S1,3,3*%
%TO.N,unconnected-(S1-Pad3)*%
X108000000Y-77200000D03*
%TO.P,S1,2,2*%
%TO.N,VCC*%
X110000000Y-77200000D03*
%TO.P,S1,1,1*%
%TO.N,Net-(D1-K)*%
X112000000Y-77200000D03*
%TD*%
D17*
%TO.P,U12,25,GND*%
%TO.N,GND*%
X156950000Y-82850000D03*
D18*
%TO.P,U12,24,~{DCD}*%
%TO.N,unconnected-(U12-~{DCD}-Pad24)*%
X155012500Y-84100000D03*
%TO.P,U12,23,~{DTR}*%
%TO.N,DTR*%
X155012500Y-83600000D03*
%TO.P,U12,22,~{DSR}*%
%TO.N,unconnected-(U12-~{DSR}-Pad22)*%
X155012500Y-83100000D03*
%TO.P,U12,21,TXD*%
%TO.N,Net-(U12-TXD)*%
X155012500Y-82600000D03*
%TO.P,U12,20,RXD*%
%TO.N,Net-(U12-RXD)*%
X155012500Y-82100000D03*
%TO.P,U12,19,~{RTS}*%
%TO.N,RTS*%
X155012500Y-81600000D03*
D19*
%TO.P,U12,18,~{CTS}*%
%TO.N,unconnected-(U12-~{CTS}-Pad18)*%
X155700000Y-80912500D03*
%TO.P,U12,17,SUSPEND*%
%TO.N,unconnected-(U12-SUSPEND-Pad17)*%
X156200000Y-80912500D03*
%TO.P,U12,16,NC*%
%TO.N,unconnected-(U12-NC-Pad16)*%
X156700000Y-80912500D03*
%TO.P,U12,15,~{SUSPEND}*%
%TO.N,unconnected-(U12-~{SUSPEND}-Pad15)*%
X157200000Y-80912500D03*
%TO.P,U12,14,~{TXT}/GPIO.0*%
%TO.N,unconnected-(U12-~{TXT}{slash}GPIO.0-Pad14)*%
X157700000Y-80912500D03*
%TO.P,U12,13,~{RXT}/GPIO.1*%
%TO.N,unconnected-(U12-~{RXT}{slash}GPIO.1-Pad13)*%
X158200000Y-80912500D03*
D18*
%TO.P,U12,12,RS485/GPIO.2*%
%TO.N,unconnected-(U12-RS485{slash}GPIO.2-Pad12)*%
X158887500Y-81600000D03*
%TO.P,U12,11,~{WAKEUP}/GPIO.3*%
%TO.N,unconnected-(U12-~{WAKEUP}{slash}GPIO.3-Pad11)*%
X158887500Y-82100000D03*
%TO.P,U12,10,NC*%
%TO.N,unconnected-(U12-NC-Pad10)*%
X158887500Y-82600000D03*
%TO.P,U12,9,~{RST}*%
%TO.N,Net-(U12-~{RST})*%
X158887500Y-83100000D03*
%TO.P,U12,8,VBUS*%
%TO.N,Net-(U12-VBUS)*%
X158887500Y-83600000D03*
%TO.P,U12,7,VREGIN*%
%TO.N,VBUS*%
X158887500Y-84100000D03*
D19*
%TO.P,U12,6,VDD*%
%TO.N,Net-(U12-VDD)*%
X158200000Y-84787500D03*
%TO.P,U12,5,VIO*%
X157700000Y-84787500D03*
%TO.P,U12,4,D-*%
%TO.N,Net-(U12-D-)*%
X157200000Y-84787500D03*
%TO.P,U12,3,D+*%
%TO.N,Net-(U12-D+)*%
X156700000Y-84787500D03*
%TO.P,U12,2,GND*%
%TO.N,GND*%
X156200000Y-84787500D03*
%TO.P,U12,1,~{RI}/CLK*%
%TO.N,unconnected-(U12-~{RI}{slash}CLK-Pad1)*%
X155700000Y-84787500D03*
%TD*%
D20*
%TO.P,U15,9,GND*%
%TO.N,GND*%
X149800000Y-100700000D03*
D21*
X150300000Y-100700000D03*
D20*
X150800000Y-100700000D03*
D22*
%TO.P,U15,8,GND*%
X151050000Y-101650000D03*
%TO.P,U15,7,VIN*%
%TO.N,+3.3V*%
X150550000Y-101650000D03*
%TO.P,U15,6,VOUT*%
%TO.N,+5V_Gen*%
X150050000Y-101650000D03*
%TO.P,U15,5,EN*%
%TO.N,EN_5V*%
X149550000Y-101650000D03*
%TO.P,U15,4,OUTDIS*%
%TO.N,GND*%
X149550000Y-99750000D03*
%TO.P,U15,3,C1+*%
%TO.N,Net-(U15-C1+)*%
X150050000Y-99750000D03*
%TO.P,U15,2,C1-*%
%TO.N,Net-(U15-C1-)*%
X150550000Y-99750000D03*
%TO.P,U15,1,PFM*%
%TO.N,GND*%
X151050000Y-99750000D03*
%TD*%
D23*
%TO.P,D9,1,K*%
%TO.N,Net-(D9-K)*%
X126700000Y-79400000D03*
%TO.P,D9,2,A*%
%TO.N,VBUS*%
X126700000Y-78430000D03*
%TD*%
D24*
%TO.P,D8,1,K*%
%TO.N,GND*%
X170885000Y-106010000D03*
%TO.P,D8,2,A*%
%TO.N,Net-(D8-A)*%
X169915000Y-106010000D03*
%TD*%
%TO.P,D7,1,K*%
%TO.N,GND*%
X170885000Y-108000000D03*
%TO.P,D7,2,A*%
%TO.N,Net-(D7-A)*%
X169915000Y-108000000D03*
%TD*%
%TO.P,D6,1,K*%
%TO.N,GND*%
X170885000Y-109990000D03*
%TO.P,D6,2,A*%
%TO.N,Net-(D6-A)*%
X169915000Y-109990000D03*
%TD*%
%TO.P,D5,1,K*%
%TO.N,GND*%
X170885000Y-111980000D03*
%TO.P,D5,2,A*%
%TO.N,Net-(D5-A)*%
X169915000Y-111980000D03*
%TD*%
%TO.P,D4,1,K*%
%TO.N,GND*%
X105200000Y-94900000D03*
%TO.P,D4,2,A*%
%TO.N,Net-(D4-A)*%
X104230000Y-94900000D03*
%TD*%
%TO.P,D3,1,K*%
%TO.N,GND*%
X105285000Y-85700000D03*
%TO.P,D3,2,A*%
%TO.N,Net-(D3-A)*%
X104315000Y-85700000D03*
%TD*%
%TO.P,D2,1,K*%
%TO.N,GND*%
X162485000Y-86100000D03*
%TO.P,D2,2,A*%
%TO.N,Net-(D2-A)*%
X161515000Y-86100000D03*
%TD*%
D25*
%TO.P,C16,1,1*%
%TO.N,+5V_Gen*%
X149256000Y-104002000D03*
%TO.P,C16,2,2*%
%TO.N,GND*%
X148296000Y-104002000D03*
%TD*%
D26*
%TO.P,C74,1,1*%
%TO.N,GND*%
X105300000Y-91280000D03*
%TO.P,C74,2,2*%
%TO.N,VCC*%
X105300000Y-90320000D03*
%TD*%
%TO.P,C4,1*%
%TO.N,GND*%
X105000000Y-111580000D03*
%TO.P,C4,2*%
%TO.N,VRef*%
X105000000Y-110620000D03*
%TD*%
%TO.P,C20,1*%
%TO.N,GND*%
X113650000Y-99942500D03*
%TO.P,C20,2*%
%TO.N,+3.3VA*%
X113650000Y-98982500D03*
%TD*%
D27*
%TO.P,J11,1,VBUS*%
%TO.N,VBUS*%
X144500000Y-79162500D03*
%TO.P,J11,2,D-*%
%TO.N,USBD-*%
X143850000Y-79162500D03*
%TO.P,J11,3,D+*%
%TO.N,USBD+*%
X143200000Y-79162500D03*
%TO.P,J11,4,ID*%
%TO.N,unconnected-(J11-ID-Pad4)*%
X142550000Y-79162500D03*
%TO.P,J11,5,GND*%
%TO.N,GND*%
X141900000Y-79162500D03*
D28*
%TO.P,J11,6,Shield*%
%TO.N,Shield*%
X146700000Y-76462500D03*
D29*
X146100000Y-76462500D03*
D30*
X145700000Y-79162500D03*
D31*
X144200000Y-76462500D03*
X142200000Y-76462500D03*
D30*
X140700000Y-79162500D03*
D29*
X140300000Y-76462500D03*
D28*
X139700000Y-76462500D03*
%TD*%
D32*
%TO.P,C46,1*%
%TO.N,+3.3VA*%
X135400000Y-107982500D03*
%TO.P,C46,2*%
%TO.N,GND*%
X135400000Y-108942500D03*
%TD*%
%TO.P,C60,1*%
%TO.N,+3.3V*%
X143100000Y-98982500D03*
%TO.P,C60,2*%
%TO.N,GND*%
X143100000Y-99942500D03*
%TD*%
D33*
%TO.P,H3,1,1*%
%TO.N,GND*%
X168000000Y-80000000D03*
%TD*%
D34*
%TO.P,TP6,1,1*%
%TO.N,GND*%
X116600000Y-104162500D03*
%TO.P,TP6,2,2*%
%TO.N,/Ferro Amplifier 1/Vout*%
X114060000Y-104162500D03*
%TD*%
D32*
%TO.P,C6,1*%
%TO.N,Net-(U1-NR)*%
X102800000Y-110620000D03*
%TO.P,C6,2*%
%TO.N,GND*%
X102800000Y-111580000D03*
%TD*%
D35*
%TO.P,U9,1,SCLK*%
%TO.N,Net-(U9-SCLK)*%
X142325000Y-91637500D03*
%TO.P,U9,2,~{CS}*%
%TO.N,Net-(U9-~{CS})*%
X141675000Y-91637500D03*
%TO.P,U9,3,CLK*%
%TO.N,GND*%
X141025000Y-91637500D03*
%TO.P,U9,4,DGND*%
X140375000Y-91637500D03*
%TO.P,U9,5,AVSS*%
X139725000Y-91637500D03*
%TO.P,U9,6,AIN3/REFN1*%
X139075000Y-91637500D03*
%TO.P,U9,7,AIN2*%
X138425000Y-91637500D03*
%TO.P,U9,8,REFN0*%
X137775000Y-91637500D03*
%TO.P,U9,9,REFP0*%
%TO.N,+3.3VA*%
X137775000Y-97362500D03*
%TO.P,U9,10,AIN1*%
%TO.N,VRef*%
X138425000Y-97362500D03*
%TO.P,U9,11,AIN0/REFP1*%
%TO.N,/Ferro Amplifier 4/Vout*%
X139075000Y-97362500D03*
%TO.P,U9,12,AVDD*%
%TO.N,+3.3VA*%
X139725000Y-97362500D03*
%TO.P,U9,13,DVDD*%
%TO.N,+3.3V*%
X140375000Y-97362500D03*
%TO.P,U9,14,~{DRDY}*%
%TO.N,Net-(U9-~{DRDY})*%
X141025000Y-97362500D03*
%TO.P,U9,15,DOUT/~{DRDY}*%
%TO.N,Net-(U9-DOUT{slash}~{DRDY})*%
X141675000Y-97362500D03*
%TO.P,U9,16,DIN*%
%TO.N,Net-(U9-DIN)*%
X142325000Y-97362500D03*
%TD*%
D36*
%TO.P,R33,1*%
%TO.N,MISO*%
X144510000Y-96262500D03*
%TO.P,R33,2*%
%TO.N,Net-(U9-DOUT{slash}~{DRDY})*%
X143490000Y-96262500D03*
%TD*%
%TO.P,R16,1*%
%TO.N,CS 1*%
X117160000Y-90362500D03*
%TO.P,R16,2*%
%TO.N,Net-(U3-~{CS})*%
X116140000Y-90362500D03*
%TD*%
D32*
%TO.P,C43,1*%
%TO.N,GND*%
X135400000Y-105982500D03*
%TO.P,C43,2*%
%TO.N,+3.3VA*%
X135400000Y-106942500D03*
%TD*%
D37*
%TO.P,C39,1*%
%TO.N,GND*%
X120120000Y-109462500D03*
%TO.P,C39,2*%
%TO.N,VRef*%
X121080000Y-109462500D03*
%TD*%
D38*
%TO.P,U1,1,IN*%
%TO.N,+3.3VA*%
X104850000Y-106862500D03*
%TO.P,U1,2,GND*%
%TO.N,GND*%
X103900000Y-106862500D03*
%TO.P,U1,3,EN*%
%TO.N,Net-(U1-EN)*%
X102950000Y-106862500D03*
%TO.P,U1,4,NR*%
%TO.N,Net-(U1-NR)*%
X102950000Y-109137500D03*
%TO.P,U1,5,OUT*%
%TO.N,VRef*%
X104850000Y-109137500D03*
%TD*%
D26*
%TO.P,C54,1*%
%TO.N,GND*%
X141000000Y-90080000D03*
%TO.P,C54,2*%
%TO.N,+3.3V*%
X141000000Y-89120000D03*
%TD*%
D39*
%TO.P,U14,1,VIN*%
%TO.N,VCC*%
X104962500Y-98150000D03*
%TO.P,U14,2,GND*%
%TO.N,GND*%
X104962500Y-97200000D03*
%TO.P,U14,3,EN*%
%TO.N,VCC*%
X104962500Y-96250000D03*
%TO.P,U14,4,NC*%
%TO.N,unconnected-(U14-NC-Pad4)*%
X102687500Y-96250000D03*
%TO.P,U14,5,VOUT*%
%TO.N,+3.3VA*%
X102687500Y-98150000D03*
%TD*%
D25*
%TO.P,C12,1,1*%
%TO.N,GND*%
X165080000Y-87420000D03*
%TO.P,C12,2,2*%
%TO.N,+3.3V*%
X164120000Y-87420000D03*
%TD*%
D32*
%TO.P,C24,1*%
%TO.N,+3.3V*%
X115850000Y-98982500D03*
%TO.P,C24,2*%
%TO.N,GND*%
X115850000Y-99942500D03*
%TD*%
D36*
%TO.P,R20,1*%
%TO.N,MOSI*%
X126310000Y-97362500D03*
%TO.P,R20,2*%
%TO.N,Net-(U5-DIN)*%
X125290000Y-97362500D03*
%TD*%
D32*
%TO.P,C22,1*%
%TO.N,+3.3VA*%
X117250000Y-107982500D03*
%TO.P,C22,2*%
%TO.N,GND*%
X117250000Y-108942500D03*
%TD*%
D36*
%TO.P,R35,1*%
%TO.N,DRDY 4*%
X144510000Y-95162500D03*
%TO.P,R35,2*%
%TO.N,Net-(U9-~{DRDY})*%
X143490000Y-95162500D03*
%TD*%
D33*
%TO.P,H1,1,1*%
%TO.N,GND*%
X100000000Y-116320000D03*
%TD*%
D40*
%TO.P,TP5,1,1*%
%TO.N,GND*%
X99200000Y-86500000D03*
%TD*%
D41*
%TO.P,R49,1*%
%TO.N,Net-(Q2-Pad1)*%
X150400000Y-85810000D03*
%TO.P,R49,2*%
%TO.N,RTS*%
X150400000Y-84790000D03*
%TD*%
D26*
%TO.P,C35,1*%
%TO.N,GND*%
X123800000Y-99942500D03*
%TO.P,C35,2*%
%TO.N,+3.3V*%
X123800000Y-98982500D03*
%TD*%
D35*
%TO.P,U5,1,SCLK*%
%TO.N,Net-(U5-SCLK)*%
X124125000Y-91625000D03*
%TO.P,U5,2,~{CS}*%
%TO.N,Net-(U5-~{CS})*%
X123475000Y-91625000D03*
%TO.P,U5,3,CLK*%
%TO.N,GND*%
X122825000Y-91625000D03*
%TO.P,U5,4,DGND*%
X122175000Y-91625000D03*
%TO.P,U5,5,AVSS*%
X121525000Y-91625000D03*
%TO.P,U5,6,AIN3/REFN1*%
X120875000Y-91625000D03*
%TO.P,U5,7,AIN2*%
X120225000Y-91625000D03*
%TO.P,U5,8,REFN0*%
X119575000Y-91625000D03*
%TO.P,U5,9,REFP0*%
%TO.N,+3.3VA*%
X119575000Y-97350000D03*
%TO.P,U5,10,AIN1*%
%TO.N,VRef*%
X120225000Y-97350000D03*
%TO.P,U5,11,AIN0/REFP1*%
%TO.N,/Ferro Amplifier 2/Vout*%
X120875000Y-97350000D03*
%TO.P,U5,12,AVDD*%
%TO.N,+3.3VA*%
X121525000Y-97350000D03*
%TO.P,U5,13,DVDD*%
%TO.N,+3.3V*%
X122175000Y-97350000D03*
%TO.P,U5,14,~{DRDY}*%
%TO.N,Net-(U5-~{DRDY})*%
X122825000Y-97350000D03*
%TO.P,U5,15,DOUT/~{DRDY}*%
%TO.N,Net-(U5-DOUT{slash}~{DRDY})*%
X123475000Y-97350000D03*
%TO.P,U5,16,DIN*%
%TO.N,Net-(U5-DIN)*%
X124125000Y-97350000D03*
%TD*%
D26*
%TO.P,C32,1*%
%TO.N,GND*%
X122700000Y-99942500D03*
%TO.P,C32,2*%
%TO.N,+3.3VA*%
X122700000Y-98982500D03*
%TD*%
D36*
%TO.P,R14,1*%
%TO.N,MOSI*%
X117260000Y-97362500D03*
%TO.P,R14,2*%
%TO.N,Net-(U3-DIN)*%
X116240000Y-97362500D03*
%TD*%
D26*
%TO.P,C18,1*%
%TO.N,GND*%
X113750000Y-90080000D03*
%TO.P,C18,2*%
%TO.N,+3.3V*%
X113750000Y-89120000D03*
%TD*%
D42*
%TO.P,C7,1*%
%TO.N,+3.3V*%
X102125000Y-93000000D03*
%TO.P,C7,2*%
%TO.N,GND*%
X105075000Y-93000000D03*
%TD*%
D25*
%TO.P,C71,1,1*%
%TO.N,GND*%
X115780000Y-83800000D03*
%TO.P,C71,2,2*%
%TO.N,VCC_STATE*%
X114820000Y-83800000D03*
%TD*%
D26*
%TO.P,C59,1*%
%TO.N,GND*%
X142000000Y-99942500D03*
%TO.P,C59,2*%
%TO.N,+3.3V*%
X142000000Y-98982500D03*
%TD*%
D43*
%TO.P,RF1,1*%
%TO.N,/Ferro Amplifier 1/Ferro*%
X111862500Y-103862500D03*
%TO.P,RF1,2*%
%TO.N,/Ferro Amplifier 1/Vout*%
X110037500Y-103862500D03*
%TD*%
D32*
%TO.P,C58,1*%
%TO.N,+3.3VA*%
X144500000Y-107982500D03*
%TO.P,C58,2*%
%TO.N,GND*%
X144500000Y-108942500D03*
%TD*%
D44*
%TO.P,R52,1,1*%
%TO.N,GND*%
X134890000Y-76200000D03*
%TO.P,R52,2,2*%
%TO.N,VBUS*%
X135910000Y-76200000D03*
%TD*%
D36*
%TO.P,R28,1*%
%TO.N,CS 3*%
X135310000Y-90362500D03*
%TO.P,R28,2*%
%TO.N,Net-(U7-~{CS})*%
X134290000Y-90362500D03*
%TD*%
%TO.P,R32,1*%
%TO.N,MOSI*%
X144510000Y-97362500D03*
%TO.P,R32,2*%
%TO.N,Net-(U9-DIN)*%
X143490000Y-97362500D03*
%TD*%
%TO.P,R15,1*%
%TO.N,MISO*%
X117260000Y-96262500D03*
%TO.P,R15,2*%
%TO.N,Net-(U3-DOUT{slash}~{DRDY})*%
X116240000Y-96262500D03*
%TD*%
D45*
%TO.P,Q3,1,G*%
%TO.N,VBUS*%
X135762500Y-77550000D03*
%TO.P,Q3,2,S*%
%TO.N,Net-(D1-K)*%
X135762500Y-79450000D03*
%TO.P,Q3,3,D*%
%TO.N,BAT+*%
X137637500Y-78500000D03*
%TD*%
D36*
%TO.P,R12,1*%
%TO.N,CS 1*%
X115860000Y-89262500D03*
%TO.P,R12,2*%
%TO.N,+3.3V*%
X114840000Y-89262500D03*
%TD*%
D26*
%TO.P,C56,1*%
%TO.N,GND*%
X140900000Y-99942500D03*
%TO.P,C56,2*%
%TO.N,+3.3VA*%
X140900000Y-98982500D03*
%TD*%
D46*
%TO.P,Q2,1*%
%TO.N,Net-(Q2-Pad1)*%
X151590000Y-85150000D03*
%TO.P,Q2,2*%
%TO.N,DTR*%
X151590000Y-87050000D03*
%TO.P,Q2,3*%
%TO.N,Net-(Q2-Pad3)*%
X153610000Y-86100000D03*
%TD*%
D36*
%TO.P,R21,1*%
%TO.N,MISO*%
X126310000Y-96262500D03*
%TO.P,R21,2*%
%TO.N,Net-(U5-DOUT{slash}~{DRDY})*%
X125290000Y-96262500D03*
%TD*%
D47*
%TO.P,R40,1*%
%TO.N,Net-(U12-VBUS)*%
X160200000Y-83890000D03*
%TO.P,R40,2*%
%TO.N,VBUS*%
X160200000Y-84910000D03*
%TD*%
D41*
%TO.P,R43,1,1*%
%TO.N,Net-(D9-K)*%
X125700000Y-79410000D03*
%TO.P,R43,2,2*%
%TO.N,Net-(IC1-CHRG)*%
X125700000Y-78390000D03*
%TD*%
D32*
%TO.P,C9,1,1*%
%TO.N,GND*%
X163800000Y-77820000D03*
%TO.P,C9,2,2*%
%TO.N,BOOT*%
X163800000Y-78780000D03*
%TD*%
D40*
%TO.P,TP4,1,1*%
%TO.N,VRef*%
X99200000Y-99300000D03*
%TD*%
D48*
%TO.P,NT1,1,1*%
%TO.N,GND*%
X137800000Y-76200000D03*
%TO.P,NT1,2,2*%
%TO.N,Shield*%
X138800000Y-76200000D03*
%TD*%
D25*
%TO.P,C28,1*%
%TO.N,VRef*%
X112030000Y-108362500D03*
%TO.P,C28,2*%
%TO.N,GND*%
X111070000Y-108362500D03*
%TD*%
%TO.P,C11,1,1*%
%TO.N,GND*%
X165080000Y-88450000D03*
%TO.P,C11,2,2*%
%TO.N,+3.3V*%
X164120000Y-88450000D03*
%TD*%
%TO.P,C76,1,1*%
%TO.N,GND*%
X104305000Y-99500000D03*
%TO.P,C76,2,2*%
%TO.N,+3.3VA*%
X103345000Y-99500000D03*
%TD*%
D26*
%TO.P,C3,1*%
%TO.N,GND*%
X106100000Y-111580000D03*
%TO.P,C3,2*%
%TO.N,VRef*%
X106100000Y-110620000D03*
%TD*%
D40*
%TO.P,TP3,1,1*%
%TO.N,+3.3VA*%
X99200000Y-96000000D03*
%TD*%
D37*
%TO.P,C15,1,1*%
%TO.N,Net-(U15-C1+)*%
X149820000Y-98414000D03*
%TO.P,C15,2,2*%
%TO.N,Net-(U15-C1-)*%
X150780000Y-98414000D03*
%TD*%
D25*
%TO.P,C14,1,1*%
%TO.N,GND*%
X166880000Y-106550000D03*
%TO.P,C14,2,2*%
%TO.N,ESP EN*%
X165920000Y-106550000D03*
%TD*%
D32*
%TO.P,C1,1*%
%TO.N,GND*%
X105000000Y-104420000D03*
%TO.P,C1,2*%
%TO.N,+3.3VA*%
X105000000Y-105380000D03*
%TD*%
D42*
%TO.P,C8,1*%
%TO.N,+3.3VA*%
X102125000Y-102200000D03*
%TO.P,C8,2*%
%TO.N,GND*%
X105075000Y-102200000D03*
%TD*%
D32*
%TO.P,C57,1*%
%TO.N,+3.3VA*%
X139800000Y-98982500D03*
%TO.P,C57,2*%
%TO.N,GND*%
X139800000Y-99942500D03*
%TD*%
%TO.P,C25,1*%
%TO.N,+3.3VA*%
X110050000Y-98982500D03*
%TO.P,C25,2*%
%TO.N,GND*%
X110050000Y-99942500D03*
%TD*%
D36*
%TO.P,R18,1*%
%TO.N,CS 2*%
X124910000Y-89262500D03*
%TO.P,R18,2*%
%TO.N,+3.3V*%
X123890000Y-89262500D03*
%TD*%
%TO.P,R29,1*%
%TO.N,DRDY 3*%
X135410000Y-95162500D03*
%TO.P,R29,2*%
%TO.N,Net-(U7-~{DRDY})*%
X134390000Y-95162500D03*
%TD*%
D43*
%TO.P,RF3,1*%
%TO.N,/Ferro Amplifier 3/Ferro*%
X130012500Y-103862500D03*
%TO.P,RF3,2*%
%TO.N,/Ferro Amplifier 3/Vout*%
X128187500Y-103862500D03*
%TD*%
D32*
%TO.P,C21,1*%
%TO.N,+3.3VA*%
X112550000Y-98982500D03*
%TO.P,C21,2*%
%TO.N,GND*%
X112550000Y-99942500D03*
%TD*%
%TO.P,C53,1*%
%TO.N,+3.3V*%
X139900000Y-89120000D03*
%TO.P,C53,2*%
%TO.N,GND*%
X139900000Y-90080000D03*
%TD*%
D49*
%TO.P,U8,1*%
%TO.N,/Ferro Amplifier 3/Vout*%
X131700000Y-107012500D03*
%TO.P,U8,2,V-*%
%TO.N,GND*%
X131700000Y-107962500D03*
%TO.P,U8,3,+*%
%TO.N,VRef*%
X131700000Y-108912500D03*
%TO.P,U8,4,-*%
%TO.N,/Ferro Amplifier 3/Ferro*%
X133900000Y-108912500D03*
%TO.P,U8,5,V+*%
%TO.N,+3.3VA*%
X133900000Y-107012500D03*
%TD*%
D26*
%TO.P,C78,1,1*%
%TO.N,GND*%
X105325000Y-100480000D03*
%TO.P,C78,2,2*%
%TO.N,VCC*%
X105325000Y-99520000D03*
%TD*%
D40*
%TO.P,TP1,1,1*%
%TO.N,VCC*%
X99200000Y-89700000D03*
%TD*%
D50*
%TO.P,X1,1,1*%
%TO.N,BAT+*%
X132100000Y-77900000D03*
D51*
%TO.P,X1,2,2*%
%TO.N,GND*%
X132100000Y-79900000D03*
%TD*%
D25*
%TO.P,C64,1*%
%TO.N,VRef*%
X139280000Y-108362500D03*
%TO.P,C64,2*%
%TO.N,GND*%
X138320000Y-108362500D03*
%TD*%
D26*
%TO.P,C62,1*%
%TO.N,GND*%
X138300000Y-99942500D03*
%TO.P,C62,2*%
%TO.N,+3.3VA*%
X138300000Y-98982500D03*
%TD*%
D46*
%TO.P,Q1,1*%
%TO.N,Net-(Q1-Pad1)*%
X150810000Y-82950000D03*
%TO.P,Q1,2*%
%TO.N,RTS*%
X150810000Y-81050000D03*
%TO.P,Q1,3*%
%TO.N,Net-(Q1-Pad3)*%
X148790000Y-82000000D03*
%TD*%
D36*
%TO.P,R17,1*%
%TO.N,DRDY 1*%
X117260000Y-95162500D03*
%TO.P,R17,2*%
%TO.N,Net-(U3-~{DRDY})*%
X116240000Y-95162500D03*
%TD*%
D32*
%TO.P,C17,1*%
%TO.N,+3.3V*%
X112650000Y-89120000D03*
%TO.P,C17,2*%
%TO.N,GND*%
X112650000Y-90080000D03*
%TD*%
D34*
%TO.P,TP9,1,1*%
%TO.N,GND*%
X143850000Y-104162500D03*
%TO.P,TP9,2,2*%
%TO.N,/Ferro Amplifier 4/Vout*%
X141310000Y-104162500D03*
%TD*%
D32*
%TO.P,C41,1*%
%TO.N,+3.3V*%
X130800000Y-89120000D03*
%TO.P,C41,2*%
%TO.N,GND*%
X130800000Y-90080000D03*
%TD*%
D25*
%TO.P,C66,1,1*%
%TO.N,GND*%
X162260000Y-83900000D03*
%TO.P,C66,2,2*%
%TO.N,VBUS*%
X161300000Y-83900000D03*
%TD*%
D34*
%TO.P,TP8,1,1*%
%TO.N,GND*%
X134750000Y-104162500D03*
%TO.P,TP8,2,2*%
%TO.N,/Ferro Amplifier 3/Vout*%
X132210000Y-104162500D03*
%TD*%
D36*
%TO.P,R19,1*%
%TO.N,SCK*%
X126210000Y-91462500D03*
%TO.P,R19,2*%
%TO.N,Net-(U5-SCLK)*%
X125190000Y-91462500D03*
%TD*%
D37*
%TO.P,C27,1*%
%TO.N,GND*%
X111070000Y-109462500D03*
%TO.P,C27,2*%
%TO.N,VRef*%
X112030000Y-109462500D03*
%TD*%
D25*
%TO.P,C77,1,1*%
%TO.N,GND*%
X104305000Y-100500000D03*
%TO.P,C77,2,2*%
%TO.N,+3.3VA*%
X103345000Y-100500000D03*
%TD*%
D26*
%TO.P,C69,1,1*%
%TO.N,VBUS*%
X117100000Y-80880000D03*
%TO.P,C69,2,2*%
%TO.N,GND*%
X117100000Y-79920000D03*
%TD*%
D44*
%TO.P,R2,1*%
%TO.N,LED2*%
X167990000Y-110000000D03*
%TO.P,R2,2*%
%TO.N,Net-(D6-A)*%
X169010000Y-110000000D03*
%TD*%
D47*
%TO.P,R47,1*%
%TO.N,Net-(Q1-Pad1)*%
X149300000Y-84790000D03*
%TO.P,R47,2*%
%TO.N,DTR*%
X149300000Y-85810000D03*
%TD*%
D32*
%TO.P,C10,1,1*%
%TO.N,GND*%
X157000000Y-77820000D03*
%TO.P,C10,2,2*%
%TO.N,ESP EN*%
X157000000Y-78780000D03*
%TD*%
D47*
%TO.P,R3,1*%
%TO.N,+3.3VA*%
X102800000Y-104390000D03*
%TO.P,R3,2*%
%TO.N,Net-(U1-EN)*%
X102800000Y-105410000D03*
%TD*%
D25*
%TO.P,C67,1,1*%
%TO.N,GND*%
X162260000Y-84900000D03*
%TO.P,C67,2,2*%
%TO.N,VBUS*%
X161300000Y-84900000D03*
%TD*%
D32*
%TO.P,C61,1*%
%TO.N,+3.3VA*%
X137300000Y-98982500D03*
%TO.P,C61,2*%
%TO.N,GND*%
X137300000Y-99942500D03*
%TD*%
D44*
%TO.P,R53,1*%
%TO.N,+3.3VA*%
X102305000Y-94905000D03*
%TO.P,R53,2*%
%TO.N,Net-(D4-A)*%
X103325000Y-94905000D03*
%TD*%
D32*
%TO.P,C36,1*%
%TO.N,+3.3V*%
X124900000Y-98982500D03*
%TO.P,C36,2*%
%TO.N,GND*%
X124900000Y-99942500D03*
%TD*%
D47*
%TO.P,R6,1,1*%
%TO.N,+3.3V*%
X163100000Y-87440000D03*
%TO.P,R6,2,2*%
%TO.N,BOOT*%
X163100000Y-88460000D03*
%TD*%
D52*
%TO.P,R41,1*%
%TO.N,USBD-*%
X157400000Y-87297500D03*
%TO.P,R41,2*%
%TO.N,Net-(U12-D-)*%
X157400000Y-86102500D03*
%TD*%
D53*
%TO.P,IC1,1,TEMP*%
%TO.N,GND*%
X118650000Y-76995000D03*
%TO.P,IC1,2,PROG*%
%TO.N,Net-(IC1-PROG)*%
X118650000Y-78265000D03*
%TO.P,IC1,3,GND*%
%TO.N,GND*%
X118650000Y-79535000D03*
%TO.P,IC1,4,VCC*%
%TO.N,VBUS*%
X118650000Y-80805000D03*
%TO.P,IC1,5,BAT*%
%TO.N,BAT+*%
X124150000Y-80805000D03*
%TO.P,IC1,6,STDBY*%
%TO.N,unconnected-(IC1-STDBY-Pad6)*%
X124150000Y-79535000D03*
%TO.P,IC1,7,CHRG*%
%TO.N,Net-(IC1-CHRG)*%
X124150000Y-78265000D03*
%TO.P,IC1,8,CE*%
%TO.N,VBUS*%
X124150000Y-76995000D03*
%TD*%
D54*
%TO.P,J5,1,Pin_1*%
%TO.N,Shield*%
X171100000Y-87200000D03*
%TD*%
D55*
%TO.P,R39,1*%
%TO.N,ESP TXD*%
X152500000Y-82100000D03*
%TO.P,R39,2*%
%TO.N,Net-(U12-RXD)*%
X153695000Y-82100000D03*
%TD*%
D44*
%TO.P,R4,1*%
%TO.N,LED3*%
X167990000Y-108000000D03*
%TO.P,R4,2*%
%TO.N,Net-(D7-A)*%
X169010000Y-108000000D03*
%TD*%
D32*
%TO.P,C2,1*%
%TO.N,GND*%
X103900000Y-104420000D03*
%TO.P,C2,2*%
%TO.N,+3.3VA*%
X103900000Y-105380000D03*
%TD*%
D26*
%TO.P,C42,1*%
%TO.N,GND*%
X131900000Y-90080000D03*
%TO.P,C42,2*%
%TO.N,+3.3V*%
X131900000Y-89120000D03*
%TD*%
%TO.P,C65,1,1*%
%TO.N,GND*%
X159400000Y-86980000D03*
%TO.P,C65,2,2*%
%TO.N,Net-(U12-VDD)*%
X159400000Y-86020000D03*
%TD*%
D33*
%TO.P,H4,1,1*%
%TO.N,GND*%
X168000000Y-116320000D03*
%TD*%
D32*
%TO.P,C55,1*%
%TO.N,GND*%
X144500000Y-105982500D03*
%TO.P,C55,2*%
%TO.N,+3.3VA*%
X144500000Y-106942500D03*
%TD*%
D26*
%TO.P,C68,1,1*%
%TO.N,GND*%
X158400000Y-86980000D03*
%TO.P,C68,2,2*%
%TO.N,Net-(U12-VDD)*%
X158400000Y-86020000D03*
%TD*%
%TO.P,C47,1*%
%TO.N,GND*%
X132900000Y-99942500D03*
%TO.P,C47,2*%
%TO.N,+3.3V*%
X132900000Y-98982500D03*
%TD*%
D36*
%TO.P,R22,1*%
%TO.N,CS 2*%
X126210000Y-90362500D03*
%TO.P,R22,2*%
%TO.N,Net-(U5-~{CS})*%
X125190000Y-90362500D03*
%TD*%
D44*
%TO.P,R1,1*%
%TO.N,LED1*%
X167990000Y-112000000D03*
%TO.P,R1,2*%
%TO.N,Net-(D5-A)*%
X169010000Y-112000000D03*
%TD*%
D35*
%TO.P,U7,1,SCLK*%
%TO.N,Net-(U7-SCLK)*%
X133225000Y-91637500D03*
%TO.P,U7,2,~{CS}*%
%TO.N,Net-(U7-~{CS})*%
X132575000Y-91637500D03*
%TO.P,U7,3,CLK*%
%TO.N,GND*%
X131925000Y-91637500D03*
%TO.P,U7,4,DGND*%
X131275000Y-91637500D03*
%TO.P,U7,5,AVSS*%
X130625000Y-91637500D03*
%TO.P,U7,6,AIN3/REFN1*%
X129975000Y-91637500D03*
%TO.P,U7,7,AIN2*%
X129325000Y-91637500D03*
%TO.P,U7,8,REFN0*%
X128675000Y-91637500D03*
%TO.P,U7,9,REFP0*%
%TO.N,+3.3VA*%
X128675000Y-97362500D03*
%TO.P,U7,10,AIN1*%
%TO.N,VRef*%
X129325000Y-97362500D03*
%TO.P,U7,11,AIN0/REFP1*%
%TO.N,/Ferro Amplifier 3/Vout*%
X129975000Y-97362500D03*
%TO.P,U7,12,AVDD*%
%TO.N,+3.3VA*%
X130625000Y-97362500D03*
%TO.P,U7,13,DVDD*%
%TO.N,+3.3V*%
X131275000Y-97362500D03*
%TO.P,U7,14,~{DRDY}*%
%TO.N,Net-(U7-~{DRDY})*%
X131925000Y-97362500D03*
%TO.P,U7,15,DOUT/~{DRDY}*%
%TO.N,Net-(U7-DOUT{slash}~{DRDY})*%
X132575000Y-97362500D03*
%TO.P,U7,16,DIN*%
%TO.N,Net-(U7-DIN)*%
X133225000Y-97362500D03*
%TD*%
D26*
%TO.P,C30,1*%
%TO.N,GND*%
X122800000Y-90067500D03*
%TO.P,C30,2*%
%TO.N,+3.3V*%
X122800000Y-89107500D03*
%TD*%
D32*
%TO.P,C49,1*%
%TO.N,+3.3VA*%
X128200000Y-98982500D03*
%TO.P,C49,2*%
%TO.N,GND*%
X128200000Y-99942500D03*
%TD*%
D44*
%TO.P,R51,1*%
%TO.N,+3.3V*%
X102290000Y-85700000D03*
%TO.P,R51,2*%
%TO.N,Net-(D3-A)*%
X103310000Y-85700000D03*
%TD*%
D32*
%TO.P,C34,1*%
%TO.N,+3.3VA*%
X126300000Y-107982500D03*
%TO.P,C34,2*%
%TO.N,GND*%
X126300000Y-108942500D03*
%TD*%
D25*
%TO.P,C13,1,1*%
%TO.N,GND*%
X166880000Y-105550000D03*
%TO.P,C13,2,2*%
%TO.N,ESP EN*%
X165920000Y-105550000D03*
%TD*%
D56*
%TO.P,J3,1,Pin_1*%
%TO.N,+5V_Gen*%
X153456000Y-116078000D03*
D57*
%TO.P,J3,2,Pin_2*%
%TO.N,UART2 RXD*%
X155956000Y-116078000D03*
%TO.P,J3,3,Pin_3*%
%TO.N,UART2 TXD*%
X158456000Y-116078000D03*
%TO.P,J3,4,Pin_4*%
%TO.N,GND*%
X160956000Y-116078000D03*
%TD*%
D25*
%TO.P,C40,1*%
%TO.N,VRef*%
X121080000Y-108362500D03*
%TO.P,C40,2*%
%TO.N,GND*%
X120120000Y-108362500D03*
%TD*%
%TO.P,C79,1,1*%
%TO.N,+5V_Gen*%
X149256000Y-102986000D03*
%TO.P,C79,2,2*%
%TO.N,GND*%
X148296000Y-102986000D03*
%TD*%
D39*
%TO.P,U13,1,VIN*%
%TO.N,VCC*%
X104937500Y-88950000D03*
%TO.P,U13,2,GND*%
%TO.N,GND*%
X104937500Y-88000000D03*
%TO.P,U13,3,EN*%
%TO.N,VCC*%
X104937500Y-87050000D03*
%TO.P,U13,4,NC*%
%TO.N,unconnected-(U13-NC-Pad4)*%
X102662500Y-87050000D03*
%TO.P,U13,5,VOUT*%
%TO.N,+3.3V*%
X102662500Y-88950000D03*
%TD*%
D58*
%TO.P,R50,1*%
%TO.N,Net-(Q2-Pad3)*%
X154800000Y-86102500D03*
%TO.P,R50,2*%
%TO.N,BOOT*%
X154800000Y-87297500D03*
%TD*%
D25*
%TO.P,C70,1,1*%
%TO.N,GND*%
X126580000Y-80800000D03*
%TO.P,C70,2,2*%
%TO.N,BAT+*%
X125620000Y-80800000D03*
%TD*%
D32*
%TO.P,C5,1*%
%TO.N,Net-(U1-NR)*%
X103900000Y-110620000D03*
%TO.P,C5,2*%
%TO.N,GND*%
X103900000Y-111580000D03*
%TD*%
%TO.P,C37,1*%
%TO.N,+3.3VA*%
X119100000Y-98982500D03*
%TO.P,C37,2*%
%TO.N,GND*%
X119100000Y-99942500D03*
%TD*%
D25*
%TO.P,C52,1*%
%TO.N,VRef*%
X130180000Y-108362500D03*
%TO.P,C52,2*%
%TO.N,GND*%
X129220000Y-108362500D03*
%TD*%
D32*
%TO.P,C45,1*%
%TO.N,+3.3VA*%
X130700000Y-98982500D03*
%TO.P,C45,2*%
%TO.N,GND*%
X130700000Y-99942500D03*
%TD*%
D36*
%TO.P,R25,1*%
%TO.N,SCK*%
X135310000Y-91462500D03*
%TO.P,R25,2*%
%TO.N,Net-(U7-SCLK)*%
X134290000Y-91462500D03*
%TD*%
D59*
%TO.P,R38,1*%
%TO.N,Net-(U12-TXD)*%
X153700000Y-83200000D03*
%TO.P,R38,2*%
%TO.N,ESP RXD*%
X152505000Y-83200000D03*
%TD*%
D37*
%TO.P,C63,1*%
%TO.N,GND*%
X138320000Y-109462500D03*
%TO.P,C63,2*%
%TO.N,VRef*%
X139280000Y-109462500D03*
%TD*%
D36*
%TO.P,R31,1*%
%TO.N,SCK*%
X144410000Y-91462500D03*
%TO.P,R31,2*%
%TO.N,Net-(U9-SCLK)*%
X143390000Y-91462500D03*
%TD*%
D43*
%TO.P,RF4,1*%
%TO.N,/Ferro Amplifier 4/Ferro*%
X139112500Y-103862500D03*
%TO.P,RF4,2*%
%TO.N,/Ferro Amplifier 4/Vout*%
X137287500Y-103862500D03*
%TD*%
D54*
%TO.P,J1,1,Pin_1*%
%TO.N,GND*%
X105420000Y-82400000D03*
D60*
%TO.P,J1,2,Pin_2*%
%TO.N,+3.3V*%
X107960000Y-82400000D03*
%TO.P,J1,3,Pin_3*%
%TO.N,VCC*%
X110500000Y-82400000D03*
%TD*%
D61*
%TO.P,CF4,1*%
%TO.N,/Ferro Amplifier 4/Ferro*%
X139150000Y-105862500D03*
%TO.P,CF4,2*%
%TO.N,/Ferro Amplifier 4/Vout*%
X137250000Y-105862500D03*
%TD*%
D41*
%TO.P,R5,1*%
%TO.N,LED4*%
X168800000Y-106710000D03*
%TO.P,R5,2*%
%TO.N,Net-(D8-A)*%
X168800000Y-105690000D03*
%TD*%
D62*
%TO.P,U11,1,I/O1*%
%TO.N,USBD+*%
X144250000Y-81162500D03*
D63*
%TO.P,U11,2,GND*%
%TO.N,GND*%
X144175000Y-81700000D03*
D62*
%TO.P,U11,3,I/O2*%
%TO.N,USBD-*%
X144250000Y-82237500D03*
%TO.P,U11,4,I/O2*%
%TO.N,unconnected-(U11-I{slash}O2-Pad4)*%
X145950000Y-82237500D03*
D63*
%TO.P,U11,5,VBUS*%
%TO.N,VBUS*%
X146025000Y-81700000D03*
D62*
%TO.P,U11,6,I/O1*%
%TO.N,unconnected-(U11-I{slash}O1-Pad6)*%
X145950000Y-81162500D03*
%TD*%
D34*
%TO.P,TP7,1,1*%
%TO.N,GND*%
X125650000Y-104162500D03*
%TO.P,TP7,2,2*%
%TO.N,/Ferro Amplifier 2/Vout*%
X123110000Y-104162500D03*
%TD*%
D33*
%TO.P,H2,1,1*%
%TO.N,GND*%
X100000000Y-80000000D03*
%TD*%
D61*
%TO.P,CF1,1*%
%TO.N,/Ferro Amplifier 1/Ferro*%
X111900000Y-105862500D03*
%TO.P,CF1,2*%
%TO.N,/Ferro Amplifier 1/Vout*%
X110000000Y-105862500D03*
%TD*%
D54*
%TO.P,J2,1,Pin_1*%
%TO.N,GPIO38*%
X152151000Y-110744000D03*
D60*
%TO.P,J2,2,Pin_2*%
%TO.N,GPIO39*%
X154691000Y-110744000D03*
%TO.P,J2,3,Pin_3*%
%TO.N,GPIO40*%
X157231000Y-110744000D03*
%TO.P,J2,4,Pin_4*%
%TO.N,GPIO41*%
X159771000Y-110744000D03*
%TO.P,J2,5,Pin_5*%
%TO.N,GPIO42*%
X162311000Y-110744000D03*
%TD*%
D35*
%TO.P,U3,1,SCLK*%
%TO.N,Net-(U3-SCLK)*%
X115075000Y-91625000D03*
%TO.P,U3,2,~{CS}*%
%TO.N,Net-(U3-~{CS})*%
X114425000Y-91625000D03*
%TO.P,U3,3,CLK*%
%TO.N,GND*%
X113775000Y-91625000D03*
%TO.P,U3,4,DGND*%
X113125000Y-91625000D03*
%TO.P,U3,5,AVSS*%
X112475000Y-91625000D03*
%TO.P,U3,6,AIN3/REFN1*%
X111825000Y-91625000D03*
%TO.P,U3,7,AIN2*%
X111175000Y-91625000D03*
%TO.P,U3,8,REFN0*%
X110525000Y-91625000D03*
%TO.P,U3,9,REFP0*%
%TO.N,+3.3VA*%
X110525000Y-97350000D03*
%TO.P,U3,10,AIN1*%
%TO.N,VRef*%
X111175000Y-97350000D03*
%TO.P,U3,11,AIN0/REFP1*%
%TO.N,/Ferro Amplifier 1/Vout*%
X111825000Y-97350000D03*
%TO.P,U3,12,AVDD*%
%TO.N,+3.3VA*%
X112475000Y-97350000D03*
%TO.P,U3,13,DVDD*%
%TO.N,+3.3V*%
X113125000Y-97350000D03*
%TO.P,U3,14,~{DRDY}*%
%TO.N,Net-(U3-~{DRDY})*%
X113775000Y-97350000D03*
%TO.P,U3,15,DOUT/~{DRDY}*%
%TO.N,Net-(U3-DOUT{slash}~{DRDY})*%
X114425000Y-97350000D03*
%TO.P,U3,16,DIN*%
%TO.N,Net-(U3-DIN)*%
X115075000Y-97350000D03*
%TD*%
D58*
%TO.P,R42,1*%
%TO.N,Net-(U12-D+)*%
X156400000Y-86100000D03*
%TO.P,R42,2*%
%TO.N,USBD+*%
X156400000Y-87295000D03*
%TD*%
D25*
%TO.P,C73,1,1*%
%TO.N,GND*%
X104280000Y-90300000D03*
%TO.P,C73,2,2*%
%TO.N,+3.3V*%
X103320000Y-90300000D03*
%TD*%
D36*
%TO.P,R26,1*%
%TO.N,MOSI*%
X135410000Y-97362500D03*
%TO.P,R26,2*%
%TO.N,Net-(U7-DIN)*%
X134390000Y-97362500D03*
%TD*%
%TO.P,R23,1*%
%TO.N,DRDY 2*%
X126310000Y-95162500D03*
%TO.P,R23,2*%
%TO.N,Net-(U5-~{DRDY})*%
X125290000Y-95162500D03*
%TD*%
%TO.P,R30,1*%
%TO.N,CS 4*%
X143110000Y-89262500D03*
%TO.P,R30,2*%
%TO.N,+3.3V*%
X142090000Y-89262500D03*
%TD*%
D32*
%TO.P,C31,1*%
%TO.N,GND*%
X126300000Y-105982500D03*
%TO.P,C31,2*%
%TO.N,+3.3VA*%
X126300000Y-106942500D03*
%TD*%
D36*
%TO.P,R34,1*%
%TO.N,CS 4*%
X144410000Y-90362500D03*
%TO.P,R34,2*%
%TO.N,Net-(U9-~{CS})*%
X143390000Y-90362500D03*
%TD*%
D40*
%TO.P,TP2,1,1*%
%TO.N,+3.3V*%
X99200000Y-92900000D03*
%TD*%
D25*
%TO.P,C81,1,1*%
%TO.N,GND*%
X151288000Y-102986000D03*
%TO.P,C81,2,2*%
%TO.N,+3.3V*%
X150328000Y-102986000D03*
%TD*%
D47*
%TO.P,R46,1,1*%
%TO.N,Net-(IC1-PROG)*%
X117100000Y-77890000D03*
%TO.P,R46,2,2*%
%TO.N,GND*%
X117100000Y-78910000D03*
%TD*%
D44*
%TO.P,R37,1*%
%TO.N,Net-(U12-~{RST})*%
X160090000Y-82800000D03*
%TO.P,R37,2*%
%TO.N,Net-(U12-VDD)*%
X161110000Y-82800000D03*
%TD*%
D36*
%TO.P,R24,1*%
%TO.N,CS 3*%
X134010000Y-89262500D03*
%TO.P,R24,2*%
%TO.N,+3.3V*%
X132990000Y-89262500D03*
%TD*%
%TO.P,R27,1*%
%TO.N,MISO*%
X135410000Y-96262500D03*
%TO.P,R27,2*%
%TO.N,Net-(U7-DOUT{slash}~{DRDY})*%
X134390000Y-96262500D03*
%TD*%
D49*
%TO.P,U6,1*%
%TO.N,/Ferro Amplifier 2/Vout*%
X122600000Y-107012500D03*
%TO.P,U6,2,V-*%
%TO.N,GND*%
X122600000Y-107962500D03*
%TO.P,U6,3,+*%
%TO.N,VRef*%
X122600000Y-108912500D03*
%TO.P,U6,4,-*%
%TO.N,/Ferro Amplifier 2/Ferro*%
X124800000Y-108912500D03*
%TO.P,U6,5,V+*%
%TO.N,+3.3VA*%
X124800000Y-107012500D03*
%TD*%
D64*
%TO.P,J6,1,Shield*%
%TO.N,Shield*%
X107825000Y-85612500D03*
D65*
X107825000Y-87237500D03*
D66*
X107825000Y-92462500D03*
X107825000Y-98462500D03*
X107825000Y-104462500D03*
D65*
X107825000Y-109687500D03*
D64*
X107825000Y-111312500D03*
D67*
X109625000Y-85612500D03*
D68*
X109650000Y-111312500D03*
D69*
X115050000Y-85612500D03*
X115050000Y-111312500D03*
X121050000Y-85612500D03*
X121050000Y-111312500D03*
X127050000Y-85612500D03*
X127050000Y-111312500D03*
X133050000Y-85612500D03*
X133050000Y-111312500D03*
X139050000Y-85612500D03*
X139050000Y-111312500D03*
D68*
X144450000Y-85612500D03*
X144450000Y-111312500D03*
D64*
X146275000Y-85612500D03*
D65*
X146275000Y-87237500D03*
D66*
X146275000Y-92462500D03*
X146275000Y-98462500D03*
X146275000Y-104462500D03*
D65*
X146275000Y-109687500D03*
D64*
X146275000Y-111312500D03*
%TD*%
D26*
%TO.P,C50,1*%
%TO.N,GND*%
X129200000Y-99942500D03*
%TO.P,C50,2*%
%TO.N,+3.3VA*%
X129200000Y-98982500D03*
%TD*%
D37*
%TO.P,C75,1,1*%
%TO.N,GND*%
X132920000Y-82900000D03*
%TO.P,C75,2,2*%
%TO.N,Net-(D1-K)*%
X133880000Y-82900000D03*
%TD*%
D47*
%TO.P,R36,1*%
%TO.N,Net-(U12-VDD)*%
X160400000Y-85990000D03*
%TO.P,R36,2*%
%TO.N,Net-(D2-A)*%
X160400000Y-87010000D03*
%TD*%
D70*
%TO.P,D1,1,K*%
%TO.N,Net-(D1-K)*%
X136000000Y-82100000D03*
%TO.P,D1,2,A*%
%TO.N,VBUS*%
X140000000Y-82100000D03*
%TD*%
D32*
%TO.P,C33,1*%
%TO.N,+3.3VA*%
X121600000Y-98982500D03*
%TO.P,C33,2*%
%TO.N,GND*%
X121600000Y-99942500D03*
%TD*%
D36*
%TO.P,R48,1,1*%
%TO.N,GND*%
X115810000Y-82800000D03*
%TO.P,R48,2,2*%
%TO.N,VCC_STATE*%
X114790000Y-82800000D03*
%TD*%
D49*
%TO.P,U10,1*%
%TO.N,/Ferro Amplifier 4/Vout*%
X140800000Y-107012500D03*
%TO.P,U10,2,V-*%
%TO.N,GND*%
X140800000Y-107962500D03*
%TO.P,U10,3,+*%
%TO.N,VRef*%
X140800000Y-108912500D03*
%TO.P,U10,4,-*%
%TO.N,/Ferro Amplifier 4/Ferro*%
X143000000Y-108912500D03*
%TO.P,U10,5,V+*%
%TO.N,+3.3VA*%
X143000000Y-107012500D03*
%TD*%
D32*
%TO.P,C48,1*%
%TO.N,+3.3V*%
X134000000Y-98982500D03*
%TO.P,C48,2*%
%TO.N,GND*%
X134000000Y-99942500D03*
%TD*%
D25*
%TO.P,C80,1,1*%
%TO.N,GND*%
X151288000Y-104002000D03*
%TO.P,C80,2,2*%
%TO.N,+3.3V*%
X150328000Y-104002000D03*
%TD*%
D36*
%TO.P,R44,1,1*%
%TO.N,VCC_STATE*%
X113810000Y-82800000D03*
%TO.P,R44,2,2*%
%TO.N,VCC*%
X112790000Y-82800000D03*
%TD*%
D49*
%TO.P,U4,1*%
%TO.N,/Ferro Amplifier 1/Vout*%
X113550000Y-107012500D03*
%TO.P,U4,2,V-*%
%TO.N,GND*%
X113550000Y-107962500D03*
%TO.P,U4,3,+*%
%TO.N,VRef*%
X113550000Y-108912500D03*
%TO.P,U4,4,-*%
%TO.N,/Ferro Amplifier 1/Ferro*%
X115750000Y-108912500D03*
%TO.P,U4,5,V+*%
%TO.N,+3.3VA*%
X115750000Y-107012500D03*
%TD*%
D32*
%TO.P,C29,1*%
%TO.N,+3.3V*%
X121700000Y-89107500D03*
%TO.P,C29,2*%
%TO.N,GND*%
X121700000Y-90067500D03*
%TD*%
%TO.P,C19,1*%
%TO.N,GND*%
X117250000Y-105982500D03*
%TO.P,C19,2*%
%TO.N,+3.3VA*%
X117250000Y-106942500D03*
%TD*%
D71*
%TO.P,U2,1,GND*%
%TO.N,GND*%
X165800000Y-90050000D03*
%TO.P,U2,2,GND*%
X164950000Y-90050000D03*
%TO.P,U2,3,3V3*%
%TO.N,+3.3V*%
X164100000Y-90050000D03*
%TO.P,U2,4,IO0*%
%TO.N,BOOT*%
X163250000Y-90050000D03*
%TO.P,U2,5,IO1*%
%TO.N,VCC_STATE*%
X162400000Y-90050000D03*
%TO.P,U2,6,IO2*%
%TO.N,unconnected-(U2-IO2-Pad6)*%
X161550000Y-90050000D03*
%TO.P,U2,7,IO3*%
%TO.N,unconnected-(U2-IO3-Pad7)*%
X160700000Y-90050000D03*
%TO.P,U2,8,IO4*%
%TO.N,UART2 TXD*%
X159850000Y-90050000D03*
%TO.P,U2,9,IO5*%
%TO.N,MOSI*%
X159000000Y-90050000D03*
%TO.P,U2,10,IO6*%
%TO.N,MISO*%
X158150000Y-90050000D03*
%TO.P,U2,11,IO7*%
%TO.N,SCK*%
X157300000Y-90050000D03*
%TO.P,U2,12,IO8*%
%TO.N,DRDY 1*%
X156450000Y-90050000D03*
%TO.P,U2,13,IO9*%
%TO.N,DRDY 2*%
X155600000Y-90050000D03*
%TO.P,U2,14,IO10*%
%TO.N,DRDY 3*%
X154750000Y-90050000D03*
%TO.P,U2,15,IO11*%
%TO.N,DRDY 4*%
X153900000Y-90050000D03*
D72*
%TO.P,U2,16,IO12*%
%TO.N,CS 1*%
X152850000Y-91100000D03*
%TO.P,U2,17,IO13*%
%TO.N,CS 2*%
X152850000Y-91950000D03*
%TO.P,U2,18,IO14*%
%TO.N,CS 3*%
X152850000Y-92800000D03*
%TO.P,U2,19,IO15*%
%TO.N,CS 4*%
X152850000Y-93650000D03*
%TO.P,U2,20,IO16*%
%TO.N,unconnected-(U2-IO16-Pad20)*%
X152850000Y-94500000D03*
%TO.P,U2,21,IO17*%
%TO.N,unconnected-(U2-IO17-Pad21)*%
X152850000Y-95350000D03*
%TO.P,U2,22,IO18*%
%TO.N,unconnected-(U2-IO18-Pad22)*%
X152850000Y-96200000D03*
%TO.P,U2,23,IO19*%
%TO.N,unconnected-(U2-IO19-Pad23)*%
X152850000Y-97050000D03*
%TO.P,U2,24,IO20*%
%TO.N,unconnected-(U2-IO20-Pad24)*%
X152850000Y-97900000D03*
%TO.P,U2,25,IO21*%
%TO.N,unconnected-(U2-IO21-Pad25)*%
X152850000Y-98750000D03*
%TO.P,U2,26,IO26*%
%TO.N,unconnected-(U2-IO26-Pad26)*%
X152850000Y-99600000D03*
%TO.P,U2,27,IO47*%
%TO.N,unconnected-(U2-IO47-Pad27)*%
X152850000Y-100450000D03*
%TO.P,U2,28,IO33*%
%TO.N,LED1*%
X152850000Y-101300000D03*
%TO.P,U2,29,IO34*%
%TO.N,LED2*%
X152850000Y-102150000D03*
%TO.P,U2,30,IO48*%
%TO.N,EN_5V*%
X152850000Y-103000000D03*
D71*
%TO.P,U2,31,IO35*%
%TO.N,LED3*%
X153900000Y-104050000D03*
%TO.P,U2,32,IO36*%
%TO.N,LED4*%
X154750000Y-104050000D03*
%TO.P,U2,33,IO37*%
%TO.N,UART2 RXD*%
X155600000Y-104050000D03*
%TO.P,U2,34,IO38*%
%TO.N,GPIO38*%
X156450000Y-104050000D03*
%TO.P,U2,35,IO39*%
%TO.N,GPIO39*%
X157300000Y-104050000D03*
%TO.P,U2,36,IO40*%
%TO.N,GPIO40*%
X158150000Y-104050000D03*
%TO.P,U2,37,IO41*%
%TO.N,GPIO41*%
X159000000Y-104050000D03*
%TO.P,U2,38,IO42*%
%TO.N,GPIO42*%
X159850000Y-104050000D03*
%TO.P,U2,39,TXD0*%
%TO.N,ESP TXD*%
X160700000Y-104050000D03*
%TO.P,U2,40,RXD0*%
%TO.N,ESP RXD*%
X161550000Y-104050000D03*
%TO.P,U2,41,IO45*%
%TO.N,unconnected-(U2-IO45-Pad41)*%
X162400000Y-104050000D03*
%TO.P,U2,42,GND*%
%TO.N,GND*%
X163250000Y-104050000D03*
%TO.P,U2,43,GND*%
X164100000Y-104050000D03*
%TO.P,U2,44,IO46*%
%TO.N,unconnected-(U2-IO46-Pad44)*%
X164950000Y-104050000D03*
%TO.P,U2,45,EN*%
%TO.N,ESP EN*%
X165800000Y-104050000D03*
D72*
%TO.P,U2,46,GND*%
%TO.N,GND*%
X166850000Y-103000000D03*
%TO.P,U2,47,GND*%
X166850000Y-102150000D03*
%TO.P,U2,48,GND*%
X166850000Y-101300000D03*
%TO.P,U2,49,GND*%
X166850000Y-100450000D03*
%TO.P,U2,50,GND*%
X166850000Y-99600000D03*
%TO.P,U2,51,GND*%
X166850000Y-98750000D03*
%TO.P,U2,52,GND*%
X166850000Y-97900000D03*
%TO.P,U2,53,GND*%
X166850000Y-97050000D03*
%TO.P,U2,54,GND*%
X166850000Y-96200000D03*
%TO.P,U2,55,GND*%
X166850000Y-95350000D03*
%TO.P,U2,56,GND*%
X166850000Y-94500000D03*
%TO.P,U2,57,GND*%
X166850000Y-93650000D03*
%TO.P,U2,58,GND*%
X166850000Y-92800000D03*
%TO.P,U2,59,GND*%
X166850000Y-91950000D03*
%TO.P,U2,60,GND*%
X166850000Y-91100000D03*
D73*
%TO.P,U2,61,GND*%
X159850000Y-97050000D03*
D74*
%TO.P,U2,61_1,GND*%
X161500000Y-95400000D03*
D73*
%TO.P,U2,61_2,GND*%
X161500000Y-97050000D03*
%TO.P,U2,61_3,GND*%
X161500000Y-98700000D03*
%TO.P,U2,61_4,GND*%
X159850000Y-98700000D03*
%TO.P,U2,61_5,GND*%
X158200000Y-98700000D03*
%TO.P,U2,61_6,GND*%
X158200000Y-97050000D03*
%TO.P,U2,61_7,GND*%
X158200000Y-95400000D03*
%TO.P,U2,61_8,GND*%
X159850000Y-95400000D03*
D75*
%TO.P,U2,62,GND*%
X166850000Y-90050000D03*
%TO.P,U2,63,GND*%
X152850000Y-90050000D03*
%TO.P,U2,64,GND*%
X152850000Y-104050000D03*
%TO.P,U2,65,GND*%
X166850000Y-104050000D03*
%TD*%
D26*
%TO.P,C23,1*%
%TO.N,GND*%
X114750000Y-99942500D03*
%TO.P,C23,2*%
%TO.N,+3.3V*%
X114750000Y-98982500D03*
%TD*%
D25*
%TO.P,C72,1,1*%
%TO.N,GND*%
X104280000Y-91300000D03*
%TO.P,C72,2,2*%
%TO.N,+3.3V*%
X103320000Y-91300000D03*
%TD*%
D26*
%TO.P,C26,1*%
%TO.N,GND*%
X111050000Y-99942500D03*
%TO.P,C26,2*%
%TO.N,+3.3VA*%
X111050000Y-98982500D03*
%TD*%
%TO.P,C44,1*%
%TO.N,GND*%
X131800000Y-99942500D03*
%TO.P,C44,2*%
%TO.N,+3.3VA*%
X131800000Y-98982500D03*
%TD*%
D55*
%TO.P,R45,1*%
%TO.N,Net-(Q1-Pad3)*%
X148802500Y-79600000D03*
%TO.P,R45,2*%
%TO.N,ESP EN*%
X149997500Y-79600000D03*
%TD*%
D41*
%TO.P,R7,1,1*%
%TO.N,+3.3V*%
X164800000Y-106560000D03*
%TO.P,R7,2,2*%
%TO.N,ESP EN*%
X164800000Y-105540000D03*
%TD*%
D43*
%TO.P,RF2,1*%
%TO.N,/Ferro Amplifier 2/Ferro*%
X120912500Y-103862500D03*
%TO.P,RF2,2*%
%TO.N,/Ferro Amplifier 2/Vout*%
X119087500Y-103862500D03*
%TD*%
D61*
%TO.P,CF3,1*%
%TO.N,/Ferro Amplifier 3/Ferro*%
X130050000Y-105862500D03*
%TO.P,CF3,2*%
%TO.N,/Ferro Amplifier 3/Vout*%
X128150000Y-105862500D03*
%TD*%
D36*
%TO.P,R13,1*%
%TO.N,SCK*%
X117160000Y-91462500D03*
%TO.P,R13,2*%
%TO.N,Net-(U3-SCLK)*%
X116140000Y-91462500D03*
%TD*%
D37*
%TO.P,C51,1*%
%TO.N,GND*%
X129220000Y-109462500D03*
%TO.P,C51,2*%
%TO.N,VRef*%
X130180000Y-109462500D03*
%TD*%
D61*
%TO.P,CF2,1*%
%TO.N,/Ferro Amplifier 2/Ferro*%
X120950000Y-105862500D03*
%TO.P,CF2,2*%
%TO.N,/Ferro Amplifier 2/Vout*%
X119050000Y-105862500D03*
%TD*%
D26*
%TO.P,C38,1*%
%TO.N,GND*%
X120100000Y-99942500D03*
%TO.P,C38,2*%
%TO.N,+3.3VA*%
X120100000Y-98982500D03*
%TD*%
D76*
%TO.P,S3,1*%
%TO.N,ESP EN*%
X162475000Y-79375000D03*
%TO.P,S3,2*%
X158325000Y-79375000D03*
%TO.P,S3,3*%
%TO.N,GND*%
X162475000Y-77225000D03*
%TO.P,S3,4*%
X158325000Y-77225000D03*
%TD*%
%TO.P,S2,1*%
%TO.N,BOOT*%
X155675000Y-79375000D03*
%TO.P,S2,2*%
X151525000Y-79375000D03*
%TO.P,S2,3*%
%TO.N,GND*%
X155675000Y-77225000D03*
%TO.P,S2,4*%
X151525000Y-77225000D03*
%TD*%
D77*
%TO.N,Shield*%
X107825000Y-98462500D03*
X133050000Y-85612500D03*
X146275000Y-111312500D03*
X127050000Y-111350000D03*
X139050000Y-111312500D03*
X115050000Y-111312500D03*
X146275000Y-98462500D03*
X127050000Y-85612500D03*
X121050000Y-85612500D03*
X133050000Y-111312500D03*
X146275000Y-85612500D03*
X121050000Y-111312500D03*
X146275000Y-109687500D03*
X107825000Y-109687500D03*
X107825000Y-92462500D03*
X139050000Y-85612500D03*
X107825000Y-87237500D03*
X109650000Y-111312500D03*
X144450000Y-111312500D03*
X107825000Y-111312500D03*
X146232502Y-92420000D03*
X107825000Y-85612500D03*
X146275000Y-87237500D03*
X146275000Y-104462500D03*
X115050000Y-85612500D03*
X109625000Y-85612500D03*
X144450000Y-85612500D03*
X107825000Y-104462500D03*
%TO.N,+3.3V*%
X166300000Y-86600000D03*
X150300000Y-105200000D03*
X165900000Y-107800000D03*
X163800000Y-106000000D03*
X102112500Y-91400000D03*
X109500000Y-91600000D03*
%TO.N,UART2 TXD*%
X163682719Y-91896788D03*
%TO.N,VBUS*%
X159300000Y-84900000D03*
X147100000Y-81700000D03*
%TO.N,VCC_STATE*%
X161400000Y-88700000D03*
X145500000Y-84000000D03*
%TO.N,BOOT*%
X153600000Y-87297500D03*
X161700000Y-87300000D03*
%TO.N,+3.3VA*%
X133300000Y-106000000D03*
X103400000Y-102200000D03*
X127300000Y-102100000D03*
X115200000Y-106000000D03*
X142400000Y-106000000D03*
X110000000Y-102100000D03*
X118200000Y-102100000D03*
X139800000Y-102000000D03*
X121600000Y-102100000D03*
X112400000Y-102100000D03*
X136400000Y-102100000D03*
X130600000Y-102100000D03*
X124200000Y-106000000D03*
%TO.N,DRDY 1*%
X156400000Y-93000000D03*
X118011250Y-95162500D03*
%TO.N,USBD-*%
X150950000Y-88950000D03*
X150124868Y-87813466D03*
%TO.N,VRef*%
X121000000Y-96000000D03*
X131200000Y-109900000D03*
X120800000Y-116300000D03*
X122100000Y-109900000D03*
X111150000Y-95900000D03*
X129784340Y-95957500D03*
X111600000Y-110500000D03*
X108800000Y-116300000D03*
X140300000Y-109900000D03*
X106100000Y-109200000D03*
X138438599Y-96272878D03*
X144800000Y-116300000D03*
X132800000Y-116300000D03*
%TO.N,SCK*%
X126990000Y-91462500D03*
X144800000Y-91462500D03*
X157300000Y-91200000D03*
X136100000Y-91462500D03*
X117911250Y-91462500D03*
%TO.N,MOSI*%
X136200000Y-97362500D03*
X144900000Y-97362500D03*
X118011250Y-97362500D03*
X127090000Y-97362500D03*
X159000000Y-91200000D03*
%TO.N,MISO*%
X118011250Y-96262500D03*
X144900000Y-96262500D03*
X127090000Y-96262500D03*
X136200000Y-96262500D03*
X158200000Y-92000000D03*
%TO.N,DRDY 2*%
X127090000Y-95162500D03*
X155600000Y-93800000D03*
%TO.N,DRDY 3*%
X136200000Y-95162500D03*
X154800000Y-94700000D03*
%TO.N,DRDY 4*%
X144900000Y-95162500D03*
X154000000Y-95582500D03*
%TO.N,ESP EN*%
X153600000Y-79375000D03*
X165600000Y-102800000D03*
%TO.N,CS 1*%
X150900000Y-90000000D03*
X117900000Y-90351250D03*
%TO.N,CS 2*%
X150192891Y-90707109D03*
X127000000Y-90380000D03*
%TO.N,CS 3*%
X136050000Y-90420000D03*
X150876239Y-91437905D03*
%TO.N,CS 4*%
X144750000Y-90420000D03*
X150200000Y-92300000D03*
%TO.N,LED3*%
X163500000Y-107900000D03*
X153950000Y-105250000D03*
%TO.N,LED4*%
X155100000Y-102800000D03*
X163100000Y-106800000D03*
%TO.N,LED1*%
X161500000Y-106500000D03*
X154100000Y-100800000D03*
%TO.N,LED2*%
X160600000Y-105600000D03*
X154300000Y-101900000D03*
%TO.N,GND*%
X119250000Y-108957500D03*
X106000000Y-102200000D03*
X135350000Y-109757500D03*
X120600000Y-90000000D03*
X151900000Y-90000000D03*
X137350000Y-108957500D03*
X134950000Y-100057500D03*
X138800000Y-90400000D03*
X134000000Y-76200000D03*
X105300000Y-84900000D03*
X129600000Y-90000000D03*
X104000000Y-93000000D03*
X139650000Y-93157500D03*
X116850000Y-100000000D03*
X163100000Y-84400000D03*
X137000000Y-76200000D03*
X110960000Y-100900000D03*
X167600000Y-88000000D03*
X158400000Y-87800000D03*
X117200000Y-76800000D03*
X141400000Y-80500000D03*
X153600000Y-77200000D03*
X117250000Y-109700000D03*
X130550000Y-93157500D03*
X170900000Y-109000000D03*
X143100000Y-82200000D03*
X106000000Y-104400000D03*
X103900000Y-107800000D03*
X163300000Y-105000000D03*
X144450000Y-109757500D03*
X105750000Y-94885661D03*
X137250000Y-100957500D03*
X156950000Y-82850000D03*
X116100000Y-79400000D03*
X127500000Y-80200000D03*
X128250000Y-108957500D03*
X152800000Y-105200000D03*
X110150000Y-108900000D03*
X116700000Y-83300000D03*
X163400000Y-86100000D03*
X103600000Y-88000000D03*
X111500000Y-89800000D03*
X167800000Y-105600000D03*
X121550000Y-93157500D03*
X103600000Y-97200000D03*
X159850000Y-97050000D03*
X131900000Y-82900000D03*
X128150000Y-100957500D03*
X144050000Y-100057500D03*
X125950000Y-100057500D03*
X148100000Y-105200000D03*
X103900000Y-112700000D03*
X160400000Y-77200000D03*
X112450000Y-93100000D03*
X126350000Y-109757500D03*
X119150000Y-100957500D03*
%TO.N,ESP TXD*%
X160700000Y-102700000D03*
X152500000Y-81300000D03*
%TO.N,ESP RXD*%
X152500000Y-84000000D03*
X162000000Y-102700000D03*
%TO.N,EN_5V*%
X153900000Y-102900000D03*
X148800000Y-101600000D03*
%TD*%
D78*
%TO.N,Shield*%
X124250000Y-114562500D02*
X124795000Y-114562500D01*
X124795000Y-114562500D02*
X125375000Y-115142500D01*
X134300000Y-114562500D02*
X134300000Y-115342500D01*
X141850000Y-114562500D02*
X141305000Y-114562500D01*
X148251000Y-116266500D02*
X149375000Y-115142500D01*
X119300000Y-115389111D02*
X118422611Y-116266500D01*
X143300000Y-115389111D02*
X142422611Y-116266500D01*
D79*
X138800000Y-76200000D02*
X139437500Y-76200000D01*
X139337500Y-76100000D02*
X139700000Y-76462500D01*
D78*
X123224000Y-116266500D02*
X124251000Y-116266500D01*
X122300000Y-114562500D02*
X122300000Y-115342500D01*
X129849000Y-116266500D02*
X128725000Y-115142500D01*
X129850000Y-114562500D02*
X129305000Y-114562500D01*
X142422611Y-116266500D02*
X141849000Y-116266500D01*
X143300000Y-114562500D02*
X143300000Y-115389111D01*
X117849000Y-116266500D02*
X116725000Y-115142500D01*
X130422611Y-116266500D02*
X129849000Y-116266500D01*
D79*
X140300000Y-76462500D02*
X142200000Y-76462500D01*
X142200000Y-76462500D02*
X144200000Y-76462500D01*
D78*
X105850000Y-114562500D02*
X105305000Y-114562500D01*
X122300000Y-115342500D02*
X123224000Y-116266500D01*
X131300000Y-114562500D02*
X131300000Y-115389111D01*
X110300000Y-114562500D02*
X110300000Y-115342500D01*
X105849000Y-116266500D02*
X104725000Y-115142500D01*
X118422611Y-116266500D02*
X117849000Y-116266500D01*
X107300000Y-115389111D02*
X106422611Y-116266500D01*
X124251000Y-116266500D02*
X125375000Y-115142500D01*
X112250000Y-114562500D02*
X112795000Y-114562500D01*
X135257500Y-116300000D02*
X136217500Y-116300000D01*
X131300000Y-115389111D02*
X130422611Y-116266500D01*
X111224000Y-116266500D02*
X112251000Y-116266500D01*
D79*
X139437500Y-76200000D02*
X139700000Y-76462500D01*
D78*
X117305000Y-114562500D02*
X116725000Y-115142500D01*
X129305000Y-114562500D02*
X128725000Y-115142500D01*
X117850000Y-114562500D02*
X117305000Y-114562500D01*
X112251000Y-116266500D02*
X113375000Y-115142500D01*
X146300000Y-115342500D02*
X147224000Y-116266500D01*
X146300000Y-114562500D02*
X146300000Y-115342500D01*
X119300000Y-114562500D02*
X119300000Y-115389111D01*
X136250000Y-114562500D02*
X136795000Y-114562500D01*
X148250000Y-114562500D02*
X148795000Y-114562500D01*
X107300000Y-114562500D02*
X107300000Y-115389111D01*
X141849000Y-116266500D02*
X140725000Y-115142500D01*
X148795000Y-114562500D02*
X149375000Y-115142500D01*
X105305000Y-114562500D02*
X104725000Y-115142500D01*
X136217500Y-116300000D02*
X137375000Y-115142500D01*
X106422611Y-116266500D02*
X105849000Y-116266500D01*
D79*
X144200000Y-76462500D02*
X146100000Y-76462500D01*
D78*
X147224000Y-116266500D02*
X148251000Y-116266500D01*
X136795000Y-114562500D02*
X137375000Y-115142500D01*
X134300000Y-115342500D02*
X135257500Y-116300000D01*
X110300000Y-115342500D02*
X111224000Y-116266500D01*
X112795000Y-114562500D02*
X113375000Y-115142500D01*
X141305000Y-114562500D02*
X140725000Y-115142500D01*
%TO.N,+3.3V*%
X106360000Y-84000000D02*
X103990000Y-84000000D01*
D79*
X103320000Y-89810000D02*
X103320000Y-90300000D01*
X139900000Y-88700000D02*
X139600000Y-88400000D01*
X103320000Y-91300000D02*
X103320000Y-90300000D01*
X164120000Y-88450000D02*
X164120000Y-87420000D01*
X102112500Y-91400000D02*
X102112500Y-92987500D01*
D78*
X113125000Y-98087499D02*
X113437501Y-98400000D01*
X101500000Y-87787500D02*
X102662500Y-88950000D01*
X140325000Y-98144999D02*
X140580001Y-98400000D01*
D79*
X164100000Y-90050000D02*
X164100000Y-88470000D01*
D78*
X122225000Y-97407500D02*
X122225000Y-98144999D01*
X131225000Y-98144999D02*
X131480001Y-98400000D01*
D79*
X130300000Y-88400000D02*
X121100000Y-88400000D01*
X121000000Y-94412500D02*
X129300000Y-94412500D01*
D78*
X114167500Y-98400000D02*
X114750000Y-98982500D01*
X163100000Y-87440000D02*
X164100000Y-87440000D01*
X122992500Y-89320000D02*
X122850000Y-89177500D01*
X123850000Y-99040000D02*
X124950000Y-99040000D01*
D79*
X121100000Y-88400000D02*
X113370000Y-88400000D01*
D78*
X99200000Y-92900000D02*
X102025000Y-92900000D01*
X122225000Y-98144999D02*
X122480001Y-98400000D01*
D79*
X121700000Y-89000000D02*
X121100000Y-88400000D01*
D78*
X150328000Y-102986000D02*
X150328000Y-104002000D01*
D79*
X113125000Y-95601668D02*
X113125000Y-97350000D01*
X122175000Y-95587500D02*
X121000000Y-94412500D01*
X103320000Y-91300000D02*
X103320000Y-91805000D01*
X139600000Y-88400000D02*
X130300000Y-88400000D01*
X113370000Y-88400000D02*
X111930000Y-88400000D01*
D78*
X132940000Y-89320000D02*
X131992500Y-89320000D01*
D79*
X111930000Y-88400000D02*
X112650000Y-89120000D01*
X166300000Y-86600000D02*
X164800000Y-86600000D01*
D78*
X150550000Y-101650000D02*
X150550000Y-102764000D01*
X123940000Y-89320000D02*
X122992500Y-89320000D01*
D79*
X131275000Y-96387500D02*
X129300000Y-94412500D01*
D78*
X140325000Y-97407500D02*
X140325000Y-98144999D01*
D79*
X122175000Y-97350000D02*
X122175000Y-95587500D01*
X140375000Y-96625001D02*
X140375000Y-97362500D01*
X150300000Y-104030000D02*
X150328000Y-104002000D01*
X121700000Y-89107500D02*
X121700000Y-89000000D01*
D78*
X141310000Y-98400000D02*
X141950000Y-99040000D01*
X101500000Y-86490000D02*
X101500000Y-87787500D01*
D79*
X164800000Y-106560000D02*
X164800000Y-106700000D01*
X164800000Y-106700000D02*
X165900000Y-107800000D01*
D78*
X102290000Y-85700000D02*
X101500000Y-86490000D01*
D79*
X139900000Y-89120000D02*
X139900000Y-88700000D01*
D78*
X123210000Y-98400000D02*
X123850000Y-99040000D01*
D79*
X129300000Y-94412500D02*
X138162499Y-94412500D01*
D78*
X113750000Y-89120000D02*
X112650000Y-89120000D01*
X132210000Y-98400000D02*
X132850000Y-99040000D01*
D79*
X111935832Y-94412500D02*
X113125000Y-95601668D01*
X130800000Y-88900000D02*
X130300000Y-88400000D01*
D78*
X141092500Y-89320000D02*
X140950000Y-89177500D01*
X122480001Y-98400000D02*
X123210000Y-98400000D01*
X140580001Y-98400000D02*
X141310000Y-98400000D01*
D79*
X164800000Y-86600000D02*
X164120000Y-87280000D01*
X111800000Y-88400000D02*
X113370000Y-88400000D01*
D78*
X103990000Y-84000000D02*
X102290000Y-85700000D01*
X131480001Y-98400000D02*
X132210000Y-98400000D01*
D79*
X164120000Y-87280000D02*
X164120000Y-87420000D01*
D78*
X114840000Y-89262500D02*
X113892500Y-89262500D01*
X150550000Y-102764000D02*
X150328000Y-102986000D01*
D79*
X111935832Y-94412500D02*
X121000000Y-94412500D01*
D78*
X132850000Y-99040000D02*
X133950000Y-99040000D01*
D79*
X102662500Y-88950000D02*
X102662500Y-89152500D01*
D78*
X131992500Y-89320000D02*
X131850000Y-89177500D01*
X122850000Y-89177500D02*
X121750000Y-89177500D01*
D79*
X102662500Y-89152500D02*
X103320000Y-89810000D01*
X164360000Y-106560000D02*
X163800000Y-106000000D01*
X103320000Y-91805000D02*
X102125000Y-93000000D01*
X102112500Y-92987500D02*
X102125000Y-93000000D01*
D78*
X114750000Y-98982500D02*
X115850000Y-98982500D01*
D79*
X131275000Y-97362500D02*
X131275000Y-96387500D01*
D78*
X140950000Y-89177500D02*
X139850000Y-89177500D01*
X164100000Y-87440000D02*
X164120000Y-87420000D01*
X142040000Y-89320000D02*
X141092500Y-89320000D01*
X131850000Y-89177500D02*
X130750000Y-89177500D01*
D79*
X164800000Y-106560000D02*
X164360000Y-106560000D01*
X138162499Y-94412500D02*
X140375000Y-96625001D01*
X109500000Y-91600000D02*
X109500000Y-91976668D01*
D78*
X113125000Y-97350000D02*
X113125000Y-98087499D01*
D79*
X109500000Y-90700000D02*
X111800000Y-88400000D01*
D78*
X107960000Y-82400000D02*
X106360000Y-84000000D01*
D79*
X150300000Y-105200000D02*
X150300000Y-104030000D01*
D78*
X113892500Y-89262500D02*
X113750000Y-89120000D01*
X164100000Y-88470000D02*
X164120000Y-88450000D01*
X113437501Y-98400000D02*
X114167500Y-98400000D01*
X131225000Y-97407500D02*
X131225000Y-98144999D01*
D79*
X109500000Y-91600000D02*
X109500000Y-90700000D01*
X130800000Y-89120000D02*
X130800000Y-88900000D01*
D78*
X141950000Y-99040000D02*
X143050000Y-99040000D01*
X102025000Y-92900000D02*
X102125000Y-93000000D01*
D79*
X109500000Y-91976668D02*
X111935832Y-94412500D01*
D78*
%TO.N,UART2 TXD*%
X161386788Y-91896788D02*
X159850000Y-90360000D01*
X163682719Y-91896788D02*
X161386788Y-91896788D01*
X159850000Y-90360000D02*
X159850000Y-90050000D01*
D79*
%TO.N,VBUS*%
X139000000Y-78000000D02*
X139200000Y-78200000D01*
D78*
X117100000Y-80880000D02*
X118575000Y-80880000D01*
D79*
X122595344Y-81100000D02*
X118945000Y-81100000D01*
X123505000Y-76995000D02*
X123000000Y-77500000D01*
X118945000Y-81100000D02*
X118650000Y-80805000D01*
X140000000Y-82600000D02*
X139000000Y-81600000D01*
X128415000Y-76700000D02*
X126700000Y-78415000D01*
X144500000Y-79600000D02*
X144500000Y-79162500D01*
X139200000Y-78200000D02*
X139200000Y-81300000D01*
X134250000Y-77550000D02*
X133400000Y-76700000D01*
X135812500Y-77600000D02*
X135762500Y-77550000D01*
D78*
X160190000Y-84900000D02*
X160200000Y-84910000D01*
D79*
X146025000Y-81700000D02*
X147100000Y-81700000D01*
X144500000Y-78187500D02*
X144312500Y-78000000D01*
X159300000Y-84512500D02*
X158887500Y-84100000D01*
X135762500Y-77550000D02*
X134250000Y-77550000D01*
X125395000Y-76995000D02*
X126700000Y-78300000D01*
X145200000Y-81292656D02*
X145200000Y-80300000D01*
X159300000Y-84900000D02*
X159300000Y-84512500D01*
D78*
X144500000Y-79400000D02*
X144500000Y-79162500D01*
X161300000Y-84900000D02*
X161300000Y-83900000D01*
D79*
X126700000Y-78300000D02*
X126700000Y-78415000D01*
X145607344Y-81700000D02*
X145200000Y-81292656D01*
X145200000Y-80300000D02*
X144500000Y-79600000D01*
X124150000Y-76995000D02*
X123505000Y-76995000D01*
X123000000Y-80695344D02*
X122595344Y-81100000D01*
X144312500Y-78000000D02*
X139000000Y-78000000D01*
X139000000Y-78000000D02*
X138600000Y-77600000D01*
X124150000Y-76995000D02*
X125395000Y-76995000D01*
X139200000Y-81300000D02*
X140000000Y-82100000D01*
X135910000Y-76200000D02*
X135910000Y-77402500D01*
X135910000Y-77402500D02*
X135762500Y-77550000D01*
X146025000Y-81700000D02*
X145607344Y-81700000D01*
X144500000Y-79162500D02*
X144500000Y-78187500D01*
D78*
X118575000Y-80880000D02*
X118650000Y-80805000D01*
X160200000Y-84910000D02*
X161290000Y-84910000D01*
D79*
X138600000Y-77600000D02*
X135812500Y-77600000D01*
D78*
X161290000Y-84910000D02*
X161300000Y-84900000D01*
D79*
X159300000Y-84900000D02*
X160190000Y-84900000D01*
X123000000Y-77500000D02*
X123000000Y-80695344D01*
X133400000Y-76700000D02*
X128415000Y-76700000D01*
%TO.N,BAT+*%
X132700000Y-78500000D02*
X132100000Y-77900000D01*
X124150000Y-80805000D02*
X125615000Y-80805000D01*
X131050000Y-77900000D02*
X132100000Y-77900000D01*
X125615000Y-80805000D02*
X125620000Y-80800000D01*
X127350000Y-81600000D02*
X131050000Y-77900000D01*
X124150000Y-80805000D02*
X124945000Y-81600000D01*
X137637500Y-78500000D02*
X132700000Y-78500000D01*
X124945000Y-81600000D02*
X127350000Y-81600000D01*
D78*
%TO.N,Net-(U1-NR)*%
X102800000Y-109287500D02*
X102950000Y-109137500D01*
X102800000Y-110620000D02*
X102800000Y-109287500D01*
X103900000Y-110620000D02*
X102800000Y-110620000D01*
%TO.N,VCC_STATE*%
X162400000Y-89700000D02*
X161400000Y-88700000D01*
X114820000Y-83800000D02*
X114820000Y-82830000D01*
X113810000Y-82800000D02*
X114790000Y-82800000D01*
X145500000Y-84000000D02*
X118900000Y-84000000D01*
X117000000Y-82100000D02*
X115490000Y-82100000D01*
X162400000Y-90050000D02*
X162400000Y-89700000D01*
X115490000Y-82100000D02*
X114790000Y-82800000D01*
X114820000Y-82830000D02*
X114790000Y-82800000D01*
X118900000Y-84000000D02*
X117000000Y-82100000D01*
%TO.N,VCC*%
X105325000Y-98512500D02*
X104962500Y-98150000D01*
D79*
X110000000Y-81900000D02*
X110500000Y-82400000D01*
D78*
X100900000Y-88000000D02*
X100900000Y-84660000D01*
D79*
X106300000Y-86349999D02*
X106300000Y-85000000D01*
X105550000Y-88950000D02*
X106250001Y-88249999D01*
X104962500Y-96250000D02*
X105624999Y-96250000D01*
D78*
X110900000Y-82800000D02*
X110500000Y-82400000D01*
D79*
X105624999Y-96250000D02*
X106300000Y-95574999D01*
X104962500Y-98150000D02*
X105624999Y-98150000D01*
X105599999Y-87050000D02*
X106300000Y-86349999D01*
D78*
X105300000Y-89312500D02*
X104937500Y-88950000D01*
D79*
X104937500Y-88950000D02*
X105550000Y-88950000D01*
D78*
X106838500Y-78721500D02*
X108478500Y-78721500D01*
X100900000Y-84660000D02*
X106838500Y-78721500D01*
D79*
X106500000Y-88449999D02*
X106300000Y-88249999D01*
X110000000Y-77200000D02*
X110000000Y-81900000D01*
X106300000Y-88249999D02*
X106300000Y-86349999D01*
X106300000Y-97474999D02*
X106300000Y-95574999D01*
X106500000Y-95374999D02*
X106500000Y-88449999D01*
D78*
X104350000Y-87050000D02*
X104937500Y-87050000D01*
X108478500Y-78721500D02*
X110000000Y-77200000D01*
X105325000Y-99520000D02*
X105325000Y-98512500D01*
X105300000Y-90320000D02*
X105300000Y-89312500D01*
X99200000Y-89700000D02*
X100900000Y-88000000D01*
D79*
X106300000Y-85000000D02*
X107400000Y-83900000D01*
X106250001Y-88249999D02*
X106300000Y-88249999D01*
X107400000Y-83900000D02*
X109000000Y-83900000D01*
X109000000Y-83900000D02*
X110500000Y-82400000D01*
X104937500Y-87050000D02*
X105599999Y-87050000D01*
X106300000Y-95574999D02*
X106500000Y-95374999D01*
D78*
X112790000Y-82800000D02*
X110900000Y-82800000D01*
D79*
X105624999Y-98150000D02*
X106300000Y-97474999D01*
D78*
%TO.N,BOOT*%
X164300000Y-86161666D02*
X163661666Y-86800000D01*
X154800000Y-87297500D02*
X153600000Y-87297500D01*
X164300000Y-83000000D02*
X164300000Y-86161666D01*
X162475000Y-79375000D02*
X162475000Y-81175000D01*
X162475000Y-81175000D02*
X164300000Y-83000000D01*
X162400000Y-87200000D02*
X162400000Y-87760000D01*
X162400000Y-87760000D02*
X163100000Y-88460000D01*
X163250000Y-90050000D02*
X163250000Y-88610000D01*
X163070000Y-78780000D02*
X162475000Y-79375000D01*
X163661666Y-86800000D02*
X162800000Y-86800000D01*
X161800000Y-87400000D02*
X162040000Y-87400000D01*
X162475000Y-79375000D02*
X158325000Y-79375000D01*
X161700000Y-87300000D02*
X161800000Y-87400000D01*
X162040000Y-87400000D02*
X162400000Y-87760000D01*
X163250000Y-88610000D02*
X163100000Y-88460000D01*
X162800000Y-86800000D02*
X162400000Y-87200000D01*
X163800000Y-78780000D02*
X163070000Y-78780000D01*
%TO.N,Net-(U12-VDD)*%
X161110000Y-82800000D02*
X163000000Y-82800000D01*
X163000000Y-82800000D02*
X163800000Y-83600000D01*
X163000000Y-85500000D02*
X160890000Y-85500000D01*
X158200000Y-85820000D02*
X158400000Y-86020000D01*
X163800000Y-84700000D02*
X163000000Y-85500000D01*
X158200000Y-84787500D02*
X158200000Y-85820000D01*
X160890000Y-85500000D02*
X160400000Y-85990000D01*
X163800000Y-83600000D02*
X163800000Y-84700000D01*
X160370000Y-86020000D02*
X160400000Y-85990000D01*
X158400000Y-86020000D02*
X159400000Y-86020000D01*
X158200000Y-84787500D02*
X157700000Y-84787500D01*
X159400000Y-86020000D02*
X160370000Y-86020000D01*
%TO.N,Net-(IC1-CHRG)*%
X124150000Y-78265000D02*
X125575000Y-78265000D01*
X125575000Y-78265000D02*
X125700000Y-78390000D01*
%TO.N,Net-(IC1-PROG)*%
X118650000Y-78265000D02*
X118065000Y-78265000D01*
X117690000Y-77890000D02*
X117100000Y-77890000D01*
X118065000Y-78265000D02*
X117690000Y-77890000D01*
%TO.N,+3.3VA*%
X117250000Y-107982500D02*
X117250000Y-106942500D01*
X121010000Y-99572500D02*
X121600000Y-98982500D01*
X139210000Y-101410000D02*
X139210000Y-99572500D01*
X139750000Y-97482500D02*
X139675000Y-97407500D01*
X121650000Y-99040000D02*
X122750000Y-99040000D01*
X136990001Y-98982500D02*
X137300000Y-98982500D01*
X130600000Y-102100000D02*
X130110000Y-101610000D01*
X143000000Y-107012500D02*
X143000000Y-106600000D01*
X136400000Y-99572501D02*
X136990001Y-98982500D01*
X121650000Y-97482500D02*
X121575000Y-97407500D01*
X136400000Y-102100000D02*
X136400000Y-99572501D01*
X101350000Y-98150000D02*
X102687500Y-98150000D01*
D79*
X103400000Y-102200000D02*
X102125000Y-102200000D01*
D78*
X110525000Y-97425000D02*
X110525000Y-98457500D01*
X130650000Y-97482500D02*
X130575000Y-97407500D01*
X102800000Y-104390000D02*
X102800000Y-104400000D01*
X130650000Y-99040000D02*
X130650000Y-97482500D01*
X139210000Y-99572500D02*
X139800000Y-98982500D01*
X109400000Y-99632500D02*
X110050000Y-98982500D01*
X121010000Y-101510000D02*
X121010000Y-99572500D01*
X126280000Y-107070000D02*
X126350000Y-107000000D01*
X104850000Y-106862500D02*
X104850000Y-105530000D01*
X112475000Y-98907500D02*
X112550000Y-98982500D01*
X115750000Y-107012500D02*
X115750000Y-106550000D01*
X102800000Y-104390000D02*
X102800000Y-102875000D01*
X135280000Y-107070000D02*
X135350000Y-107000000D01*
X144450000Y-108040000D02*
X144450000Y-107000000D01*
X137725000Y-97482500D02*
X137725000Y-98565000D01*
X121650000Y-99040000D02*
X121650000Y-97482500D01*
X118200000Y-99572501D02*
X118790001Y-98982500D01*
X111960000Y-101660000D02*
X111960000Y-99572500D01*
X110525000Y-97425000D02*
X110525000Y-98507500D01*
X124850000Y-107070000D02*
X126280000Y-107070000D01*
X133850000Y-107070000D02*
X135280000Y-107070000D01*
X142950000Y-107070000D02*
X144380000Y-107070000D01*
X144380000Y-107070000D02*
X144450000Y-107000000D01*
X99200000Y-96000000D02*
X101350000Y-98150000D01*
X133900000Y-106600000D02*
X133300000Y-106000000D01*
X119625000Y-97482500D02*
X119625000Y-98565000D01*
X130110000Y-101610000D02*
X130110000Y-99572500D01*
D79*
X103345000Y-100980000D02*
X102125000Y-102200000D01*
D78*
X115750000Y-107012500D02*
X117180000Y-107012500D01*
X128625000Y-98515000D02*
X129150000Y-99040000D01*
X104850000Y-105530000D02*
X105000000Y-105380000D01*
X118200000Y-102100000D02*
X118200000Y-99572501D01*
X135350000Y-108040000D02*
X135350000Y-107000000D01*
X119625000Y-98565000D02*
X119150000Y-99040000D01*
X124800000Y-107012500D02*
X124800000Y-106600000D01*
X111960000Y-99572500D02*
X112550000Y-98982500D01*
X109400000Y-101500000D02*
X109400000Y-99632500D01*
D79*
X102687500Y-98150000D02*
X102687500Y-98287500D01*
D78*
X118790001Y-98982500D02*
X119100000Y-98982500D01*
X101745000Y-95465000D02*
X101745000Y-97207500D01*
X110000000Y-102100000D02*
X109400000Y-101500000D01*
X128625000Y-97482500D02*
X128625000Y-98565000D01*
D79*
X102687500Y-98287500D02*
X103345000Y-98945000D01*
D78*
X117180000Y-107012500D02*
X117250000Y-106942500D01*
X110525000Y-98507500D02*
X110050000Y-98982500D01*
X126350000Y-108040000D02*
X126350000Y-107000000D01*
X119625000Y-98515000D02*
X120150000Y-99040000D01*
X139750000Y-99040000D02*
X139750000Y-97482500D01*
X128625000Y-97482500D02*
X128625000Y-98515000D01*
D79*
X103345000Y-98945000D02*
X103345000Y-99500000D01*
D78*
X133900000Y-107012500D02*
X133900000Y-106600000D01*
X103900000Y-105380000D02*
X105000000Y-105380000D01*
X128625000Y-98565000D02*
X128150000Y-99040000D01*
X102800000Y-104400000D02*
X103780000Y-105380000D01*
X124800000Y-106600000D02*
X124200000Y-106000000D01*
X112550000Y-98982500D02*
X113650000Y-98982500D01*
X101745000Y-97207500D02*
X102687500Y-98150000D01*
X127300000Y-102100000D02*
X127300000Y-99572501D01*
X130110000Y-99572500D02*
X130700000Y-98982500D01*
X112550000Y-98982500D02*
X112550000Y-97425000D01*
X102305000Y-94905000D02*
X101745000Y-95465000D01*
X102800000Y-102875000D02*
X102125000Y-102200000D01*
D79*
X103345000Y-100500000D02*
X103345000Y-100980000D01*
D78*
X130575000Y-98965000D02*
X130650000Y-99040000D01*
X139750000Y-99040000D02*
X140850000Y-99040000D01*
X115750000Y-106550000D02*
X115200000Y-106000000D01*
X121575000Y-98965000D02*
X121650000Y-99040000D01*
X139675000Y-98965000D02*
X139750000Y-99040000D01*
D79*
X103345000Y-99500000D02*
X103345000Y-100500000D01*
D78*
X103780000Y-105380000D02*
X103900000Y-105380000D01*
X137725000Y-98515000D02*
X138250000Y-99040000D01*
X121600000Y-102100000D02*
X121010000Y-101510000D01*
X143000000Y-106600000D02*
X142400000Y-106000000D01*
X112400000Y-102100000D02*
X111960000Y-101660000D01*
X112550000Y-97425000D02*
X112475000Y-97350000D01*
X137725000Y-98565000D02*
X137250000Y-99040000D01*
X127890001Y-98982500D02*
X128200000Y-98982500D01*
X110525000Y-98457500D02*
X111050000Y-98982500D01*
X127300000Y-99572501D02*
X127890001Y-98982500D01*
X119625000Y-97482500D02*
X119625000Y-98515000D01*
X130650000Y-99040000D02*
X131750000Y-99040000D01*
X139800000Y-102000000D02*
X139210000Y-101410000D01*
X137725000Y-97482500D02*
X137725000Y-98515000D01*
%TO.N,DRDY 1*%
X156450000Y-92950000D02*
X156450000Y-90050000D01*
X156400000Y-93000000D02*
X156450000Y-92950000D01*
X117260000Y-95162500D02*
X118011250Y-95162500D01*
%TO.N,USBD+*%
X150500000Y-88400000D02*
X150700000Y-88200000D01*
X142400000Y-82461666D02*
X143238334Y-83300000D01*
X144250000Y-81162500D02*
X143200000Y-80112500D01*
X143238334Y-83300000D02*
X146400000Y-83300000D01*
X143175834Y-81162500D02*
X142400000Y-81938334D01*
X155495000Y-88200000D02*
X156400000Y-87295000D01*
X143200000Y-80112500D02*
X143200000Y-79162500D01*
X146400000Y-83300000D02*
X148013000Y-84913000D01*
X142400000Y-81938334D02*
X142400000Y-82461666D01*
X149849736Y-88500000D02*
X150400000Y-88500000D01*
X148013000Y-84913000D02*
X148013000Y-86663264D01*
X144250000Y-81162500D02*
X143175834Y-81162500D01*
X150700000Y-88200000D02*
X155495000Y-88200000D01*
X150400000Y-88500000D02*
X150500000Y-88400000D01*
X148013000Y-86663264D02*
X149849736Y-88500000D01*
%TO.N,USBD-*%
X148400000Y-84700000D02*
X146600000Y-82900000D01*
X144642500Y-82237500D02*
X144250000Y-82237500D01*
X144837500Y-82237500D02*
X144250000Y-82237500D01*
X144780000Y-81924124D02*
X144780000Y-82100000D01*
X144780000Y-80911340D02*
X144780000Y-81924124D01*
X156046688Y-88650812D02*
X157400000Y-87297500D01*
X145500000Y-82900000D02*
X144837500Y-82237500D01*
X148400000Y-86088598D02*
X148400000Y-84700000D01*
X150124868Y-87813466D02*
X148400000Y-86088598D01*
X143850000Y-79162500D02*
X143850000Y-79981340D01*
X143850000Y-79981340D02*
X144780000Y-80911340D01*
X144780000Y-82100000D02*
X144642500Y-82237500D01*
X144780000Y-82180000D02*
X144837500Y-82237500D01*
X150950000Y-88950000D02*
X151249188Y-88650812D01*
X144780000Y-81924124D02*
X144780000Y-82180000D01*
X151249188Y-88650812D02*
X156046688Y-88650812D01*
X146600000Y-82900000D02*
X145500000Y-82900000D01*
%TO.N,VRef*%
X139780000Y-108970000D02*
X139230000Y-108420000D01*
X139230000Y-108420000D02*
X139230000Y-109520000D01*
X120947328Y-96000000D02*
X120275000Y-96672328D01*
X108657500Y-115700000D02*
X108800000Y-115700000D01*
D79*
X120800000Y-116300000D02*
X120800000Y-115700000D01*
D78*
X111150000Y-95900000D02*
X111150000Y-97325000D01*
D79*
X110598332Y-95900000D02*
X108950000Y-97548332D01*
D78*
X122650000Y-108970000D02*
X121680000Y-108970000D01*
X121130000Y-108420000D02*
X121130000Y-109520000D01*
D79*
X122100000Y-109900000D02*
X122100000Y-109412500D01*
D78*
X108942500Y-115700000D02*
X109300000Y-115342500D01*
X99200000Y-99300000D02*
X99200000Y-105200000D01*
X131650000Y-108970000D02*
X130680000Y-108970000D01*
D79*
X111222500Y-110122500D02*
X111600000Y-110500000D01*
D78*
X130680000Y-108970000D02*
X130130000Y-108420000D01*
X109300000Y-115342500D02*
X109300000Y-114562500D01*
X112580000Y-108912500D02*
X112030000Y-108362500D01*
X132942500Y-115700000D02*
X133300000Y-115342500D01*
D79*
X132800000Y-116300000D02*
X132800000Y-115700000D01*
D78*
X144300000Y-114562500D02*
X144300000Y-115342500D01*
X144657500Y-115700000D02*
X144800000Y-115700000D01*
X144300000Y-115342500D02*
X144657500Y-115700000D01*
X144942500Y-115700000D02*
X145300000Y-115342500D01*
D79*
X111150000Y-95900000D02*
X110598332Y-95900000D01*
D78*
X121680000Y-108970000D02*
X121130000Y-108420000D01*
D79*
X112030000Y-110070000D02*
X112030000Y-109462500D01*
D78*
X104275834Y-109137500D02*
X103138334Y-108000000D01*
D79*
X108950000Y-108760661D02*
X110311839Y-110122500D01*
X131200000Y-109412500D02*
X131700000Y-108912500D01*
X131200000Y-109900000D02*
X131200000Y-109412500D01*
X108800000Y-116300000D02*
X108800000Y-115700000D01*
D78*
X129275000Y-96466840D02*
X129275000Y-97407500D01*
X108300000Y-115342500D02*
X108657500Y-115700000D01*
X120275000Y-96672328D02*
X120275000Y-97407500D01*
X129784340Y-95957500D02*
X129275000Y-96466840D01*
X99200000Y-105200000D02*
X102000000Y-108000000D01*
X112030000Y-108362500D02*
X112030000Y-109462500D01*
D79*
X106100000Y-109200000D02*
X104912500Y-109200000D01*
X111600000Y-110500000D02*
X112030000Y-110070000D01*
X144800000Y-116300000D02*
X144800000Y-115700000D01*
D78*
X105000000Y-109287500D02*
X104850000Y-109137500D01*
X138438599Y-96272878D02*
X138375000Y-96336477D01*
X132300000Y-115342500D02*
X132657500Y-115700000D01*
X145300000Y-115342500D02*
X145300000Y-114562500D01*
D79*
X122100000Y-109412500D02*
X122600000Y-108912500D01*
D78*
X130130000Y-108420000D02*
X130130000Y-109520000D01*
D79*
X104912500Y-109200000D02*
X104850000Y-109137500D01*
D78*
X133300000Y-115342500D02*
X133300000Y-114562500D01*
D79*
X108950000Y-97548332D02*
X108950000Y-108760661D01*
X110311839Y-110122500D02*
X111222500Y-110122500D01*
D78*
X121300000Y-115342500D02*
X121300000Y-114562500D01*
X138375000Y-96336477D02*
X138375000Y-97407500D01*
X111150000Y-97325000D02*
X111175000Y-97350000D01*
X132300000Y-114562500D02*
X132300000Y-115342500D01*
X120300000Y-115342500D02*
X120657500Y-115700000D01*
X106100000Y-110620000D02*
X105000000Y-110620000D01*
X140750000Y-108970000D02*
X139780000Y-108970000D01*
X120800000Y-115700000D02*
X120942500Y-115700000D01*
X121000000Y-96000000D02*
X120947328Y-96000000D01*
X132800000Y-115700000D02*
X132942500Y-115700000D01*
X105000000Y-110620000D02*
X105000000Y-109287500D01*
X120657500Y-115700000D02*
X120800000Y-115700000D01*
X120300000Y-114562500D02*
X120300000Y-115342500D01*
D79*
X140300000Y-109900000D02*
X140300000Y-109412500D01*
D78*
X113550000Y-108912500D02*
X112580000Y-108912500D01*
X132657500Y-115700000D02*
X132800000Y-115700000D01*
X108300000Y-114562500D02*
X108300000Y-115342500D01*
X108800000Y-115700000D02*
X108942500Y-115700000D01*
D79*
X140300000Y-109412500D02*
X140800000Y-108912500D01*
D78*
X104850000Y-109137500D02*
X104275834Y-109137500D01*
X120942500Y-115700000D02*
X121300000Y-115342500D01*
X103138334Y-108000000D02*
X102000000Y-108000000D01*
X144800000Y-115700000D02*
X144942500Y-115700000D01*
%TO.N,UART2 RXD*%
X155537460Y-116078000D02*
X153159460Y-113700000D01*
X155956000Y-116078000D02*
X155537460Y-116078000D01*
X153159460Y-113700000D02*
X152300000Y-113700000D01*
X155600000Y-104800000D02*
X155600000Y-104050000D01*
X150800000Y-109600000D02*
X155600000Y-104800000D01*
X150800000Y-112200000D02*
X150800000Y-109600000D01*
X152300000Y-113700000D02*
X150800000Y-112200000D01*
%TO.N,SCK*%
X135310000Y-91462500D02*
X136100000Y-91462500D01*
X144410000Y-91462500D02*
X144800000Y-91462500D01*
X157300000Y-91200000D02*
X157300000Y-90050000D01*
X126210000Y-91462500D02*
X126990000Y-91462500D01*
X117160000Y-91462500D02*
X117911250Y-91462500D01*
%TO.N,MOSI*%
X117260000Y-97362500D02*
X118011250Y-97362500D01*
X144510000Y-97362500D02*
X144900000Y-97362500D01*
X135410000Y-97362500D02*
X136200000Y-97362500D01*
X159000000Y-91200000D02*
X159000000Y-90050000D01*
X126310000Y-97362500D02*
X127090000Y-97362500D01*
%TO.N,MISO*%
X126310000Y-96262500D02*
X127090000Y-96262500D01*
X158200000Y-92000000D02*
X158150000Y-91950000D01*
X158150000Y-91950000D02*
X158150000Y-90050000D01*
X135410000Y-96262500D02*
X136200000Y-96262500D01*
X144510000Y-96262500D02*
X144900000Y-96262500D01*
X117260000Y-96262500D02*
X118011250Y-96262500D01*
%TO.N,DRDY 2*%
X126310000Y-95162500D02*
X127090000Y-95162500D01*
X155600000Y-93800000D02*
X155600000Y-90050000D01*
%TO.N,GPIO42*%
X159850000Y-104360000D02*
X159850000Y-104050000D01*
X162311000Y-110744000D02*
X159850000Y-108283000D01*
X159850000Y-108283000D02*
X159850000Y-104050000D01*
%TO.N,DRDY 3*%
X154750000Y-94650000D02*
X154750000Y-90050000D01*
X154800000Y-94700000D02*
X154750000Y-94650000D01*
X135410000Y-95162500D02*
X136200000Y-95162500D01*
%TO.N,DRDY 4*%
X144510000Y-95162500D02*
X144900000Y-95162500D01*
X154000000Y-95582500D02*
X153900000Y-95482500D01*
X153900000Y-95482500D02*
X153900000Y-90050000D01*
%TO.N,ESP EN*%
X157000000Y-78780000D02*
X156270000Y-78780000D01*
X150222500Y-79375000D02*
X149997500Y-79600000D01*
X156270000Y-78780000D02*
X155675000Y-79375000D01*
X165800000Y-105430000D02*
X165920000Y-105550000D01*
X165800000Y-104050000D02*
X165800000Y-103000000D01*
X165800000Y-103000000D02*
X165600000Y-102800000D01*
X164800000Y-105540000D02*
X165910000Y-105540000D01*
X165800000Y-104050000D02*
X165800000Y-105430000D01*
X151525000Y-79375000D02*
X150222500Y-79375000D01*
X165920000Y-105550000D02*
X165920000Y-106550000D01*
X155675000Y-79375000D02*
X153600000Y-79375000D01*
X165910000Y-105540000D02*
X165920000Y-105550000D01*
X153600000Y-79375000D02*
X151525000Y-79375000D01*
%TO.N,/Ferro Amplifier 2/Vout*%
X120700000Y-98152672D02*
X120700000Y-102357500D01*
X121122500Y-102780000D02*
X120700000Y-102357500D01*
X119137500Y-103920000D02*
X119137500Y-105882500D01*
X119137500Y-105882500D02*
X119100000Y-105920000D01*
X120925000Y-97482500D02*
X120925000Y-97927672D01*
X123160000Y-104220000D02*
X121720000Y-102780000D01*
X122650000Y-107070000D02*
X120250000Y-107070000D01*
X120117500Y-102940000D02*
X119137500Y-103920000D01*
X120250000Y-107070000D02*
X119100000Y-105920000D01*
X120700000Y-102357500D02*
X120117500Y-102940000D01*
X121720000Y-102780000D02*
X121122500Y-102780000D01*
X120925000Y-97927672D02*
X120700000Y-98152672D01*
%TO.N,/Ferro Amplifier 2/Ferro*%
X121822500Y-113500000D02*
X121450000Y-113500000D01*
X123750000Y-107870000D02*
X123750000Y-106700000D01*
X121822500Y-113500000D02*
X121800000Y-113522500D01*
X120800000Y-114562500D02*
X120800000Y-113782500D01*
X124800000Y-110522500D02*
X121822500Y-113500000D01*
X120962500Y-105882500D02*
X120962500Y-103920000D01*
X121800000Y-113522500D02*
X121800000Y-114562500D01*
X121082500Y-113500000D02*
X121450000Y-113500000D01*
X124850000Y-108970000D02*
X123750000Y-107870000D01*
X120800000Y-113782500D02*
X121082500Y-113500000D01*
X121000000Y-105920000D02*
X120962500Y-105882500D01*
X123750000Y-106700000D02*
X122970000Y-105920000D01*
X122970000Y-105920000D02*
X121000000Y-105920000D01*
X124800000Y-108912500D02*
X124800000Y-110522500D01*
%TO.N,/Ferro Amplifier 3/Vout*%
X129800000Y-102257500D02*
X129117500Y-102940000D01*
X128137500Y-103920000D02*
X128137500Y-105882500D01*
X130740000Y-102800000D02*
X129257500Y-102800000D01*
X129257500Y-102800000D02*
X129117500Y-102940000D01*
X129250000Y-107070000D02*
X128100000Y-105920000D01*
X128137500Y-105882500D02*
X128100000Y-105920000D01*
X129800000Y-98165172D02*
X129800000Y-102257500D01*
X129117500Y-102940000D02*
X128137500Y-103920000D01*
X132160000Y-104220000D02*
X130740000Y-102800000D01*
X131650000Y-107070000D02*
X129250000Y-107070000D01*
X129925000Y-97482500D02*
X129925000Y-98040172D01*
X129925000Y-98040172D02*
X129800000Y-98165172D01*
%TO.N,/Ferro Amplifier 3/Ferro*%
X133082500Y-113500000D02*
X133450000Y-113500000D01*
X131870000Y-105920000D02*
X130000000Y-105920000D01*
X133040000Y-108160000D02*
X133040000Y-107090000D01*
X133800000Y-113550000D02*
X133800000Y-114562500D01*
X133900000Y-108912500D02*
X133900000Y-109269166D01*
X133750000Y-113500000D02*
X133450000Y-113500000D01*
X130000000Y-105920000D02*
X129962500Y-105882500D01*
X133750000Y-113500000D02*
X133800000Y-113550000D01*
X133040000Y-107090000D02*
X131870000Y-105920000D01*
X129962500Y-105882500D02*
X129962500Y-103920000D01*
X134980000Y-112270000D02*
X133750000Y-113500000D01*
X133850000Y-108970000D02*
X133040000Y-108160000D01*
X132800000Y-114562500D02*
X132800000Y-113782500D01*
X133900000Y-109269166D02*
X134980000Y-110349166D01*
X134980000Y-110349166D02*
X134980000Y-112270000D01*
X132800000Y-113782500D02*
X133082500Y-113500000D01*
%TO.N,/Ferro Amplifier 4/Vout*%
X139025000Y-97482500D02*
X139025000Y-98040172D01*
X138350000Y-107070000D02*
X137200000Y-105920000D01*
X140750000Y-107070000D02*
X138350000Y-107070000D01*
X137237500Y-105882500D02*
X137200000Y-105920000D01*
X138890000Y-98175172D02*
X138890000Y-102267500D01*
X139840000Y-102800000D02*
X138357500Y-102800000D01*
X138357500Y-102800000D02*
X138217500Y-102940000D01*
X138217500Y-102940000D02*
X137237500Y-103920000D01*
X137237500Y-103920000D02*
X137237500Y-105882500D01*
X141260000Y-104220000D02*
X139840000Y-102800000D01*
X139025000Y-98040172D02*
X138890000Y-98175172D01*
X138890000Y-102267500D02*
X138217500Y-102940000D01*
%TO.N,/Ferro Amplifier 4/Ferro*%
X145800000Y-113782500D02*
X145800000Y-114562500D01*
X143000000Y-112222500D02*
X144277500Y-113500000D01*
X144277500Y-113500000D02*
X145082500Y-113500000D01*
X139062500Y-105882500D02*
X139062500Y-103920000D01*
X144800000Y-114562500D02*
X144800000Y-113750000D01*
X142950000Y-108970000D02*
X142140000Y-108160000D01*
X142140000Y-108160000D02*
X142140000Y-107190000D01*
X140870000Y-105920000D02*
X139100000Y-105920000D01*
X145517500Y-113500000D02*
X145800000Y-113782500D01*
X142140000Y-107190000D02*
X140870000Y-105920000D01*
X143000000Y-108912500D02*
X143000000Y-112222500D01*
X144800000Y-113750000D02*
X144550000Y-113500000D01*
X145082500Y-113500000D02*
X145517500Y-113500000D01*
X139100000Y-105920000D02*
X139062500Y-105882500D01*
%TO.N,/Ferro Amplifier 1/Ferro*%
X114940000Y-107242206D02*
X113560294Y-105862500D01*
X115750000Y-108912500D02*
X114940000Y-108102500D01*
X108800000Y-113782500D02*
X109082500Y-113500000D01*
X114940000Y-108102500D02*
X114940000Y-107242206D01*
X115750000Y-108912500D02*
X115145000Y-109517500D01*
X115145000Y-109517500D02*
X113732500Y-109517500D01*
X108800000Y-114562500D02*
X108800000Y-113782500D01*
X109750000Y-113500000D02*
X109800000Y-113550000D01*
X113732500Y-109517500D02*
X109750000Y-113500000D01*
X109082500Y-113500000D02*
X109517500Y-113500000D01*
X109800000Y-113550000D02*
X109800000Y-114562500D01*
X113560294Y-105862500D02*
X111900000Y-105862500D01*
X111862500Y-105825000D02*
X111900000Y-105862500D01*
X111862500Y-103862500D02*
X111862500Y-105825000D01*
X109750000Y-113500000D02*
X109517500Y-113500000D01*
%TO.N,/Ferro Amplifier 1/Vout*%
X111640000Y-102260000D02*
X111017500Y-102882500D01*
X110037500Y-103862500D02*
X110037500Y-105825000D01*
X112780000Y-102882500D02*
X111017500Y-102882500D01*
X111150000Y-107012500D02*
X110000000Y-105862500D01*
X113550000Y-107012500D02*
X111150000Y-107012500D01*
X114060000Y-104162500D02*
X112780000Y-102882500D01*
X111017500Y-102882500D02*
X110037500Y-103862500D01*
X111825000Y-97977672D02*
X111640000Y-98162672D01*
X111640000Y-98162672D02*
X111640000Y-102260000D01*
X111825000Y-97425000D02*
X111825000Y-97977672D01*
X110037500Y-105825000D02*
X110000000Y-105862500D01*
%TO.N,GPIO41*%
X159000000Y-109973000D02*
X159000000Y-104050000D01*
X159771000Y-110744000D02*
X159000000Y-109973000D01*
%TO.N,GPIO39*%
X154691000Y-110609000D02*
X157300000Y-108000000D01*
X157300000Y-108000000D02*
X157300000Y-104050000D01*
X154691000Y-110744000D02*
X154691000Y-110609000D01*
%TO.N,GPIO40*%
X157231000Y-110744000D02*
X158150000Y-109825000D01*
X158150000Y-109825000D02*
X158150000Y-104050000D01*
%TO.N,GPIO38*%
X152151000Y-110744000D02*
X152151000Y-110549000D01*
X152151000Y-110549000D02*
X156450000Y-106250000D01*
X156450000Y-106250000D02*
X156450000Y-104050000D01*
%TO.N,CS 1*%
X117160000Y-90362500D02*
X117888750Y-90362500D01*
X116060000Y-89262500D02*
X115860000Y-89262500D01*
X117160000Y-90362500D02*
X117148750Y-90351250D01*
X150900000Y-90000000D02*
X152000000Y-91100000D01*
X117888750Y-90362500D02*
X117900000Y-90351250D01*
X117148750Y-90351250D02*
X116060000Y-89262500D01*
X152000000Y-91100000D02*
X152850000Y-91100000D01*
%TO.N,CS 2*%
X151107109Y-90707109D02*
X152350000Y-91950000D01*
X126260000Y-90420000D02*
X126220000Y-90380000D01*
X150192891Y-90707109D02*
X151107109Y-90707109D01*
X126210000Y-90362500D02*
X126982500Y-90362500D01*
X125160000Y-89320000D02*
X124960000Y-89320000D01*
X126982500Y-90362500D02*
X127000000Y-90380000D01*
X152350000Y-91950000D02*
X152850000Y-91950000D01*
X126220000Y-90380000D02*
X125160000Y-89320000D01*
%TO.N,Net-(D1-K)*%
X135500000Y-82600000D02*
X136000000Y-82100000D01*
D79*
X112000000Y-77200000D02*
X112000000Y-78000000D01*
D78*
X133880000Y-82900000D02*
X134180000Y-82600000D01*
D79*
X136000000Y-82100000D02*
X135320000Y-82780000D01*
X115600000Y-81600000D02*
X120800000Y-81600000D01*
X121300000Y-82100000D02*
X136000000Y-82100000D01*
X112000000Y-78000000D02*
X115600000Y-81600000D01*
X135762500Y-82362500D02*
X136000000Y-82600000D01*
X120800000Y-81600000D02*
X121300000Y-82100000D01*
X135762500Y-79450000D02*
X135762500Y-81862500D01*
X135762500Y-81862500D02*
X136000000Y-82100000D01*
D78*
X134180000Y-82600000D02*
X135500000Y-82600000D01*
%TO.N,Net-(U1-EN)*%
X102950000Y-106862500D02*
X102950000Y-105560000D01*
X102950000Y-105560000D02*
X102800000Y-105410000D01*
%TO.N,CS 3*%
X135260000Y-90420000D02*
X134160000Y-89320000D01*
X134160000Y-89320000D02*
X133960000Y-89320000D01*
X135310000Y-90362500D02*
X135992500Y-90362500D01*
X152238334Y-92800000D02*
X152850000Y-92800000D01*
X135992500Y-90362500D02*
X136050000Y-90420000D01*
X150876239Y-91437905D02*
X152238334Y-92800000D01*
%TO.N,Net-(U3-SCLK)*%
X115237500Y-91462500D02*
X115075000Y-91625000D01*
X116140000Y-91462500D02*
X115237500Y-91462500D01*
%TO.N,Net-(U3-DIN)*%
X115087500Y-97362500D02*
X115075000Y-97350000D01*
X116240000Y-97362500D02*
X115087500Y-97362500D01*
%TO.N,Net-(U3-DOUT{slash}~{DRDY})*%
X114775001Y-96262500D02*
X114425000Y-96612501D01*
X116240000Y-96262500D02*
X114775001Y-96262500D01*
X114425000Y-96612501D02*
X114425000Y-97350000D01*
%TO.N,Net-(U3-~{CS})*%
X114425000Y-90997328D02*
X114425000Y-91625000D01*
X116140000Y-90362500D02*
X115059828Y-90362500D01*
X115059828Y-90362500D02*
X114425000Y-90997328D01*
%TO.N,CS 4*%
X150200000Y-92300000D02*
X150500000Y-92300000D01*
X150500000Y-92300000D02*
X151850000Y-93650000D01*
X144410000Y-90362500D02*
X144692500Y-90362500D01*
X144692500Y-90362500D02*
X144750000Y-90420000D01*
X143260000Y-89320000D02*
X143060000Y-89320000D01*
X151850000Y-93650000D02*
X152850000Y-93650000D01*
X144360000Y-90420000D02*
X143260000Y-89320000D01*
%TO.N,Net-(U3-~{DRDY})*%
X113775000Y-96722328D02*
X113775000Y-97350000D01*
X115334828Y-95162500D02*
X113775000Y-96722328D01*
X116240000Y-95162500D02*
X115334828Y-95162500D01*
%TO.N,Net-(U5-SCLK)*%
X124337500Y-91520000D02*
X124175000Y-91682500D01*
X125240000Y-91520000D02*
X124337500Y-91520000D01*
%TO.N,Net-(U5-DIN)*%
X124187500Y-97420000D02*
X124175000Y-97407500D01*
X125340000Y-97420000D02*
X124187500Y-97420000D01*
%TO.N,LED3*%
X163500000Y-107900000D02*
X164500000Y-108900000D01*
X153900000Y-104050000D02*
X153900000Y-105200000D01*
X153900000Y-105200000D02*
X153950000Y-105250000D01*
X167090000Y-108900000D02*
X167990000Y-108000000D01*
X164500000Y-108900000D02*
X167090000Y-108900000D01*
%TO.N,LED4*%
X163100000Y-106800000D02*
X163500000Y-106800000D01*
X166181666Y-108480000D02*
X167951666Y-106710000D01*
X154750000Y-104050000D02*
X154750000Y-103150000D01*
X154750000Y-104350000D02*
X154750000Y-104050000D01*
X165180000Y-108480000D02*
X166181666Y-108480000D01*
X167951666Y-106710000D02*
X168800000Y-106710000D01*
X163500000Y-106800000D02*
X165180000Y-108480000D01*
X154750000Y-103150000D02*
X155100000Y-102800000D01*
%TO.N,LED1*%
X161500000Y-106500000D02*
X161500000Y-107700000D01*
X153600000Y-101300000D02*
X154100000Y-100800000D01*
X161500000Y-107700000D02*
X165800000Y-112000000D01*
X165800000Y-112000000D02*
X167990000Y-112000000D01*
X152850000Y-101300000D02*
X153600000Y-101300000D01*
%TO.N,Net-(U5-DOUT{slash}~{DRDY})*%
X123525000Y-96670001D02*
X123525000Y-97407500D01*
X125340000Y-96320000D02*
X123875001Y-96320000D01*
X123875001Y-96320000D02*
X123525000Y-96670001D01*
%TO.N,LED2*%
X164600000Y-110000000D02*
X167990000Y-110000000D01*
X160600000Y-105600000D02*
X161800000Y-105600000D01*
X162180000Y-107580000D02*
X164600000Y-110000000D01*
X152825000Y-102175000D02*
X152850000Y-102150000D01*
X152850000Y-102150000D02*
X154050000Y-102150000D01*
X154050000Y-102150000D02*
X154300000Y-101900000D01*
X161800000Y-105600000D02*
X162180000Y-105980000D01*
X162180000Y-105980000D02*
X162180000Y-107580000D01*
%TO.N,Net-(U5-~{CS})*%
X123980000Y-90420000D02*
X123525000Y-90875000D01*
X123525000Y-90875000D02*
X123525000Y-91682500D01*
X125240000Y-90420000D02*
X123980000Y-90420000D01*
%TO.N,Net-(U5-~{DRDY})*%
X125340000Y-95220000D02*
X124130000Y-95220000D01*
X122875000Y-96475000D02*
X122875000Y-97407500D01*
X124130000Y-95220000D02*
X122875000Y-96475000D01*
%TO.N,Net-(U7-SCLK)*%
X134240000Y-91520000D02*
X133337500Y-91520000D01*
X133337500Y-91520000D02*
X133175000Y-91682500D01*
%TO.N,Net-(U7-DIN)*%
X133187500Y-97420000D02*
X133175000Y-97407500D01*
X134340000Y-97420000D02*
X133187500Y-97420000D01*
%TO.N,Net-(U7-DOUT{slash}~{DRDY})*%
X132525000Y-96670001D02*
X132525000Y-97407500D01*
X132875001Y-96320000D02*
X132525000Y-96670001D01*
X134340000Y-96320000D02*
X132875001Y-96320000D01*
%TO.N,Net-(U7-~{CS})*%
X132525000Y-91054828D02*
X132525000Y-91682500D01*
X134240000Y-90420000D02*
X133159828Y-90420000D01*
X133159828Y-90420000D02*
X132525000Y-91054828D01*
%TO.N,Net-(U7-~{DRDY})*%
X131875000Y-96675000D02*
X131875000Y-97407500D01*
X133330000Y-95220000D02*
X131875000Y-96675000D01*
X134340000Y-95220000D02*
X133330000Y-95220000D01*
%TO.N,Net-(U9-SCLK)*%
X142437500Y-91520000D02*
X142275000Y-91682500D01*
X143340000Y-91520000D02*
X142437500Y-91520000D01*
%TO.N,Net-(U9-DIN)*%
X143440000Y-97420000D02*
X142287500Y-97420000D01*
X142287500Y-97420000D02*
X142275000Y-97407500D01*
%TO.N,Net-(U9-DOUT{slash}~{DRDY})*%
X141975001Y-96320000D02*
X141625000Y-96670001D01*
X141625000Y-96670001D02*
X141625000Y-97407500D01*
X143440000Y-96320000D02*
X141975001Y-96320000D01*
%TO.N,Net-(D9-K)*%
X126675000Y-79410000D02*
X126700000Y-79385000D01*
X125700000Y-79410000D02*
X126675000Y-79410000D01*
%TO.N,Net-(D5-A)*%
X169949000Y-112000000D02*
X169010000Y-112000000D01*
%TO.N,GND*%
X117100000Y-78910000D02*
X116590000Y-78910000D01*
X122825000Y-90092500D02*
X122800000Y-90067500D01*
X130550000Y-93157500D02*
X130550000Y-91707500D01*
X148296000Y-102986000D02*
X148296000Y-104002000D01*
X105075000Y-93000000D02*
X104000000Y-93000000D01*
X170919000Y-112000000D02*
X170919000Y-110000000D01*
X104937500Y-88000000D02*
X103600000Y-88000000D01*
X158200000Y-95400000D02*
X159850000Y-95400000D01*
X129170000Y-109520000D02*
X129170000Y-108420000D01*
X126900000Y-80800000D02*
X127500000Y-80200000D01*
X159850000Y-95400000D02*
X159850000Y-97050000D01*
X105280000Y-91300000D02*
X105300000Y-91280000D01*
X104305000Y-99500000D02*
X104305000Y-100500000D01*
X117485000Y-79535000D02*
X117100000Y-79150000D01*
X151525000Y-77225000D02*
X153575000Y-77225000D01*
X165800000Y-90050000D02*
X166850000Y-90050000D01*
X112475000Y-90255000D02*
X112650000Y-90080000D01*
X141025000Y-91637500D02*
X140375000Y-91637500D01*
X148296000Y-104002000D02*
X148296000Y-105004000D01*
X112450000Y-93100000D02*
X112450000Y-91650000D01*
X105300000Y-93225000D02*
X105075000Y-93000000D01*
X120170000Y-109520000D02*
X120170000Y-108420000D01*
X152800000Y-105200000D02*
X152800000Y-104100000D01*
X126300000Y-105982500D02*
X126300000Y-104812500D01*
X106100000Y-111580000D02*
X105000000Y-111580000D01*
X129150000Y-100000000D02*
X128150000Y-100000000D01*
X159850000Y-95400000D02*
X161500000Y-95400000D01*
X105075000Y-93000000D02*
X105075000Y-91505000D01*
X111050000Y-99942500D02*
X111050000Y-100810000D01*
X126580000Y-80800000D02*
X126900000Y-80800000D01*
X122850000Y-90137500D02*
X121750000Y-90137500D01*
X163300000Y-104100000D02*
X163250000Y-104050000D01*
X151050000Y-100950000D02*
X150800000Y-100700000D01*
X131900000Y-90080000D02*
X131900000Y-91612500D01*
X144050000Y-100057500D02*
X143107500Y-100057500D01*
X118650000Y-79535000D02*
X117485000Y-79535000D01*
X153600000Y-77200000D02*
X153625000Y-77225000D01*
X131700000Y-107962500D02*
X131510000Y-107772500D01*
X105305000Y-100500000D02*
X105325000Y-100480000D01*
X105075000Y-102200000D02*
X106000000Y-102200000D01*
X164950000Y-88580000D02*
X165080000Y-88450000D01*
X122825000Y-91625000D02*
X122825000Y-90092500D01*
X113775000Y-90105000D02*
X113750000Y-90080000D01*
X131900000Y-82900000D02*
X132920000Y-82900000D01*
X119150000Y-100957500D02*
X119150000Y-100000000D01*
X161500000Y-95400000D02*
X161500000Y-97050000D01*
X117100000Y-79150000D02*
X117100000Y-78910000D01*
X156200000Y-83600000D02*
X156950000Y-82850000D01*
X143107500Y-100057500D02*
X143050000Y-100000000D01*
X117485000Y-79535000D02*
X117100000Y-79920000D01*
X151050000Y-101650000D02*
X151050000Y-100950000D01*
X124950000Y-100000000D02*
X121650000Y-100000000D01*
X121550000Y-93157500D02*
X121550000Y-91707500D01*
X131925000Y-91637500D02*
X131275000Y-91637500D01*
X115810000Y-83770000D02*
X115780000Y-83800000D01*
X128632500Y-108957500D02*
X129170000Y-108420000D01*
X105075000Y-100730000D02*
X105325000Y-100480000D01*
X112370000Y-89800000D02*
X112650000Y-90080000D01*
X144500000Y-105982500D02*
X144500000Y-104812500D01*
X140950000Y-90137500D02*
X139850000Y-90137500D01*
X137732500Y-108957500D02*
X138270000Y-108420000D01*
X153575000Y-77225000D02*
X153600000Y-77200000D01*
X121525000Y-91625000D02*
X119575000Y-91625000D01*
X140800000Y-107962500D02*
X140270001Y-107962500D01*
D79*
X137000000Y-76200000D02*
X137800000Y-76200000D01*
D78*
X103900000Y-111580000D02*
X105000000Y-111580000D01*
X110050000Y-99990000D02*
X110050000Y-99942500D01*
X164950000Y-90050000D02*
X165800000Y-90050000D01*
X122275001Y-107637501D02*
X120844999Y-107637501D01*
X129810000Y-107772500D02*
X129220000Y-108362500D01*
X166850000Y-90050000D02*
X166850000Y-104050000D01*
X134950000Y-100057500D02*
X134007500Y-100057500D01*
X158200000Y-97050000D02*
X158200000Y-95400000D01*
X128250000Y-108957500D02*
X128632500Y-108957500D01*
X159850000Y-97050000D02*
X161500000Y-97050000D01*
X103900000Y-104420000D02*
X105000000Y-104420000D01*
X131510000Y-107772500D02*
X129810000Y-107772500D01*
X110150000Y-108900000D02*
X110532500Y-108900000D01*
X121632500Y-90000000D02*
X121700000Y-90067500D01*
X153625000Y-77225000D02*
X155675000Y-77225000D01*
X126300000Y-104812500D02*
X125650000Y-104162500D01*
X113750000Y-90080000D02*
X112650000Y-90080000D01*
X104280000Y-90300000D02*
X104280000Y-91300000D01*
X130720000Y-90000000D02*
X130800000Y-90080000D01*
X122825000Y-91625000D02*
X122175000Y-91625000D01*
X166930000Y-105600000D02*
X166880000Y-105550000D01*
X117250000Y-104812500D02*
X116600000Y-104162500D01*
X125950000Y-100057500D02*
X125007500Y-100057500D01*
X162475000Y-77225000D02*
X163205000Y-77225000D01*
X111794999Y-107637501D02*
X111070000Y-108362500D01*
X141025000Y-90105000D02*
X141000000Y-90080000D01*
X163300000Y-105000000D02*
X163300000Y-104100000D01*
X121575000Y-90312500D02*
X121750000Y-90137500D01*
X119250000Y-108957500D02*
X119632500Y-108957500D01*
X143600000Y-81700000D02*
X144175000Y-81700000D01*
X166880000Y-106550000D02*
X166880000Y-105550000D01*
X138250000Y-100000000D02*
X137250000Y-100000000D01*
X116200000Y-83800000D02*
X116700000Y-83300000D01*
X161500000Y-97050000D02*
X161500000Y-98700000D01*
X163100000Y-84400000D02*
X162760000Y-84400000D01*
X111050000Y-100810000D02*
X110960000Y-100900000D01*
X161500000Y-98700000D02*
X159850000Y-98700000D01*
X112450000Y-91650000D02*
X112475000Y-91625000D01*
X167600000Y-88000000D02*
X166850000Y-88750000D01*
X137250000Y-100957500D02*
X137250000Y-100000000D01*
X166850000Y-105520000D02*
X166880000Y-105550000D01*
X139725000Y-91637500D02*
X137775000Y-91637500D01*
X165080000Y-88450000D02*
X165080000Y-87420000D01*
X105285000Y-84915000D02*
X105300000Y-84900000D01*
X115810000Y-82800000D02*
X116200000Y-82800000D01*
X131850000Y-90137500D02*
X130750000Y-90137500D01*
X149550000Y-100450000D02*
X149800000Y-100700000D01*
X141900000Y-79162500D02*
X141900000Y-80000000D01*
X113225001Y-107637501D02*
X111794999Y-107637501D01*
X115780000Y-83800000D02*
X116200000Y-83800000D01*
X158200000Y-98700000D02*
X158200000Y-97050000D01*
X118455000Y-76800000D02*
X118650000Y-76995000D01*
X111050000Y-99942500D02*
X110050000Y-99942500D01*
X125007500Y-100057500D02*
X124950000Y-100000000D01*
X105075000Y-91505000D02*
X105300000Y-91280000D01*
X135400000Y-105982500D02*
X135400000Y-104812500D01*
X104280000Y-91300000D02*
X105280000Y-91300000D01*
X160425000Y-77225000D02*
X162475000Y-77225000D01*
X163205000Y-77225000D02*
X163800000Y-77820000D01*
X134007500Y-100057500D02*
X133950000Y-100000000D01*
X162470000Y-86100000D02*
X163400000Y-86100000D01*
X159400000Y-86980000D02*
X158400000Y-86980000D01*
X116850000Y-100000000D02*
X115907500Y-100000000D01*
X104305000Y-100500000D02*
X105305000Y-100500000D01*
X117250000Y-109700000D02*
X117250000Y-108942500D01*
X115850000Y-99942500D02*
X112550000Y-99942500D01*
X139580000Y-90400000D02*
X139900000Y-90080000D01*
X167800000Y-105600000D02*
X166930000Y-105600000D01*
X138800000Y-90400000D02*
X139580000Y-90400000D01*
X129600000Y-90000000D02*
X130720000Y-90000000D01*
X155675000Y-77225000D02*
X156405000Y-77225000D01*
X115810000Y-82800000D02*
X115810000Y-83770000D01*
X151050000Y-101650000D02*
X151050000Y-102748000D01*
X164950000Y-90050000D02*
X164950000Y-88580000D01*
X120600000Y-90000000D02*
X121632500Y-90000000D01*
X166850000Y-104050000D02*
X166850000Y-105520000D01*
X130625000Y-91637500D02*
X128675000Y-91637500D01*
X117100000Y-79920000D02*
X116620000Y-79920000D01*
X113775000Y-91625000D02*
X113125000Y-91625000D01*
X110532500Y-108900000D02*
X111070000Y-108362500D01*
X151050000Y-100450000D02*
X150800000Y-100700000D01*
X138270000Y-109520000D02*
X138270000Y-108420000D01*
X120844999Y-107637501D02*
X120120000Y-108362500D01*
X162760000Y-84400000D02*
X162260000Y-83900000D01*
X102800000Y-111580000D02*
X103900000Y-111580000D01*
X113550000Y-107962500D02*
X113225001Y-107637501D01*
X111070000Y-109462500D02*
X111070000Y-108362500D01*
X126350000Y-109757500D02*
X126350000Y-109000000D01*
X112475000Y-91625000D02*
X110525000Y-91625000D01*
X158325000Y-77225000D02*
X160375000Y-77225000D01*
X159850000Y-98700000D02*
X158200000Y-98700000D01*
X162760000Y-84400000D02*
X162260000Y-84900000D01*
X130550000Y-91707500D02*
X130575000Y-91682500D01*
X140080001Y-107772500D02*
X138910000Y-107772500D01*
X133950000Y-100000000D02*
X130650000Y-100000000D01*
X160400000Y-77200000D02*
X160425000Y-77225000D01*
X138910000Y-107772500D02*
X138320000Y-108362500D01*
X116590000Y-78910000D02*
X116100000Y-79400000D01*
X103900000Y-106862500D02*
X103900000Y-107800000D01*
X111500000Y-89800000D02*
X112370000Y-89800000D01*
X134000000Y-76200000D02*
X134890000Y-76200000D01*
X158200000Y-97050000D02*
X159850000Y-97050000D01*
X144500000Y-104812500D02*
X143850000Y-104162500D01*
X122600000Y-107962500D02*
X122275001Y-107637501D01*
X159850000Y-97050000D02*
X159850000Y-98700000D01*
X135350000Y-109757500D02*
X135350000Y-109000000D01*
X119632500Y-108957500D02*
X120170000Y-108420000D01*
X131900000Y-91612500D02*
X131925000Y-91637500D01*
X143050000Y-100000000D02*
X139750000Y-100000000D01*
X139650000Y-93157500D02*
X139650000Y-91707500D01*
X164100000Y-104050000D02*
X163250000Y-104050000D01*
X152800000Y-104100000D02*
X152850000Y-104050000D01*
X152800000Y-90000000D02*
X152850000Y-90050000D01*
X151050000Y-99750000D02*
X151050000Y-100450000D01*
X156405000Y-77225000D02*
X157000000Y-77820000D01*
X158400000Y-86980000D02*
X158400000Y-87800000D01*
X137350000Y-108957500D02*
X137732500Y-108957500D01*
X141900000Y-80000000D02*
X141400000Y-80500000D01*
X151900000Y-90000000D02*
X152800000Y-90000000D01*
X140270001Y-107962500D02*
X140080001Y-107772500D01*
X170919000Y-108000000D02*
X170919000Y-110000000D01*
X170919000Y-106000000D02*
X170919000Y-108000000D01*
X105000000Y-104420000D02*
X105980000Y-104420000D01*
X116200000Y-82800000D02*
X116700000Y-83300000D01*
X120150000Y-100000000D02*
X119150000Y-100000000D01*
X143100000Y-82200000D02*
X143600000Y-81700000D01*
X151288000Y-104002000D02*
X151288000Y-102986000D01*
X128150000Y-100957500D02*
X128150000Y-100000000D01*
X149550000Y-99750000D02*
X149550000Y-100450000D01*
X151050000Y-102748000D02*
X151288000Y-102986000D01*
X166850000Y-88750000D02*
X166850000Y-90050000D01*
X156200000Y-84787500D02*
X156200000Y-83600000D01*
X105075000Y-102200000D02*
X105075000Y-100730000D01*
X117250000Y-105982500D02*
X117250000Y-104812500D01*
X141025000Y-91637500D02*
X141025000Y-90105000D01*
X113775000Y-91625000D02*
X113775000Y-90105000D01*
X105980000Y-104420000D02*
X106000000Y-104400000D01*
X144450000Y-109757500D02*
X144450000Y-109000000D01*
X148296000Y-105004000D02*
X148100000Y-105200000D01*
X115907500Y-100000000D02*
X115850000Y-99942500D01*
X103900000Y-112700000D02*
X103900000Y-111580000D01*
X104962500Y-97200000D02*
X103600000Y-97200000D01*
X116620000Y-79920000D02*
X116100000Y-79400000D01*
X160375000Y-77225000D02*
X160400000Y-77200000D01*
X117200000Y-76800000D02*
X118455000Y-76800000D01*
X135400000Y-104812500D02*
X134750000Y-104162500D01*
X105285000Y-85700000D02*
X105285000Y-84915000D01*
%TO.N,Net-(U9-~{CS})*%
X141625000Y-91054828D02*
X141625000Y-91682500D01*
X142259828Y-90420000D02*
X141625000Y-91054828D01*
X143340000Y-90420000D02*
X142259828Y-90420000D01*
%TO.N,Net-(D6-A)*%
X169949000Y-110000000D02*
X169010000Y-110000000D01*
%TO.N,Net-(U9-~{DRDY})*%
X142530000Y-95220000D02*
X140975000Y-96775000D01*
X143440000Y-95220000D02*
X142530000Y-95220000D01*
X140975000Y-96775000D02*
X140975000Y-97407500D01*
%TO.N,ESP TXD*%
X160700000Y-102700000D02*
X160700000Y-104050000D01*
X152500000Y-82100000D02*
X152500000Y-81300000D01*
%TO.N,Net-(U12-~{RST})*%
X159790000Y-83100000D02*
X160090000Y-82800000D01*
X158887500Y-83100000D02*
X159790000Y-83100000D01*
%TO.N,Net-(U12-TXD)*%
X155012500Y-82600000D02*
X154300000Y-82600000D01*
X154300000Y-82600000D02*
X153700000Y-83200000D01*
%TO.N,ESP RXD*%
X152505000Y-83995000D02*
X152500000Y-84000000D01*
X161550000Y-103150000D02*
X161550000Y-104050000D01*
X162000000Y-102700000D02*
X161550000Y-103150000D01*
X152505000Y-83200000D02*
X152505000Y-83995000D01*
%TO.N,Net-(U12-RXD)*%
X155012500Y-82100000D02*
X153695000Y-82100000D01*
%TO.N,Net-(U12-VBUS)*%
X159910000Y-83600000D02*
X160200000Y-83890000D01*
X158887500Y-83600000D02*
X159910000Y-83600000D01*
%TO.N,Net-(U12-D-)*%
X157200000Y-84787500D02*
X157200000Y-85902500D01*
X157200000Y-85902500D02*
X157400000Y-86102500D01*
%TO.N,Net-(D7-A)*%
X169949000Y-108000000D02*
X169010000Y-108000000D01*
%TO.N,Net-(U12-D+)*%
X156700000Y-84787500D02*
X156700000Y-85800000D01*
X156700000Y-85800000D02*
X156400000Y-86100000D01*
%TO.N,Net-(D8-A)*%
X169949000Y-106000000D02*
X169110000Y-106000000D01*
X169110000Y-106000000D02*
X168800000Y-105690000D01*
%TO.N,Net-(D2-A)*%
X161500000Y-86100000D02*
X161310000Y-86100000D01*
X161310000Y-86100000D02*
X160400000Y-87010000D01*
%TO.N,Net-(D3-A)*%
X103310000Y-85700000D02*
X104315000Y-85700000D01*
%TO.N,Net-(D4-A)*%
X103325000Y-94905000D02*
X104325000Y-94905000D01*
X104325000Y-94905000D02*
X104330000Y-94900000D01*
%TO.N,DTR*%
X151590000Y-87050000D02*
X150540000Y-87050000D01*
X154400000Y-83600000D02*
X151590000Y-86410000D01*
X150540000Y-87050000D02*
X149300000Y-85810000D01*
X155012500Y-83600000D02*
X154400000Y-83600000D01*
X151590000Y-86410000D02*
X151590000Y-87050000D01*
%TO.N,RTS*%
X153912500Y-80500000D02*
X151360000Y-80500000D01*
X151490000Y-83700000D02*
X151490000Y-81730000D01*
X150400000Y-84790000D02*
X151490000Y-83700000D01*
X155012500Y-81600000D02*
X153912500Y-80500000D01*
X151490000Y-81730000D02*
X150810000Y-81050000D01*
X151360000Y-80500000D02*
X150810000Y-81050000D01*
%TO.N,Net-(Q1-Pad1)*%
X150810000Y-82950000D02*
X149300000Y-84460000D01*
X149300000Y-84460000D02*
X149300000Y-84790000D01*
%TO.N,Net-(Q1-Pad3)*%
X148802500Y-81987500D02*
X148790000Y-82000000D01*
X148802500Y-79600000D02*
X148802500Y-81987500D01*
%TO.N,Net-(Q2-Pad1)*%
X150930000Y-85810000D02*
X151590000Y-85150000D01*
X150400000Y-85810000D02*
X150930000Y-85810000D01*
%TO.N,Net-(Q2-Pad3)*%
X154797500Y-86100000D02*
X154800000Y-86102500D01*
X153610000Y-86100000D02*
X154797500Y-86100000D01*
%TO.N,unconnected-(U2-IO20-Pad24)*%
X152800000Y-97950000D02*
X152850000Y-97900000D01*
%TO.N,unconnected-(U2-IO19-Pad23)*%
X152750000Y-96950000D02*
X152850000Y-97050000D01*
%TO.N,Net-(U15-C1+)*%
X149820000Y-98414000D02*
X150050000Y-98644000D01*
X150050000Y-98644000D02*
X150050000Y-99750000D01*
%TO.N,Net-(U15-C1-)*%
X150550000Y-98644000D02*
X150550000Y-99750000D01*
X150780000Y-98414000D02*
X150550000Y-98644000D01*
%TO.N,+5V_Gen*%
X152778000Y-116078000D02*
X153456000Y-116078000D01*
X149256000Y-109556000D02*
X150500000Y-110800000D01*
X150500000Y-110800000D02*
X150500000Y-113800000D01*
X150050000Y-102192000D02*
X149256000Y-102986000D01*
X150050000Y-101650000D02*
X150050000Y-102192000D01*
X150500000Y-113800000D02*
X152778000Y-116078000D01*
X149256000Y-102986000D02*
X149256000Y-104002000D01*
X149256000Y-104002000D02*
X149256000Y-109556000D01*
%TO.N,EN_5V*%
X148850000Y-101650000D02*
X148800000Y-101600000D01*
X153900000Y-102900000D02*
X153800000Y-103000000D01*
X153800000Y-103000000D02*
X152850000Y-103000000D01*
X149550000Y-101650000D02*
X148850000Y-101650000D01*
%TD*%
%TA.AperFunction,Conductor*%
%TO.N,Shield*%
G36*
X118853177Y-111019685D02*
G01*
X118873819Y-111036319D01*
X118900000Y-111062500D01*
X120926000Y-111062500D01*
X120993039Y-111082185D01*
X121038794Y-111134989D01*
X121050000Y-111186500D01*
X121050000Y-111312500D01*
X121176000Y-111312500D01*
X121243039Y-111332185D01*
X121288794Y-111384989D01*
X121300000Y-111436500D01*
X121300000Y-112562500D01*
X121639687Y-112562500D01*
X121660932Y-112568738D01*
X121683021Y-112570318D01*
X121693804Y-112578390D01*
X121706726Y-112582185D01*
X121721225Y-112598918D01*
X121738954Y-112612190D01*
X121743661Y-112624810D01*
X121752481Y-112634989D01*
X121755632Y-112656906D01*
X121763371Y-112677654D01*
X121760508Y-112690814D01*
X121762425Y-112704147D01*
X121753225Y-112724290D01*
X121748519Y-112745927D01*
X121735250Y-112763652D01*
X121733400Y-112767703D01*
X121727368Y-112774181D01*
X121618368Y-112883181D01*
X121557045Y-112916666D01*
X121530687Y-112919500D01*
X121006075Y-112919500D01*
X120922103Y-112941999D01*
X120922104Y-112942000D01*
X120858431Y-112959061D01*
X120726068Y-113035481D01*
X120726062Y-113035486D01*
X120335486Y-113426062D01*
X120335477Y-113426074D01*
X120333206Y-113430008D01*
X120325767Y-113437099D01*
X120321758Y-113446567D01*
X120300904Y-113460802D01*
X120282635Y-113478220D01*
X120271006Y-113481212D01*
X120264052Y-113485960D01*
X120234269Y-113490665D01*
X120229271Y-113491952D01*
X120227531Y-113492000D01*
X120102128Y-113492001D01*
X120058372Y-113496704D01*
X120053449Y-113496841D01*
X120050938Y-113496179D01*
X120036748Y-113496179D01*
X119997874Y-113492000D01*
X119602132Y-113492000D01*
X119602117Y-113492001D01*
X119576177Y-113494789D01*
X119576170Y-113494791D01*
X119542517Y-113498409D01*
X119407669Y-113548704D01*
X119374308Y-113573677D01*
X119308845Y-113598093D01*
X119240572Y-113583241D01*
X119225694Y-113573679D01*
X119199688Y-113554211D01*
X119163887Y-113506387D01*
X119150000Y-113492500D01*
X119102165Y-113492500D01*
X119065598Y-113496431D01*
X119039092Y-113496431D01*
X118997873Y-113492000D01*
X118302132Y-113492000D01*
X118302117Y-113492001D01*
X118260904Y-113496431D01*
X118234402Y-113496431D01*
X118197834Y-113492500D01*
X118100000Y-113492500D01*
X118099948Y-113492551D01*
X118080315Y-113559414D01*
X118050312Y-113591641D01*
X117992452Y-113634955D01*
X117906206Y-113750164D01*
X117906202Y-113750171D01*
X117855908Y-113885017D01*
X117849501Y-113944616D01*
X117849501Y-113944623D01*
X117849500Y-113944635D01*
X117849500Y-114438500D01*
X117846949Y-114447185D01*
X117848238Y-114456147D01*
X117837259Y-114480187D01*
X117829815Y-114505539D01*
X117822974Y-114511466D01*
X117819213Y-114519703D01*
X117796978Y-114533992D01*
X117777011Y-114551294D01*
X117766496Y-114553581D01*
X117760435Y-114557477D01*
X117725500Y-114562500D01*
X117724000Y-114562500D01*
X117656961Y-114542815D01*
X117611206Y-114490011D01*
X117600000Y-114438500D01*
X117600000Y-113492500D01*
X117502155Y-113492500D01*
X117442627Y-113498901D01*
X117442620Y-113498903D01*
X117307913Y-113549145D01*
X117307906Y-113549149D01*
X117192812Y-113635309D01*
X117192808Y-113635313D01*
X117180426Y-113651853D01*
X117124491Y-113693722D01*
X117054799Y-113698703D01*
X117033711Y-113692100D01*
X117002098Y-113679006D01*
X117002100Y-113679006D01*
X116975000Y-113673615D01*
X116975000Y-114425511D01*
X116965060Y-114408295D01*
X116909205Y-114352440D01*
X116840796Y-114312944D01*
X116764496Y-114292500D01*
X116685504Y-114292500D01*
X116609204Y-114312944D01*
X116540795Y-114352440D01*
X116484940Y-114408295D01*
X116475000Y-114425511D01*
X116475000Y-113673616D01*
X116474999Y-113673615D01*
X116447899Y-113679006D01*
X116447896Y-113679007D01*
X116275008Y-113750619D01*
X116274999Y-113750624D01*
X116119410Y-113854586D01*
X116119406Y-113854589D01*
X115987089Y-113986906D01*
X115987086Y-113986910D01*
X115883124Y-114142499D01*
X115883119Y-114142508D01*
X115811508Y-114315394D01*
X115811506Y-114315402D01*
X115775000Y-114498928D01*
X115775000Y-114892500D01*
X116425000Y-114892500D01*
X116425000Y-115392500D01*
X115775000Y-115392500D01*
X115775000Y-115786071D01*
X115811506Y-115969597D01*
X115811508Y-115969605D01*
X115883119Y-116142491D01*
X115883124Y-116142500D01*
X115987086Y-116298089D01*
X115987089Y-116298093D01*
X116119406Y-116430410D01*
X116119410Y-116430413D01*
X116274999Y-116534375D01*
X116275012Y-116534382D01*
X116447889Y-116605989D01*
X116447896Y-116605991D01*
X116475000Y-116611382D01*
X116475000Y-115859488D01*
X116484940Y-115876705D01*
X116540795Y-115932560D01*
X116609204Y-115972056D01*
X116685504Y-115992500D01*
X116764496Y-115992500D01*
X116840796Y-115972056D01*
X116909205Y-115932560D01*
X116965060Y-115876705D01*
X116975000Y-115859488D01*
X116975000Y-116611382D01*
X117002103Y-116605991D01*
X117002110Y-116605989D01*
X117174987Y-116534382D01*
X117175000Y-116534375D01*
X117330589Y-116430413D01*
X117330593Y-116430410D01*
X117462910Y-116298093D01*
X117462913Y-116298089D01*
X117566875Y-116142500D01*
X117566879Y-116142493D01*
X117590930Y-116084427D01*
X117634770Y-116030023D01*
X117701064Y-116007957D01*
X117768764Y-116025235D01*
X117793173Y-116044197D01*
X117821985Y-116073009D01*
X117821986Y-116073010D01*
X117821988Y-116073011D01*
X117947511Y-116145482D01*
X117947512Y-116145482D01*
X117947515Y-116145484D01*
X118087525Y-116183000D01*
X118087528Y-116183000D01*
X118232472Y-116183000D01*
X118232475Y-116183000D01*
X118372485Y-116145484D01*
X118498015Y-116073009D01*
X118600509Y-115970515D01*
X118672984Y-115844985D01*
X118705160Y-115724902D01*
X118718950Y-115702279D01*
X118729409Y-115677935D01*
X118736851Y-115672910D01*
X118741524Y-115665245D01*
X118765357Y-115653667D01*
X118787319Y-115638842D01*
X118799900Y-115636887D01*
X118804371Y-115634716D01*
X118822131Y-115633031D01*
X118823546Y-115632999D01*
X118997872Y-115632999D01*
X119044306Y-115628007D01*
X119049546Y-115627889D01*
X119052068Y-115628568D01*
X119065606Y-115628568D01*
X119102166Y-115632499D01*
X119102182Y-115632500D01*
X119150000Y-115632500D01*
X119165611Y-115616888D01*
X119169685Y-115603015D01*
X119173581Y-115598829D01*
X119174732Y-115595745D01*
X119199686Y-115570789D01*
X119225689Y-115551323D01*
X119291152Y-115526906D01*
X119359425Y-115541757D01*
X119374305Y-115551320D01*
X119400312Y-115570789D01*
X119436108Y-115618608D01*
X119450000Y-115632500D01*
X119497819Y-115632500D01*
X119497833Y-115632499D01*
X119534395Y-115628568D01*
X119551229Y-115627909D01*
X119556077Y-115628048D01*
X119602127Y-115633000D01*
X119727611Y-115632999D01*
X119729401Y-115633051D01*
X119760980Y-115643321D01*
X119792863Y-115652683D01*
X119794256Y-115654144D01*
X119795845Y-115654661D01*
X119802416Y-115662702D01*
X119833210Y-115694998D01*
X119835479Y-115698928D01*
X119835485Y-115698936D01*
X119945748Y-115809199D01*
X119979233Y-115870522D01*
X119974249Y-115940214D01*
X119972628Y-115944332D01*
X119934106Y-116037332D01*
X119934103Y-116037341D01*
X119899500Y-116211304D01*
X119899500Y-116388695D01*
X119934103Y-116562658D01*
X119934106Y-116562667D01*
X120001983Y-116726540D01*
X120001990Y-116726553D01*
X120100535Y-116874034D01*
X120100538Y-116874038D01*
X120225961Y-116999461D01*
X120225965Y-116999464D01*
X120373446Y-117098009D01*
X120373459Y-117098016D01*
X120496363Y-117148923D01*
X120537334Y-117165894D01*
X120537336Y-117165894D01*
X120537341Y-117165896D01*
X120711304Y-117200499D01*
X120711307Y-117200500D01*
X120711309Y-117200500D01*
X120888693Y-117200500D01*
X120888694Y-117200499D01*
X120946682Y-117188964D01*
X121062658Y-117165896D01*
X121062661Y-117165894D01*
X121062666Y-117165894D01*
X121226547Y-117098013D01*
X121374035Y-116999464D01*
X121499464Y-116874035D01*
X121598013Y-116726547D01*
X121665894Y-116562666D01*
X121669903Y-116542515D01*
X121692201Y-116430413D01*
X121700500Y-116388691D01*
X121700500Y-116211309D01*
X121700500Y-116211306D01*
X121700499Y-116211304D01*
X121665896Y-116037341D01*
X121665893Y-116037332D01*
X121637840Y-115969605D01*
X121627370Y-115944329D01*
X121625415Y-115926143D01*
X121618545Y-115909191D01*
X121621758Y-115892128D01*
X121619902Y-115874862D01*
X121628091Y-115858502D01*
X121631476Y-115840529D01*
X121649498Y-115815736D01*
X121651177Y-115812383D01*
X121651826Y-115811692D01*
X121652997Y-115810452D01*
X121764515Y-115698936D01*
X121774068Y-115682389D01*
X121784069Y-115671812D01*
X121802180Y-115661252D01*
X121817354Y-115646784D01*
X121833865Y-115642778D01*
X121844428Y-115636620D01*
X121857001Y-115637165D01*
X121874175Y-115632999D01*
X121997870Y-115632999D01*
X121997872Y-115632999D01*
X122006711Y-115632048D01*
X122039094Y-115628568D01*
X122065606Y-115628568D01*
X122102166Y-115632499D01*
X122102182Y-115632500D01*
X122150000Y-115632500D01*
X122165611Y-115616888D01*
X122169685Y-115603015D01*
X122173581Y-115598829D01*
X122174732Y-115595745D01*
X122199686Y-115570789D01*
X122225689Y-115551323D01*
X122291152Y-115526906D01*
X122359425Y-115541757D01*
X122374305Y-115551320D01*
X122400312Y-115570789D01*
X122436108Y-115618608D01*
X122450000Y-115632500D01*
X122497819Y-115632500D01*
X122497833Y-115632499D01*
X122534395Y-115628568D01*
X122560905Y-115628568D01*
X122602127Y-115633000D01*
X122997872Y-115632999D01*
X122997873Y-115632998D01*
X122997885Y-115632998D01*
X123036744Y-115628820D01*
X123052695Y-115628138D01*
X123057976Y-115628252D01*
X123102127Y-115633000D01*
X123276443Y-115632999D01*
X123277760Y-115633028D01*
X123309842Y-115643210D01*
X123342105Y-115652683D01*
X123343021Y-115653740D01*
X123344356Y-115654164D01*
X123365838Y-115680073D01*
X123387860Y-115705487D01*
X123388586Y-115707508D01*
X123388953Y-115707950D01*
X123389059Y-115708822D01*
X123394838Y-115724897D01*
X123419179Y-115815736D01*
X123427017Y-115844988D01*
X123499488Y-115970511D01*
X123499490Y-115970513D01*
X123499491Y-115970515D01*
X123601985Y-116073009D01*
X123601986Y-116073010D01*
X123601988Y-116073011D01*
X123727511Y-116145482D01*
X123727512Y-116145482D01*
X123727515Y-116145484D01*
X123867525Y-116183000D01*
X123867528Y-116183000D01*
X124012472Y-116183000D01*
X124012475Y-116183000D01*
X124152485Y-116145484D01*
X124278015Y-116073009D01*
X124306828Y-116044195D01*
X124368147Y-116010712D01*
X124437839Y-116015696D01*
X124493773Y-116057566D01*
X124509068Y-116084426D01*
X124533117Y-116142487D01*
X124533124Y-116142500D01*
X124637086Y-116298089D01*
X124637089Y-116298093D01*
X124769406Y-116430410D01*
X124769410Y-116430413D01*
X124924999Y-116534375D01*
X124925012Y-116534382D01*
X125097889Y-116605989D01*
X125097896Y-116605991D01*
X125125000Y-116611382D01*
X125125000Y-115859488D01*
X125134940Y-115876705D01*
X125190795Y-115932560D01*
X125259204Y-115972056D01*
X125335504Y-115992500D01*
X125414496Y-115992500D01*
X125490796Y-115972056D01*
X125559205Y-115932560D01*
X125615060Y-115876705D01*
X125625000Y-115859488D01*
X125625000Y-116611381D01*
X125652103Y-116605991D01*
X125652110Y-116605989D01*
X125824987Y-116534382D01*
X125825000Y-116534375D01*
X125980589Y-116430413D01*
X125980593Y-116430410D01*
X126112910Y-116298093D01*
X126112913Y-116298089D01*
X126216875Y-116142500D01*
X126216880Y-116142491D01*
X126288491Y-115969605D01*
X126288493Y-115969597D01*
X126324999Y-115786071D01*
X126325000Y-115786069D01*
X126325000Y-115392500D01*
X125675000Y-115392500D01*
X125675000Y-114892500D01*
X126325000Y-114892500D01*
X126325000Y-114498930D01*
X126324999Y-114498928D01*
X126288493Y-114315402D01*
X126288491Y-114315394D01*
X126216880Y-114142508D01*
X126216875Y-114142499D01*
X126112913Y-113986910D01*
X126112910Y-113986906D01*
X125980593Y-113854589D01*
X125980589Y-113854586D01*
X125825000Y-113750624D01*
X125824991Y-113750619D01*
X125652103Y-113679007D01*
X125652100Y-113679006D01*
X125625000Y-113673615D01*
X125625000Y-114425511D01*
X125615060Y-114408295D01*
X125559205Y-114352440D01*
X125490796Y-114312944D01*
X125414496Y-114292500D01*
X125335504Y-114292500D01*
X125259204Y-114312944D01*
X125190795Y-114352440D01*
X125134940Y-114408295D01*
X125125000Y-114425511D01*
X125125000Y-113720431D01*
X124998932Y-113699930D01*
X124997925Y-113699447D01*
X124996817Y-113699567D01*
X124966502Y-113684392D01*
X124935922Y-113669740D01*
X124935336Y-113668790D01*
X124934338Y-113668291D01*
X124919569Y-113651848D01*
X124907193Y-113635315D01*
X124907185Y-113635308D01*
X124792093Y-113549149D01*
X124792086Y-113549145D01*
X124657379Y-113498903D01*
X124657372Y-113498901D01*
X124597844Y-113492500D01*
X124500000Y-113492500D01*
X124500000Y-114438500D01*
X124497449Y-114447185D01*
X124498738Y-114456147D01*
X124487759Y-114480187D01*
X124480315Y-114505539D01*
X124473474Y-114511466D01*
X124469713Y-114519703D01*
X124447478Y-114533992D01*
X124427511Y-114551294D01*
X124416996Y-114553581D01*
X124410935Y-114557477D01*
X124376000Y-114562500D01*
X124374499Y-114562500D01*
X124307460Y-114542815D01*
X124261705Y-114490011D01*
X124250499Y-114438500D01*
X124250499Y-113944629D01*
X124250498Y-113944623D01*
X124250497Y-113944616D01*
X124244091Y-113885017D01*
X124240886Y-113876425D01*
X124193797Y-113750171D01*
X124193793Y-113750164D01*
X124107547Y-113634955D01*
X124049688Y-113591641D01*
X124007818Y-113535707D01*
X124000027Y-113492527D01*
X124000000Y-113492500D01*
X123902165Y-113492500D01*
X123865598Y-113496431D01*
X123839092Y-113496431D01*
X123797873Y-113492000D01*
X123102130Y-113492000D01*
X123102119Y-113492001D01*
X123063253Y-113496179D01*
X123043898Y-113496739D01*
X123040308Y-113496562D01*
X122997873Y-113492000D01*
X122947750Y-113492000D01*
X122944707Y-113491850D01*
X122914467Y-113481328D01*
X122883772Y-113472315D01*
X122881703Y-113469928D01*
X122878717Y-113468889D01*
X122858966Y-113443688D01*
X122838017Y-113419511D01*
X122837567Y-113416383D01*
X122835618Y-113413896D01*
X122832628Y-113382037D01*
X122828073Y-113350353D01*
X122829386Y-113347477D01*
X122829091Y-113344332D01*
X122843801Y-113315911D01*
X122857098Y-113286797D01*
X122861092Y-113282507D01*
X122861209Y-113282282D01*
X122861409Y-113282166D01*
X122863130Y-113280319D01*
X124688319Y-111455130D01*
X124749642Y-111421645D01*
X124819334Y-111426629D01*
X124875267Y-111468501D01*
X124899684Y-111533965D01*
X124900000Y-111542811D01*
X124900000Y-112110344D01*
X124906401Y-112169872D01*
X124906403Y-112169879D01*
X124956645Y-112304586D01*
X124956649Y-112304593D01*
X125042809Y-112419687D01*
X125042812Y-112419690D01*
X125157906Y-112505850D01*
X125157913Y-112505854D01*
X125292620Y-112556096D01*
X125292627Y-112556098D01*
X125352155Y-112562499D01*
X125352172Y-112562500D01*
X126800000Y-112562500D01*
X127300000Y-112562500D01*
X128747828Y-112562500D01*
X128747844Y-112562499D01*
X128807372Y-112556098D01*
X128807379Y-112556096D01*
X128942086Y-112505854D01*
X128942093Y-112505850D01*
X129057187Y-112419690D01*
X129057190Y-112419687D01*
X129143350Y-112304593D01*
X129143354Y-112304586D01*
X129193596Y-112169879D01*
X129193598Y-112169872D01*
X129199999Y-112110344D01*
X130900000Y-112110344D01*
X130906401Y-112169872D01*
X130906403Y-112169879D01*
X130956645Y-112304586D01*
X130956649Y-112304593D01*
X131042809Y-112419687D01*
X131042812Y-112419690D01*
X131157906Y-112505850D01*
X131157913Y-112505854D01*
X131292620Y-112556096D01*
X131292627Y-112556098D01*
X131352155Y-112562499D01*
X131352172Y-112562500D01*
X132800000Y-112562500D01*
X132800000Y-111562500D01*
X130900000Y-111562500D01*
X130900000Y-112110344D01*
X129199999Y-112110344D01*
X129200000Y-112110327D01*
X129200000Y-111562500D01*
X127300000Y-111562500D01*
X127300000Y-112562500D01*
X126800000Y-112562500D01*
X126800000Y-111436500D01*
X126819685Y-111369461D01*
X126872489Y-111323706D01*
X126924000Y-111312500D01*
X127050000Y-111312500D01*
X127050000Y-111186500D01*
X127069685Y-111119461D01*
X127122489Y-111073706D01*
X127174000Y-111062500D01*
X129200000Y-111062500D01*
X129226181Y-111036319D01*
X129287504Y-111002834D01*
X129313862Y-111000000D01*
X130786138Y-111000000D01*
X130853177Y-111019685D01*
X130873819Y-111036319D01*
X130900000Y-111062500D01*
X132926000Y-111062500D01*
X132993039Y-111082185D01*
X133038794Y-111134989D01*
X133050000Y-111186500D01*
X133050000Y-111312500D01*
X133176000Y-111312500D01*
X133243039Y-111332185D01*
X133288794Y-111384989D01*
X133300000Y-111436500D01*
X133300000Y-112562500D01*
X133567187Y-112562500D01*
X133588432Y-112568738D01*
X133610521Y-112570318D01*
X133621304Y-112578390D01*
X133634226Y-112582185D01*
X133648725Y-112598918D01*
X133666454Y-112612190D01*
X133671161Y-112624810D01*
X133679981Y-112634989D01*
X133683132Y-112656906D01*
X133690871Y-112677654D01*
X133688008Y-112690814D01*
X133689925Y-112704147D01*
X133680725Y-112724290D01*
X133676019Y-112745927D01*
X133662750Y-112763652D01*
X133660900Y-112767703D01*
X133654868Y-112774181D01*
X133545868Y-112883181D01*
X133484545Y-112916666D01*
X133458187Y-112919500D01*
X133006075Y-112919500D01*
X132922103Y-112941999D01*
X132922104Y-112942000D01*
X132858431Y-112959061D01*
X132726068Y-113035481D01*
X132726062Y-113035486D01*
X132335486Y-113426062D01*
X132335477Y-113426074D01*
X132333206Y-113430008D01*
X132325767Y-113437099D01*
X132321758Y-113446567D01*
X132300904Y-113460802D01*
X132282635Y-113478220D01*
X132271006Y-113481212D01*
X132264052Y-113485960D01*
X132234269Y-113490665D01*
X132229271Y-113491952D01*
X132227531Y-113492000D01*
X132102128Y-113492001D01*
X132058372Y-113496704D01*
X132053449Y-113496841D01*
X132050938Y-113496179D01*
X132036748Y-113496179D01*
X131997874Y-113492000D01*
X131602132Y-113492000D01*
X131602117Y-113492001D01*
X131576177Y-113494789D01*
X131576170Y-113494791D01*
X131542517Y-113498409D01*
X131407669Y-113548704D01*
X131374308Y-113573677D01*
X131308845Y-113598093D01*
X131240572Y-113583241D01*
X131225694Y-113573679D01*
X131199688Y-113554211D01*
X131163887Y-113506387D01*
X131150000Y-113492500D01*
X131102165Y-113492500D01*
X131065598Y-113496431D01*
X131039092Y-113496431D01*
X130997873Y-113492000D01*
X130302132Y-113492000D01*
X130302117Y-113492001D01*
X130260904Y-113496431D01*
X130234402Y-113496431D01*
X130197834Y-113492500D01*
X130100000Y-113492500D01*
X130099948Y-113492551D01*
X130080315Y-113559414D01*
X130050312Y-113591641D01*
X129992452Y-113634955D01*
X129906206Y-113750164D01*
X129906202Y-113750171D01*
X129855908Y-113885017D01*
X129849501Y-113944616D01*
X129849501Y-113944623D01*
X129849500Y-113944635D01*
X129849500Y-114438500D01*
X129846949Y-114447185D01*
X129848238Y-114456147D01*
X129837259Y-114480187D01*
X129829815Y-114505539D01*
X129822974Y-114511466D01*
X129819213Y-114519703D01*
X129796978Y-114533992D01*
X129777011Y-114551294D01*
X129766496Y-114553581D01*
X129760435Y-114557477D01*
X129725500Y-114562500D01*
X129724000Y-114562500D01*
X129656961Y-114542815D01*
X129611206Y-114490011D01*
X129600000Y-114438500D01*
X129600000Y-113492500D01*
X129502155Y-113492500D01*
X129442627Y-113498901D01*
X129442620Y-113498903D01*
X129307913Y-113549145D01*
X129307906Y-113549149D01*
X129192812Y-113635309D01*
X129192808Y-113635313D01*
X129180426Y-113651853D01*
X129124491Y-113693722D01*
X129054799Y-113698703D01*
X129033711Y-113692100D01*
X129002098Y-113679006D01*
X129002100Y-113679006D01*
X128975000Y-113673615D01*
X128975000Y-114425511D01*
X128965060Y-114408295D01*
X128909205Y-114352440D01*
X128840796Y-114312944D01*
X128764496Y-114292500D01*
X128685504Y-114292500D01*
X128609204Y-114312944D01*
X128540795Y-114352440D01*
X128484940Y-114408295D01*
X128475000Y-114425511D01*
X128475000Y-113673616D01*
X128474999Y-113673615D01*
X128447899Y-113679006D01*
X128447896Y-113679007D01*
X128275008Y-113750619D01*
X128274999Y-113750624D01*
X128119410Y-113854586D01*
X128119406Y-113854589D01*
X127987089Y-113986906D01*
X127987086Y-113986910D01*
X127883124Y-114142499D01*
X127883119Y-114142508D01*
X127811508Y-114315394D01*
X127811506Y-114315402D01*
X127775000Y-114498928D01*
X127775000Y-114892500D01*
X128425000Y-114892500D01*
X128425000Y-115392500D01*
X127775000Y-115392500D01*
X127775000Y-115786071D01*
X127811506Y-115969597D01*
X127811508Y-115969605D01*
X127883119Y-116142491D01*
X127883124Y-116142500D01*
X127987086Y-116298089D01*
X127987089Y-116298093D01*
X128119406Y-116430410D01*
X128119410Y-116430413D01*
X128274999Y-116534375D01*
X128275012Y-116534382D01*
X128447889Y-116605989D01*
X128447896Y-116605991D01*
X128475000Y-116611382D01*
X128475000Y-115859488D01*
X128484940Y-115876705D01*
X128540795Y-115932560D01*
X128609204Y-115972056D01*
X128685504Y-115992500D01*
X128764496Y-115992500D01*
X128840796Y-115972056D01*
X128909205Y-115932560D01*
X128965060Y-115876705D01*
X128975000Y-115859488D01*
X128975000Y-116611381D01*
X129002103Y-116605991D01*
X129002110Y-116605989D01*
X129174987Y-116534382D01*
X129175000Y-116534375D01*
X129330589Y-116430413D01*
X129330593Y-116430410D01*
X129462910Y-116298093D01*
X129462913Y-116298089D01*
X129566875Y-116142500D01*
X129566879Y-116142493D01*
X129590930Y-116084427D01*
X129634770Y-116030023D01*
X129701064Y-116007957D01*
X129768764Y-116025235D01*
X129793173Y-116044197D01*
X129821985Y-116073009D01*
X129821986Y-116073010D01*
X129821988Y-116073011D01*
X129947511Y-116145482D01*
X129947512Y-116145482D01*
X129947515Y-116145484D01*
X130087525Y-116183000D01*
X130087528Y-116183000D01*
X130232472Y-116183000D01*
X130232475Y-116183000D01*
X130372485Y-116145484D01*
X130498015Y-116073009D01*
X130600509Y-115970515D01*
X130672984Y-115844985D01*
X130705160Y-115724902D01*
X130718950Y-115702279D01*
X130729409Y-115677935D01*
X130736851Y-115672910D01*
X130741524Y-115665245D01*
X130765357Y-115653667D01*
X130787319Y-115638842D01*
X130799900Y-115636887D01*
X130804371Y-115634716D01*
X130822131Y-115633031D01*
X130823546Y-115632999D01*
X130997872Y-115632999D01*
X131044306Y-115628007D01*
X131049546Y-115627889D01*
X131052068Y-115628568D01*
X131065606Y-115628568D01*
X131102166Y-115632499D01*
X131102182Y-115632500D01*
X131150000Y-115632500D01*
X131165611Y-115616888D01*
X131169685Y-115603015D01*
X131173581Y-115598829D01*
X131174732Y-115595745D01*
X131199686Y-115570789D01*
X131225689Y-115551323D01*
X131291152Y-115526906D01*
X131359425Y-115541757D01*
X131374305Y-115551320D01*
X131400312Y-115570789D01*
X131436108Y-115618608D01*
X131450000Y-115632500D01*
X131497819Y-115632500D01*
X131497833Y-115632499D01*
X131534395Y-115628568D01*
X131551229Y-115627909D01*
X131556077Y-115628048D01*
X131602127Y-115633000D01*
X131727611Y-115632999D01*
X131729401Y-115633051D01*
X131760980Y-115643321D01*
X131792863Y-115652683D01*
X131794256Y-115654144D01*
X131795845Y-115654661D01*
X131802416Y-115662702D01*
X131833210Y-115694998D01*
X131835479Y-115698928D01*
X131835485Y-115698936D01*
X131945748Y-115809199D01*
X131979233Y-115870522D01*
X131974249Y-115940214D01*
X131972628Y-115944332D01*
X131934106Y-116037332D01*
X131934103Y-116037341D01*
X131899500Y-116211304D01*
X131899500Y-116388695D01*
X131934103Y-116562658D01*
X131934106Y-116562667D01*
X132001983Y-116726540D01*
X132001990Y-116726553D01*
X132100535Y-116874034D01*
X132100538Y-116874038D01*
X132225961Y-116999461D01*
X132225965Y-116999464D01*
X132373446Y-117098009D01*
X132373459Y-117098016D01*
X132496363Y-117148923D01*
X132537334Y-117165894D01*
X132537336Y-117165894D01*
X132537341Y-117165896D01*
X132711304Y-117200499D01*
X132711307Y-117200500D01*
X132711309Y-117200500D01*
X132888693Y-117200500D01*
X132888694Y-117200499D01*
X132946682Y-117188964D01*
X133062658Y-117165896D01*
X133062661Y-117165894D01*
X133062666Y-117165894D01*
X133226547Y-117098013D01*
X133374035Y-116999464D01*
X133499464Y-116874035D01*
X133598013Y-116726547D01*
X133665894Y-116562666D01*
X133669903Y-116542515D01*
X133692201Y-116430413D01*
X133700500Y-116388691D01*
X133700500Y-116211309D01*
X133700500Y-116211306D01*
X133700499Y-116211304D01*
X133665896Y-116037341D01*
X133665893Y-116037332D01*
X133637840Y-115969605D01*
X133627370Y-115944329D01*
X133625415Y-115926143D01*
X133618545Y-115909191D01*
X133621758Y-115892128D01*
X133619902Y-115874862D01*
X133628091Y-115858502D01*
X133631476Y-115840529D01*
X133649498Y-115815736D01*
X133651177Y-115812383D01*
X133651826Y-115811692D01*
X133652997Y-115810452D01*
X133764515Y-115698936D01*
X133774068Y-115682389D01*
X133784069Y-115671812D01*
X133802180Y-115661252D01*
X133817354Y-115646784D01*
X133833865Y-115642778D01*
X133844428Y-115636620D01*
X133857001Y-115637165D01*
X133874175Y-115632999D01*
X133997870Y-115632999D01*
X133997872Y-115632999D01*
X134006711Y-115632048D01*
X134039094Y-115628568D01*
X134065606Y-115628568D01*
X134102166Y-115632499D01*
X134102182Y-115632500D01*
X134150000Y-115632500D01*
X134165611Y-115616888D01*
X134169685Y-115603015D01*
X134173581Y-115598829D01*
X134174732Y-115595745D01*
X134199686Y-115570789D01*
X134225689Y-115551323D01*
X134291152Y-115526906D01*
X134359425Y-115541757D01*
X134374305Y-115551320D01*
X134400312Y-115570789D01*
X134436108Y-115618608D01*
X134450000Y-115632500D01*
X134497819Y-115632500D01*
X134497833Y-115632499D01*
X134534395Y-115628568D01*
X134560905Y-115628568D01*
X134602127Y-115633000D01*
X134997872Y-115632999D01*
X134997873Y-115632998D01*
X134997885Y-115632998D01*
X135036744Y-115628820D01*
X135052695Y-115628138D01*
X135057976Y-115628252D01*
X135102127Y-115633000D01*
X135276443Y-115632999D01*
X135277760Y-115633028D01*
X135309842Y-115643210D01*
X135342105Y-115652683D01*
X135343021Y-115653740D01*
X135344356Y-115654164D01*
X135365838Y-115680073D01*
X135387860Y-115705487D01*
X135388586Y-115707508D01*
X135388953Y-115707950D01*
X135389059Y-115708822D01*
X135394838Y-115724897D01*
X135419179Y-115815736D01*
X135427017Y-115844988D01*
X135499488Y-115970511D01*
X135499490Y-115970513D01*
X135499491Y-115970515D01*
X135601985Y-116073009D01*
X135601986Y-116073010D01*
X135601988Y-116073011D01*
X135727511Y-116145482D01*
X135727512Y-116145482D01*
X135727515Y-116145484D01*
X135867525Y-116183000D01*
X135867528Y-116183000D01*
X136012472Y-116183000D01*
X136012475Y-116183000D01*
X136152485Y-116145484D01*
X136278015Y-116073009D01*
X136306828Y-116044195D01*
X136368147Y-116010712D01*
X136437839Y-116015696D01*
X136493773Y-116057566D01*
X136509068Y-116084426D01*
X136533117Y-116142487D01*
X136533124Y-116142500D01*
X136637086Y-116298089D01*
X136637089Y-116298093D01*
X136769406Y-116430410D01*
X136769410Y-116430413D01*
X136924999Y-116534375D01*
X136925012Y-116534382D01*
X137097889Y-116605989D01*
X137097896Y-116605991D01*
X137125000Y-116611382D01*
X137125000Y-115859488D01*
X137134940Y-115876705D01*
X137190795Y-115932560D01*
X137259204Y-115972056D01*
X137335504Y-115992500D01*
X137414496Y-115992500D01*
X137490796Y-115972056D01*
X137559205Y-115932560D01*
X137615060Y-115876705D01*
X137625000Y-115859488D01*
X137625000Y-116611381D01*
X137652103Y-116605991D01*
X137652110Y-116605989D01*
X137824987Y-116534382D01*
X137825000Y-116534375D01*
X137980589Y-116430413D01*
X137980593Y-116430410D01*
X138112910Y-116298093D01*
X138112913Y-116298089D01*
X138216875Y-116142500D01*
X138216880Y-116142491D01*
X138288491Y-115969605D01*
X138288493Y-115969597D01*
X138324999Y-115786071D01*
X138325000Y-115786069D01*
X138325000Y-115392500D01*
X137675000Y-115392500D01*
X137675000Y-114892500D01*
X138325000Y-114892500D01*
X138325000Y-114498930D01*
X138324999Y-114498928D01*
X138288493Y-114315402D01*
X138288491Y-114315394D01*
X138216880Y-114142508D01*
X138216875Y-114142499D01*
X138112913Y-113986910D01*
X138112910Y-113986906D01*
X137980593Y-113854589D01*
X137980589Y-113854586D01*
X137825000Y-113750624D01*
X137824991Y-113750619D01*
X137652103Y-113679007D01*
X137652100Y-113679006D01*
X137625000Y-113673615D01*
X137625000Y-114425511D01*
X137615060Y-114408295D01*
X137559205Y-114352440D01*
X137490796Y-114312944D01*
X137414496Y-114292500D01*
X137335504Y-114292500D01*
X137259204Y-114312944D01*
X137190795Y-114352440D01*
X137134940Y-114408295D01*
X137125000Y-114425511D01*
X137125000Y-113720431D01*
X136998932Y-113699930D01*
X136997925Y-113699447D01*
X136996817Y-113699567D01*
X136966502Y-113684392D01*
X136935922Y-113669740D01*
X136935336Y-113668790D01*
X136934338Y-113668291D01*
X136919569Y-113651848D01*
X136907193Y-113635315D01*
X136907185Y-113635308D01*
X136792093Y-113549149D01*
X136792086Y-113549145D01*
X136657379Y-113498903D01*
X136657372Y-113498901D01*
X136597844Y-113492500D01*
X136500000Y-113492500D01*
X136500000Y-114438500D01*
X136497449Y-114447185D01*
X136498738Y-114456147D01*
X136487759Y-114480187D01*
X136480315Y-114505539D01*
X136473474Y-114511466D01*
X136469713Y-114519703D01*
X136447478Y-114533992D01*
X136427511Y-114551294D01*
X136416996Y-114553581D01*
X136410935Y-114557477D01*
X136376000Y-114562500D01*
X136374499Y-114562500D01*
X136307460Y-114542815D01*
X136261705Y-114490011D01*
X136250499Y-114438500D01*
X136250499Y-113944629D01*
X136250498Y-113944623D01*
X136250497Y-113944616D01*
X136244091Y-113885017D01*
X136240886Y-113876425D01*
X136193797Y-113750171D01*
X136193793Y-113750164D01*
X136107547Y-113634955D01*
X136049688Y-113591641D01*
X136007818Y-113535707D01*
X136000027Y-113492527D01*
X136000000Y-113492500D01*
X135902165Y-113492500D01*
X135865598Y-113496431D01*
X135839092Y-113496431D01*
X135797873Y-113492000D01*
X135102130Y-113492000D01*
X135102119Y-113492001D01*
X135063253Y-113496179D01*
X135046472Y-113496839D01*
X135041591Y-113496700D01*
X134997873Y-113492000D01*
X134876547Y-113492000D01*
X134874781Y-113491950D01*
X134843147Y-113481674D01*
X134811272Y-113472315D01*
X134810073Y-113470931D01*
X134808329Y-113470365D01*
X134787265Y-113444610D01*
X134765517Y-113419511D01*
X134765256Y-113417698D01*
X134764096Y-113416280D01*
X134760302Y-113383247D01*
X134755573Y-113350353D01*
X134756334Y-113348686D01*
X134756125Y-113346866D01*
X134770791Y-113317029D01*
X134784598Y-113286797D01*
X134786831Y-113284398D01*
X134786947Y-113284163D01*
X134787183Y-113284020D01*
X134790613Y-113280337D01*
X135444516Y-112626435D01*
X135453249Y-112611309D01*
X135520940Y-112494065D01*
X135554668Y-112368189D01*
X135560500Y-112346425D01*
X135560500Y-112193575D01*
X135560500Y-112110344D01*
X136900000Y-112110344D01*
X136906401Y-112169872D01*
X136906403Y-112169879D01*
X136956645Y-112304586D01*
X136956649Y-112304593D01*
X137042809Y-112419687D01*
X137042812Y-112419690D01*
X137157906Y-112505850D01*
X137157913Y-112505854D01*
X137292620Y-112556096D01*
X137292627Y-112556098D01*
X137352155Y-112562499D01*
X137352172Y-112562500D01*
X138800000Y-112562500D01*
X139300000Y-112562500D01*
X140747828Y-112562500D01*
X140747844Y-112562499D01*
X140807372Y-112556098D01*
X140807379Y-112556096D01*
X140942086Y-112505854D01*
X140942093Y-112505850D01*
X141057187Y-112419690D01*
X141057190Y-112419687D01*
X141143350Y-112304593D01*
X141143354Y-112304586D01*
X141193596Y-112169879D01*
X141193598Y-112169872D01*
X141199999Y-112110344D01*
X141200000Y-112110327D01*
X141200000Y-111562500D01*
X139300000Y-111562500D01*
X139300000Y-112562500D01*
X138800000Y-112562500D01*
X138800000Y-111562500D01*
X136900000Y-111562500D01*
X136900000Y-112110344D01*
X135560500Y-112110344D01*
X135560500Y-111124000D01*
X135580185Y-111056961D01*
X135632989Y-111011206D01*
X135684500Y-111000000D01*
X136786138Y-111000000D01*
X136853177Y-111019685D01*
X136873819Y-111036319D01*
X136900000Y-111062500D01*
X141200000Y-111062500D01*
X141226181Y-111036319D01*
X141287504Y-111002834D01*
X141313862Y-111000000D01*
X142295500Y-111000000D01*
X142362539Y-111019685D01*
X142408294Y-111072489D01*
X142419500Y-111124000D01*
X142419500Y-112298924D01*
X142459060Y-112446565D01*
X142535484Y-112578935D01*
X142535485Y-112578936D01*
X142535486Y-112578937D01*
X143237368Y-113280819D01*
X143246601Y-113297729D01*
X143259900Y-113311675D01*
X143263001Y-113327762D01*
X143270853Y-113342142D01*
X143269478Y-113361361D01*
X143273126Y-113380282D01*
X143267037Y-113395491D01*
X143265869Y-113411834D01*
X143254321Y-113427258D01*
X143247161Y-113445148D01*
X143233814Y-113454652D01*
X143223997Y-113467767D01*
X143205943Y-113474500D01*
X143190248Y-113485678D01*
X143164254Y-113490049D01*
X143158533Y-113492184D01*
X143155592Y-113492359D01*
X143058251Y-113497000D01*
X143055905Y-113496431D01*
X143039092Y-113496431D01*
X142997873Y-113492000D01*
X142302132Y-113492000D01*
X142302117Y-113492001D01*
X142260904Y-113496431D01*
X142234402Y-113496431D01*
X142197834Y-113492500D01*
X142100000Y-113492500D01*
X142099948Y-113492551D01*
X142080315Y-113559414D01*
X142050312Y-113591641D01*
X141992452Y-113634955D01*
X141906206Y-113750164D01*
X141906202Y-113750171D01*
X141855908Y-113885017D01*
X141849501Y-113944616D01*
X141849501Y-113944623D01*
X141849500Y-113944635D01*
X141849500Y-114438500D01*
X141846949Y-114447185D01*
X141848238Y-114456147D01*
X141837259Y-114480187D01*
X141829815Y-114505539D01*
X141822974Y-114511466D01*
X141819213Y-114519703D01*
X141796978Y-114533992D01*
X141777011Y-114551294D01*
X141766496Y-114553581D01*
X141760435Y-114557477D01*
X141725500Y-114562500D01*
X141724000Y-114562500D01*
X141656961Y-114542815D01*
X141611206Y-114490011D01*
X141600000Y-114438500D01*
X141600000Y-113492500D01*
X141502155Y-113492500D01*
X141442627Y-113498901D01*
X141442620Y-113498903D01*
X141307913Y-113549145D01*
X141307906Y-113549149D01*
X141192812Y-113635309D01*
X141192808Y-113635313D01*
X141180426Y-113651853D01*
X141124491Y-113693722D01*
X141054799Y-113698703D01*
X141033711Y-113692100D01*
X141002098Y-113679006D01*
X141002100Y-113679006D01*
X140975000Y-113673615D01*
X140975000Y-114425511D01*
X140965060Y-114408295D01*
X140909205Y-114352440D01*
X140840796Y-114312944D01*
X140764496Y-114292500D01*
X140685504Y-114292500D01*
X140609204Y-114312944D01*
X140540795Y-114352440D01*
X140484940Y-114408295D01*
X140475000Y-114425511D01*
X140475000Y-113673616D01*
X140474999Y-113673615D01*
X140447899Y-113679006D01*
X140447896Y-113679007D01*
X140275008Y-113750619D01*
X140274999Y-113750624D01*
X140119410Y-113854586D01*
X140119406Y-113854589D01*
X139987089Y-113986906D01*
X139987086Y-113986910D01*
X139883124Y-114142499D01*
X139883119Y-114142508D01*
X139811508Y-114315394D01*
X139811506Y-114315402D01*
X139775000Y-114498928D01*
X139775000Y-114892500D01*
X140425000Y-114892500D01*
X140425000Y-115392500D01*
X139775000Y-115392500D01*
X139775000Y-115786071D01*
X139811506Y-115969597D01*
X139811508Y-115969605D01*
X139883119Y-116142491D01*
X139883124Y-116142500D01*
X139987086Y-116298089D01*
X139987089Y-116298093D01*
X140119406Y-116430410D01*
X140119410Y-116430413D01*
X140274999Y-116534375D01*
X140275012Y-116534382D01*
X140447889Y-116605989D01*
X140447896Y-116605991D01*
X140475000Y-116611382D01*
X140475000Y-115859488D01*
X140484940Y-115876705D01*
X140540795Y-115932560D01*
X140609204Y-115972056D01*
X140685504Y-115992500D01*
X140764496Y-115992500D01*
X140840796Y-115972056D01*
X140909205Y-115932560D01*
X140965060Y-115876705D01*
X140975000Y-115859488D01*
X140975000Y-116611381D01*
X141002103Y-116605991D01*
X141002110Y-116605989D01*
X141174987Y-116534382D01*
X141175000Y-116534375D01*
X141330589Y-116430413D01*
X141330593Y-116430410D01*
X141462910Y-116298093D01*
X141462913Y-116298089D01*
X141566875Y-116142500D01*
X141566879Y-116142493D01*
X141590930Y-116084427D01*
X141634770Y-116030023D01*
X141701064Y-116007957D01*
X141768764Y-116025235D01*
X141793173Y-116044197D01*
X141821985Y-116073009D01*
X141821986Y-116073010D01*
X141821988Y-116073011D01*
X141947511Y-116145482D01*
X141947512Y-116145482D01*
X141947515Y-116145484D01*
X142087525Y-116183000D01*
X142087528Y-116183000D01*
X142232472Y-116183000D01*
X142232475Y-116183000D01*
X142372485Y-116145484D01*
X142498015Y-116073009D01*
X142600509Y-115970515D01*
X142672984Y-115844985D01*
X142705160Y-115724902D01*
X142718950Y-115702279D01*
X142729409Y-115677935D01*
X142736851Y-115672910D01*
X142741524Y-115665245D01*
X142765357Y-115653667D01*
X142787319Y-115638842D01*
X142799900Y-115636887D01*
X142804371Y-115634716D01*
X142822131Y-115633031D01*
X142823546Y-115632999D01*
X142997872Y-115632999D01*
X143044306Y-115628007D01*
X143049546Y-115627889D01*
X143052068Y-115628568D01*
X143065606Y-115628568D01*
X143102166Y-115632499D01*
X143102182Y-115632500D01*
X143150000Y-115632500D01*
X143165611Y-115616888D01*
X143169685Y-115603015D01*
X143173581Y-115598829D01*
X143174732Y-115595745D01*
X143199686Y-115570789D01*
X143225689Y-115551323D01*
X143291152Y-115526906D01*
X143359425Y-115541757D01*
X143374305Y-115551320D01*
X143400312Y-115570789D01*
X143436108Y-115618608D01*
X143450000Y-115632500D01*
X143497819Y-115632500D01*
X143497833Y-115632499D01*
X143534395Y-115628568D01*
X143551229Y-115627909D01*
X143556077Y-115628048D01*
X143602127Y-115633000D01*
X143727611Y-115632999D01*
X143729401Y-115633051D01*
X143760980Y-115643321D01*
X143792863Y-115652683D01*
X143794256Y-115654144D01*
X143795845Y-115654661D01*
X143802416Y-115662702D01*
X143833210Y-115694998D01*
X143835479Y-115698928D01*
X143835485Y-115698936D01*
X143945748Y-115809199D01*
X143979233Y-115870522D01*
X143974249Y-115940214D01*
X143972628Y-115944332D01*
X143934106Y-116037332D01*
X143934103Y-116037341D01*
X143899500Y-116211304D01*
X143899500Y-116388695D01*
X143934103Y-116562658D01*
X143934106Y-116562667D01*
X144001983Y-116726540D01*
X144001990Y-116726553D01*
X144100535Y-116874034D01*
X144100538Y-116874038D01*
X144225961Y-116999461D01*
X144225965Y-116999464D01*
X144373446Y-117098009D01*
X144373459Y-117098016D01*
X144496363Y-117148923D01*
X144537334Y-117165894D01*
X144537336Y-117165894D01*
X144537341Y-117165896D01*
X144711304Y-117200499D01*
X144711307Y-117200500D01*
X144711309Y-117200500D01*
X144888693Y-117200500D01*
X144888694Y-117200499D01*
X144946682Y-117188964D01*
X145062658Y-117165896D01*
X145062661Y-117165894D01*
X145062666Y-117165894D01*
X145226547Y-117098013D01*
X145374035Y-116999464D01*
X145499464Y-116874035D01*
X145598013Y-116726547D01*
X145665894Y-116562666D01*
X145669903Y-116542515D01*
X145692201Y-116430413D01*
X145700500Y-116388691D01*
X145700500Y-116211309D01*
X145700500Y-116211306D01*
X145700499Y-116211304D01*
X145665896Y-116037341D01*
X145665893Y-116037332D01*
X145637840Y-115969605D01*
X145627370Y-115944329D01*
X145625415Y-115926143D01*
X145618545Y-115909191D01*
X145621758Y-115892128D01*
X145619902Y-115874862D01*
X145628091Y-115858502D01*
X145631476Y-115840529D01*
X145649498Y-115815736D01*
X145651177Y-115812383D01*
X145651826Y-115811692D01*
X145652997Y-115810452D01*
X145764515Y-115698936D01*
X145774068Y-115682389D01*
X145784069Y-115671812D01*
X145802180Y-115661252D01*
X145817354Y-115646784D01*
X145833865Y-115642778D01*
X145844428Y-115636620D01*
X145857001Y-115637165D01*
X145874175Y-115632999D01*
X145997870Y-115632999D01*
X145997872Y-115632999D01*
X146006711Y-115632048D01*
X146039094Y-115628568D01*
X146065606Y-115628568D01*
X146102166Y-115632499D01*
X146102182Y-115632500D01*
X146150000Y-115632500D01*
X146165611Y-115616888D01*
X146169685Y-115603015D01*
X146173581Y-115598829D01*
X146174732Y-115595745D01*
X146199686Y-115570789D01*
X146225689Y-115551323D01*
X146291152Y-115526906D01*
X146359425Y-115541757D01*
X146374305Y-115551320D01*
X146400312Y-115570789D01*
X146436108Y-115618608D01*
X146450000Y-115632500D01*
X146497819Y-115632500D01*
X146497833Y-115632499D01*
X146534395Y-115628568D01*
X146560905Y-115628568D01*
X146602127Y-115633000D01*
X146997872Y-115632999D01*
X146997873Y-115632998D01*
X146997885Y-115632998D01*
X147036744Y-115628820D01*
X147052695Y-115628138D01*
X147057976Y-115628252D01*
X147102127Y-115633000D01*
X147276443Y-115632999D01*
X147277760Y-115633028D01*
X147309842Y-115643210D01*
X147342105Y-115652683D01*
X147343021Y-115653740D01*
X147344356Y-115654164D01*
X147365838Y-115680073D01*
X147387860Y-115705487D01*
X147388586Y-115707508D01*
X147388953Y-115707950D01*
X147389059Y-115708822D01*
X147394838Y-115724897D01*
X147419179Y-115815736D01*
X147427017Y-115844988D01*
X147499488Y-115970511D01*
X147499490Y-115970513D01*
X147499491Y-115970515D01*
X147601985Y-116073009D01*
X147601986Y-116073010D01*
X147601988Y-116073011D01*
X147727511Y-116145482D01*
X147727512Y-116145482D01*
X147727515Y-116145484D01*
X147867525Y-116183000D01*
X147867528Y-116183000D01*
X148012472Y-116183000D01*
X148012475Y-116183000D01*
X148152485Y-116145484D01*
X148278015Y-116073009D01*
X148306828Y-116044195D01*
X148368147Y-116010712D01*
X148437839Y-116015696D01*
X148493773Y-116057566D01*
X148509068Y-116084426D01*
X148533117Y-116142487D01*
X148533124Y-116142500D01*
X148637086Y-116298089D01*
X148637089Y-116298093D01*
X148769406Y-116430410D01*
X148769410Y-116430413D01*
X148924999Y-116534375D01*
X148925012Y-116534382D01*
X149097889Y-116605989D01*
X149097896Y-116605991D01*
X149125000Y-116611382D01*
X149125000Y-115859488D01*
X149134940Y-115876705D01*
X149190795Y-115932560D01*
X149259204Y-115972056D01*
X149335504Y-115992500D01*
X149414496Y-115992500D01*
X149490796Y-115972056D01*
X149559205Y-115932560D01*
X149615060Y-115876705D01*
X149625000Y-115859488D01*
X149625000Y-116611381D01*
X149652103Y-116605991D01*
X149652110Y-116605989D01*
X149824987Y-116534382D01*
X149824994Y-116534378D01*
X149907108Y-116479511D01*
X149973786Y-116458633D01*
X150041166Y-116477117D01*
X150087856Y-116529095D01*
X150100000Y-116582613D01*
X150100000Y-118022386D01*
X150080315Y-118089425D01*
X150027511Y-118135180D01*
X149958353Y-118145124D01*
X149907109Y-118125488D01*
X149825000Y-118070624D01*
X149824991Y-118070619D01*
X149652103Y-117999007D01*
X149652100Y-117999006D01*
X149625000Y-117993615D01*
X149625000Y-118745511D01*
X149615060Y-118728295D01*
X149559205Y-118672440D01*
X149490796Y-118632944D01*
X149414496Y-118612500D01*
X149335504Y-118612500D01*
X149259204Y-118632944D01*
X149190795Y-118672440D01*
X149134940Y-118728295D01*
X149125000Y-118745511D01*
X149125000Y-117993616D01*
X149124999Y-117993615D01*
X149097899Y-117999006D01*
X149097896Y-117999007D01*
X148925008Y-118070619D01*
X148924999Y-118070624D01*
X148769410Y-118174586D01*
X148769406Y-118174589D01*
X148637089Y-118306906D01*
X148637086Y-118306910D01*
X148533124Y-118462499D01*
X148533119Y-118462508D01*
X148461508Y-118635394D01*
X148461506Y-118635402D01*
X148425000Y-118818928D01*
X148425000Y-119062500D01*
X149075000Y-119062500D01*
X149075000Y-119562500D01*
X148425000Y-119562500D01*
X148425000Y-119806071D01*
X148461506Y-119989597D01*
X148461508Y-119989605D01*
X148533119Y-120162491D01*
X148533124Y-120162500D01*
X148637086Y-120318089D01*
X148637089Y-120318093D01*
X148769406Y-120450410D01*
X148769410Y-120450413D01*
X148924999Y-120554375D01*
X148925012Y-120554382D01*
X149097889Y-120625989D01*
X149097896Y-120625991D01*
X149125000Y-120631382D01*
X149125000Y-119879488D01*
X149134940Y-119896705D01*
X149190795Y-119952560D01*
X149259204Y-119992056D01*
X149335504Y-120012500D01*
X149414496Y-120012500D01*
X149490796Y-119992056D01*
X149559205Y-119952560D01*
X149615060Y-119896705D01*
X149625000Y-119879488D01*
X149625000Y-120631382D01*
X149652103Y-120625991D01*
X149652110Y-120625989D01*
X149824987Y-120554382D01*
X149824994Y-120554378D01*
X149907108Y-120499511D01*
X149973786Y-120478633D01*
X150041166Y-120497117D01*
X150087856Y-120549095D01*
X150100000Y-120602613D01*
X150100000Y-121195500D01*
X150080315Y-121262539D01*
X150027511Y-121308294D01*
X149976000Y-121319500D01*
X104124000Y-121319500D01*
X104056961Y-121299815D01*
X104011206Y-121247011D01*
X104000000Y-121195500D01*
X104000000Y-120602613D01*
X104019685Y-120535574D01*
X104072489Y-120489819D01*
X104141647Y-120479875D01*
X104192892Y-120499511D01*
X104275005Y-120554378D01*
X104275012Y-120554382D01*
X104447889Y-120625989D01*
X104447896Y-120625991D01*
X104475000Y-120631382D01*
X104475000Y-119879488D01*
X104484940Y-119896705D01*
X104540795Y-119952560D01*
X104609204Y-119992056D01*
X104685504Y-120012500D01*
X104764496Y-120012500D01*
X104840796Y-119992056D01*
X104909205Y-119952560D01*
X104965060Y-119896705D01*
X104975000Y-119879488D01*
X104975000Y-120631382D01*
X105002103Y-120625991D01*
X105002110Y-120625989D01*
X105174987Y-120554382D01*
X105175000Y-120554375D01*
X105330589Y-120450413D01*
X105330593Y-120450410D01*
X105462910Y-120318093D01*
X105462913Y-120318089D01*
X105566875Y-120162500D01*
X105566880Y-120162491D01*
X105638491Y-119989605D01*
X105638493Y-119989597D01*
X105674999Y-119806071D01*
X105675000Y-119806069D01*
X105675000Y-119562500D01*
X105025000Y-119562500D01*
X105025000Y-119062500D01*
X105675000Y-119062500D01*
X105675000Y-118818930D01*
X105674999Y-118818928D01*
X112425000Y-118818928D01*
X112425000Y-119062500D01*
X113075000Y-119062500D01*
X113075000Y-119562500D01*
X112425000Y-119562500D01*
X112425000Y-119806071D01*
X112461506Y-119989597D01*
X112461508Y-119989605D01*
X112533119Y-120162491D01*
X112533124Y-120162500D01*
X112637086Y-120318089D01*
X112637089Y-120318093D01*
X112769406Y-120450410D01*
X112769410Y-120450413D01*
X112924999Y-120554375D01*
X112925012Y-120554382D01*
X113097889Y-120625989D01*
X113097896Y-120625991D01*
X113125000Y-120631382D01*
X113125000Y-119879488D01*
X113134940Y-119896705D01*
X113190795Y-119952560D01*
X113259204Y-119992056D01*
X113335504Y-120012500D01*
X113414496Y-120012500D01*
X113490796Y-119992056D01*
X113559205Y-119952560D01*
X113615060Y-119896705D01*
X113625000Y-119879488D01*
X113625000Y-120631381D01*
X113652103Y-120625991D01*
X113652110Y-120625989D01*
X113824987Y-120554382D01*
X113825000Y-120554375D01*
X113980589Y-120450413D01*
X113980593Y-120450410D01*
X114112910Y-120318093D01*
X114112913Y-120318089D01*
X114216875Y-120162500D01*
X114216880Y-120162491D01*
X114288491Y-119989605D01*
X114288493Y-119989597D01*
X114324999Y-119806071D01*
X114325000Y-119806069D01*
X114325000Y-119562500D01*
X113675000Y-119562500D01*
X113675000Y-119062500D01*
X114325000Y-119062500D01*
X114325000Y-118818930D01*
X114324999Y-118818928D01*
X115775000Y-118818928D01*
X115775000Y-119062500D01*
X116425000Y-119062500D01*
X116425000Y-119562500D01*
X115775000Y-119562500D01*
X115775000Y-119806071D01*
X115811506Y-119989597D01*
X115811508Y-119989605D01*
X115883119Y-120162491D01*
X115883124Y-120162500D01*
X115987086Y-120318089D01*
X115987089Y-120318093D01*
X116119406Y-120450410D01*
X116119410Y-120450413D01*
X116274999Y-120554375D01*
X116275012Y-120554382D01*
X116447889Y-120625989D01*
X116447896Y-120625991D01*
X116475000Y-120631382D01*
X116475000Y-119879488D01*
X116484940Y-119896705D01*
X116540795Y-119952560D01*
X116609204Y-119992056D01*
X116685504Y-120012500D01*
X116764496Y-120012500D01*
X116840796Y-119992056D01*
X116909205Y-119952560D01*
X116965060Y-119896705D01*
X116975000Y-119879488D01*
X116975000Y-120631382D01*
X117002103Y-120625991D01*
X117002110Y-120625989D01*
X117174987Y-120554382D01*
X117175000Y-120554375D01*
X117330589Y-120450413D01*
X117330593Y-120450410D01*
X117462910Y-120318093D01*
X117462913Y-120318089D01*
X117566875Y-120162500D01*
X117566880Y-120162491D01*
X117638491Y-119989605D01*
X117638493Y-119989597D01*
X117674999Y-119806071D01*
X117675000Y-119806069D01*
X117675000Y-119562500D01*
X117025000Y-119562500D01*
X117025000Y-119062500D01*
X117675000Y-119062500D01*
X117675000Y-118818930D01*
X117674999Y-118818928D01*
X124425000Y-118818928D01*
X124425000Y-119062500D01*
X125075000Y-119062500D01*
X125075000Y-119562500D01*
X124425000Y-119562500D01*
X124425000Y-119806071D01*
X124461506Y-119989597D01*
X124461508Y-119989605D01*
X124533119Y-120162491D01*
X124533124Y-120162500D01*
X124637086Y-120318089D01*
X124637089Y-120318093D01*
X124769406Y-120450410D01*
X124769410Y-120450413D01*
X124924999Y-120554375D01*
X124925012Y-120554382D01*
X125097889Y-120625989D01*
X125097896Y-120625991D01*
X125125000Y-120631382D01*
X125125000Y-119879488D01*
X125134940Y-119896705D01*
X125190795Y-119952560D01*
X125259204Y-119992056D01*
X125335504Y-120012500D01*
X125414496Y-120012500D01*
X125490796Y-119992056D01*
X125559205Y-119952560D01*
X125615060Y-119896705D01*
X125625000Y-119879488D01*
X125625000Y-120631381D01*
X125652103Y-120625991D01*
X125652110Y-120625989D01*
X125824987Y-120554382D01*
X125825000Y-120554375D01*
X125980589Y-120450413D01*
X125980593Y-120450410D01*
X126112910Y-120318093D01*
X126112913Y-120318089D01*
X126216875Y-120162500D01*
X126216880Y-120162491D01*
X126288491Y-119989605D01*
X126288493Y-119989597D01*
X126324999Y-119806071D01*
X126325000Y-119806069D01*
X126325000Y-119562500D01*
X125675000Y-119562500D01*
X125675000Y-119062500D01*
X126325000Y-119062500D01*
X126325000Y-118818930D01*
X126324999Y-118818928D01*
X127775000Y-118818928D01*
X127775000Y-119062500D01*
X128425000Y-119062500D01*
X128425000Y-119562500D01*
X127775000Y-119562500D01*
X127775000Y-119806071D01*
X127811506Y-119989597D01*
X127811508Y-119989605D01*
X127883119Y-120162491D01*
X127883124Y-120162500D01*
X127987086Y-120318089D01*
X127987089Y-120318093D01*
X128119406Y-120450410D01*
X128119410Y-120450413D01*
X128274999Y-120554375D01*
X128275012Y-120554382D01*
X128447889Y-120625989D01*
X128447896Y-120625991D01*
X128475000Y-120631382D01*
X128475000Y-119879488D01*
X128484940Y-119896705D01*
X128540795Y-119952560D01*
X128609204Y-119992056D01*
X128685504Y-120012500D01*
X128764496Y-120012500D01*
X128840796Y-119992056D01*
X128909205Y-119952560D01*
X128965060Y-119896705D01*
X128975000Y-119879488D01*
X128975000Y-120631382D01*
X129002103Y-120625991D01*
X129002110Y-120625989D01*
X129174987Y-120554382D01*
X129175000Y-120554375D01*
X129330589Y-120450413D01*
X129330593Y-120450410D01*
X129462910Y-120318093D01*
X129462913Y-120318089D01*
X129566875Y-120162500D01*
X129566880Y-120162491D01*
X129638491Y-119989605D01*
X129638493Y-119989597D01*
X129674999Y-119806071D01*
X129675000Y-119806069D01*
X129675000Y-119562500D01*
X129025000Y-119562500D01*
X129025000Y-119062500D01*
X129675000Y-119062500D01*
X129675000Y-118818930D01*
X129674999Y-118818928D01*
X136425000Y-118818928D01*
X136425000Y-119062500D01*
X137075000Y-119062500D01*
X137075000Y-119562500D01*
X136425000Y-119562500D01*
X136425000Y-119806071D01*
X136461506Y-119989597D01*
X136461508Y-119989605D01*
X136533119Y-120162491D01*
X136533124Y-120162500D01*
X136637086Y-120318089D01*
X136637089Y-120318093D01*
X136769406Y-120450410D01*
X136769410Y-120450413D01*
X136924999Y-120554375D01*
X136925012Y-120554382D01*
X137097889Y-120625989D01*
X137097896Y-120625991D01*
X137125000Y-120631382D01*
X137125000Y-119879488D01*
X137134940Y-119896705D01*
X137190795Y-119952560D01*
X137259204Y-119992056D01*
X137335504Y-120012500D01*
X137414496Y-120012500D01*
X137490796Y-119992056D01*
X137559205Y-119952560D01*
X137615060Y-119896705D01*
X137625000Y-119879488D01*
X137625000Y-120631382D01*
X137652103Y-120625991D01*
X137652110Y-120625989D01*
X137824987Y-120554382D01*
X137825000Y-120554375D01*
X137980589Y-120450413D01*
X137980593Y-120450410D01*
X138112910Y-120318093D01*
X138112913Y-120318089D01*
X138216875Y-120162500D01*
X138216880Y-120162491D01*
X138288491Y-119989605D01*
X138288493Y-119989597D01*
X138324999Y-119806071D01*
X138325000Y-119806069D01*
X138325000Y-119562500D01*
X137675000Y-119562500D01*
X137675000Y-119062500D01*
X138325000Y-119062500D01*
X138325000Y-118818930D01*
X138324999Y-118818928D01*
X139775000Y-118818928D01*
X139775000Y-119062500D01*
X140425000Y-119062500D01*
X140425000Y-119562500D01*
X139775000Y-119562500D01*
X139775000Y-119806071D01*
X139811506Y-119989597D01*
X139811508Y-119989605D01*
X139883119Y-120162491D01*
X139883124Y-120162500D01*
X139987086Y-120318089D01*
X139987089Y-120318093D01*
X140119406Y-120450410D01*
X140119410Y-120450413D01*
X140274999Y-120554375D01*
X140275012Y-120554382D01*
X140447889Y-120625989D01*
X140447896Y-120625991D01*
X140475000Y-120631382D01*
X140475000Y-119879488D01*
X140484940Y-119896705D01*
X140540795Y-119952560D01*
X140609204Y-119992056D01*
X140685504Y-120012500D01*
X140764496Y-120012500D01*
X140840796Y-119992056D01*
X140909205Y-119952560D01*
X140965060Y-119896705D01*
X140975000Y-119879488D01*
X140975000Y-120631382D01*
X141002103Y-120625991D01*
X141002110Y-120625989D01*
X141174987Y-120554382D01*
X141175000Y-120554375D01*
X141330589Y-120450413D01*
X141330593Y-120450410D01*
X141462910Y-120318093D01*
X141462913Y-120318089D01*
X141566875Y-120162500D01*
X141566880Y-120162491D01*
X141638491Y-119989605D01*
X141638493Y-119989597D01*
X141674999Y-119806071D01*
X141675000Y-119806069D01*
X141675000Y-119562500D01*
X141025000Y-119562500D01*
X141025000Y-119062500D01*
X141675000Y-119062500D01*
X141675000Y-118818930D01*
X141674999Y-118818928D01*
X141638493Y-118635402D01*
X141638491Y-118635394D01*
X141566880Y-118462508D01*
X141566875Y-118462499D01*
X141462913Y-118306910D01*
X141462910Y-118306906D01*
X141330593Y-118174589D01*
X141330589Y-118174586D01*
X141175000Y-118070624D01*
X141174991Y-118070619D01*
X141002103Y-117999007D01*
X141002100Y-117999006D01*
X140975000Y-117993615D01*
X140975000Y-118745511D01*
X140965060Y-118728295D01*
X140909205Y-118672440D01*
X140840796Y-118632944D01*
X140764496Y-118612500D01*
X140685504Y-118612500D01*
X140609204Y-118632944D01*
X140540795Y-118672440D01*
X140484940Y-118728295D01*
X140475000Y-118745511D01*
X140475000Y-117993616D01*
X140474999Y-117993615D01*
X140447899Y-117999006D01*
X140447896Y-117999007D01*
X140275008Y-118070619D01*
X140274999Y-118070624D01*
X140119410Y-118174586D01*
X140119406Y-118174589D01*
X139987089Y-118306906D01*
X139987086Y-118306910D01*
X139883124Y-118462499D01*
X139883119Y-118462508D01*
X139811508Y-118635394D01*
X139811506Y-118635402D01*
X139775000Y-118818928D01*
X138324999Y-118818928D01*
X138288493Y-118635402D01*
X138288491Y-118635394D01*
X138216880Y-118462508D01*
X138216875Y-118462499D01*
X138112913Y-118306910D01*
X138112910Y-118306906D01*
X137980593Y-118174589D01*
X137980589Y-118174586D01*
X137825000Y-118070624D01*
X137824991Y-118070619D01*
X137652103Y-117999007D01*
X137652100Y-117999006D01*
X137625000Y-117993615D01*
X137625000Y-118745511D01*
X137615060Y-118728295D01*
X137559205Y-118672440D01*
X137490796Y-118632944D01*
X137414496Y-118612500D01*
X137335504Y-118612500D01*
X137259204Y-118632944D01*
X137190795Y-118672440D01*
X137134940Y-118728295D01*
X137125000Y-118745511D01*
X137125000Y-117993616D01*
X137124999Y-117993615D01*
X137097899Y-117999006D01*
X137097896Y-117999007D01*
X136925008Y-118070619D01*
X136924999Y-118070624D01*
X136769410Y-118174586D01*
X136769406Y-118174589D01*
X136637089Y-118306906D01*
X136637086Y-118306910D01*
X136533124Y-118462499D01*
X136533119Y-118462508D01*
X136461508Y-118635394D01*
X136461506Y-118635402D01*
X136425000Y-118818928D01*
X129674999Y-118818928D01*
X129638493Y-118635402D01*
X129638491Y-118635394D01*
X129566880Y-118462508D01*
X129566875Y-118462499D01*
X129462913Y-118306910D01*
X129462910Y-118306906D01*
X129330593Y-118174589D01*
X129330589Y-118174586D01*
X129175000Y-118070624D01*
X129174991Y-118070619D01*
X129002103Y-117999007D01*
X129002100Y-117999006D01*
X128975000Y-117993615D01*
X128975000Y-118745511D01*
X128965060Y-118728295D01*
X128909205Y-118672440D01*
X128840796Y-118632944D01*
X128764496Y-118612500D01*
X128685504Y-118612500D01*
X128609204Y-118632944D01*
X128540795Y-118672440D01*
X128484940Y-118728295D01*
X128475000Y-118745511D01*
X128475000Y-117993616D01*
X128474999Y-117993615D01*
X128447899Y-117999006D01*
X128447896Y-117999007D01*
X128275008Y-118070619D01*
X128274999Y-118070624D01*
X128119410Y-118174586D01*
X128119406Y-118174589D01*
X127987089Y-118306906D01*
X127987086Y-118306910D01*
X127883124Y-118462499D01*
X127883119Y-118462508D01*
X127811508Y-118635394D01*
X127811506Y-118635402D01*
X127775000Y-118818928D01*
X126324999Y-118818928D01*
X126288493Y-118635402D01*
X126288491Y-118635394D01*
X126216880Y-118462508D01*
X126216875Y-118462499D01*
X126112913Y-118306910D01*
X126112910Y-118306906D01*
X125980593Y-118174589D01*
X125980589Y-118174586D01*
X125825000Y-118070624D01*
X125824991Y-118070619D01*
X125652103Y-117999007D01*
X125652100Y-117999006D01*
X125625000Y-117993615D01*
X125625000Y-118745511D01*
X125615060Y-118728295D01*
X125559205Y-118672440D01*
X125490796Y-118632944D01*
X125414496Y-118612500D01*
X125335504Y-118612500D01*
X125259204Y-118632944D01*
X125190795Y-118672440D01*
X125134940Y-118728295D01*
X125125000Y-118745511D01*
X125125000Y-117993616D01*
X125124999Y-117993615D01*
X125097899Y-117999006D01*
X125097896Y-117999007D01*
X124925008Y-118070619D01*
X124924999Y-118070624D01*
X124769410Y-118174586D01*
X124769406Y-118174589D01*
X124637089Y-118306906D01*
X124637086Y-118306910D01*
X124533124Y-118462499D01*
X124533119Y-118462508D01*
X124461508Y-118635394D01*
X124461506Y-118635402D01*
X124425000Y-118818928D01*
X117674999Y-118818928D01*
X117638493Y-118635402D01*
X117638491Y-118635394D01*
X117566880Y-118462508D01*
X117566875Y-118462499D01*
X117462913Y-118306910D01*
X117462910Y-118306906D01*
X117330593Y-118174589D01*
X117330589Y-118174586D01*
X117175000Y-118070624D01*
X117174991Y-118070619D01*
X117002103Y-117999007D01*
X117002100Y-117999006D01*
X116975000Y-117993615D01*
X116975000Y-118745511D01*
X116965060Y-118728295D01*
X116909205Y-118672440D01*
X116840796Y-118632944D01*
X116764496Y-118612500D01*
X116685504Y-118612500D01*
X116609204Y-118632944D01*
X116540795Y-118672440D01*
X116484940Y-118728295D01*
X116475000Y-118745511D01*
X116475000Y-117993616D01*
X116474999Y-117993615D01*
X116447899Y-117999006D01*
X116447896Y-117999007D01*
X116275008Y-118070619D01*
X116274999Y-118070624D01*
X116119410Y-118174586D01*
X116119406Y-118174589D01*
X115987089Y-118306906D01*
X115987086Y-118306910D01*
X115883124Y-118462499D01*
X115883119Y-118462508D01*
X115811508Y-118635394D01*
X115811506Y-118635402D01*
X115775000Y-118818928D01*
X114324999Y-118818928D01*
X114288493Y-118635402D01*
X114288491Y-118635394D01*
X114216880Y-118462508D01*
X114216875Y-118462499D01*
X114112913Y-118306910D01*
X114112910Y-118306906D01*
X113980593Y-118174589D01*
X113980589Y-118174586D01*
X113825000Y-118070624D01*
X113824991Y-118070619D01*
X113652103Y-117999007D01*
X113652100Y-117999006D01*
X113625000Y-117993615D01*
X113625000Y-118745511D01*
X113615060Y-118728295D01*
X113559205Y-118672440D01*
X113490796Y-118632944D01*
X113414496Y-118612500D01*
X113335504Y-118612500D01*
X113259204Y-118632944D01*
X113190795Y-118672440D01*
X113134940Y-118728295D01*
X113125000Y-118745511D01*
X113125000Y-117993616D01*
X113124999Y-117993615D01*
X113097899Y-117999006D01*
X113097896Y-117999007D01*
X112925008Y-118070619D01*
X112924999Y-118070624D01*
X112769410Y-118174586D01*
X112769406Y-118174589D01*
X112637089Y-118306906D01*
X112637086Y-118306910D01*
X112533124Y-118462499D01*
X112533119Y-118462508D01*
X112461508Y-118635394D01*
X112461506Y-118635402D01*
X112425000Y-118818928D01*
X105674999Y-118818928D01*
X105638493Y-118635402D01*
X105638491Y-118635394D01*
X105566880Y-118462508D01*
X105566875Y-118462499D01*
X105462913Y-118306910D01*
X105462910Y-118306906D01*
X105330593Y-118174589D01*
X105330589Y-118174586D01*
X105175000Y-118070624D01*
X105174991Y-118070619D01*
X105002103Y-117999007D01*
X105002100Y-117999006D01*
X104975000Y-117993615D01*
X104975000Y-118745511D01*
X104965060Y-118728295D01*
X104909205Y-118672440D01*
X104840796Y-118632944D01*
X104764496Y-118612500D01*
X104685504Y-118612500D01*
X104609204Y-118632944D01*
X104540795Y-118672440D01*
X104484940Y-118728295D01*
X104475000Y-118745511D01*
X104475000Y-117993616D01*
X104474999Y-117993615D01*
X104447899Y-117999006D01*
X104447896Y-117999007D01*
X104275008Y-118070619D01*
X104274999Y-118070624D01*
X104192891Y-118125488D01*
X104126213Y-118146366D01*
X104058833Y-118127882D01*
X104012143Y-118075903D01*
X104000000Y-118022386D01*
X104000000Y-116582613D01*
X104019685Y-116515574D01*
X104072489Y-116469819D01*
X104141647Y-116459875D01*
X104192892Y-116479511D01*
X104275005Y-116534378D01*
X104275012Y-116534382D01*
X104447889Y-116605989D01*
X104447896Y-116605991D01*
X104475000Y-116611382D01*
X104475000Y-115859488D01*
X104484940Y-115876705D01*
X104540795Y-115932560D01*
X104609204Y-115972056D01*
X104685504Y-115992500D01*
X104764496Y-115992500D01*
X104840796Y-115972056D01*
X104909205Y-115932560D01*
X104965060Y-115876705D01*
X104975000Y-115859488D01*
X104975000Y-116611381D01*
X105002103Y-116605991D01*
X105002110Y-116605989D01*
X105174987Y-116534382D01*
X105175000Y-116534375D01*
X105330589Y-116430413D01*
X105330593Y-116430410D01*
X105462910Y-116298093D01*
X105462913Y-116298089D01*
X105566875Y-116142500D01*
X105566879Y-116142493D01*
X105590930Y-116084427D01*
X105634770Y-116030023D01*
X105701064Y-116007957D01*
X105768764Y-116025235D01*
X105793173Y-116044197D01*
X105821985Y-116073009D01*
X105821986Y-116073010D01*
X105821988Y-116073011D01*
X105947511Y-116145482D01*
X105947512Y-116145482D01*
X105947515Y-116145484D01*
X106087525Y-116183000D01*
X106087528Y-116183000D01*
X106232472Y-116183000D01*
X106232475Y-116183000D01*
X106372485Y-116145484D01*
X106498015Y-116073009D01*
X106600509Y-115970515D01*
X106672984Y-115844985D01*
X106705160Y-115724902D01*
X106718950Y-115702279D01*
X106729409Y-115677935D01*
X106736851Y-115672910D01*
X106741524Y-115665245D01*
X106765357Y-115653667D01*
X106787319Y-115638842D01*
X106799900Y-115636887D01*
X106804371Y-115634716D01*
X106822131Y-115633031D01*
X106823546Y-115632999D01*
X106997872Y-115632999D01*
X107044306Y-115628007D01*
X107049546Y-115627889D01*
X107052068Y-115628568D01*
X107065606Y-115628568D01*
X107102166Y-115632499D01*
X107102182Y-115632500D01*
X107150000Y-115632500D01*
X107165611Y-115616888D01*
X107169685Y-115603015D01*
X107173581Y-115598829D01*
X107174732Y-115595745D01*
X107199686Y-115570789D01*
X107225689Y-115551323D01*
X107291152Y-115526906D01*
X107359425Y-115541757D01*
X107374305Y-115551320D01*
X107400312Y-115570789D01*
X107436108Y-115618608D01*
X107450000Y-115632500D01*
X107497819Y-115632500D01*
X107497833Y-115632499D01*
X107534395Y-115628568D01*
X107551229Y-115627909D01*
X107556077Y-115628048D01*
X107602127Y-115633000D01*
X107727611Y-115632999D01*
X107729401Y-115633051D01*
X107760980Y-115643321D01*
X107792863Y-115652683D01*
X107794256Y-115654144D01*
X107795845Y-115654661D01*
X107802416Y-115662702D01*
X107833210Y-115694998D01*
X107835479Y-115698928D01*
X107835485Y-115698936D01*
X107945748Y-115809199D01*
X107979233Y-115870522D01*
X107974249Y-115940214D01*
X107972628Y-115944332D01*
X107934106Y-116037332D01*
X107934103Y-116037341D01*
X107899500Y-116211304D01*
X107899500Y-116388695D01*
X107934103Y-116562658D01*
X107934106Y-116562667D01*
X108001983Y-116726540D01*
X108001990Y-116726553D01*
X108100535Y-116874034D01*
X108100538Y-116874038D01*
X108225961Y-116999461D01*
X108225965Y-116999464D01*
X108373446Y-117098009D01*
X108373459Y-117098016D01*
X108496363Y-117148923D01*
X108537334Y-117165894D01*
X108537336Y-117165894D01*
X108537341Y-117165896D01*
X108711304Y-117200499D01*
X108711307Y-117200500D01*
X108711309Y-117200500D01*
X108888693Y-117200500D01*
X108888694Y-117200499D01*
X108946682Y-117188964D01*
X109062658Y-117165896D01*
X109062661Y-117165894D01*
X109062666Y-117165894D01*
X109226547Y-117098013D01*
X109374035Y-116999464D01*
X109499464Y-116874035D01*
X109598013Y-116726547D01*
X109665894Y-116562666D01*
X109669903Y-116542515D01*
X109692201Y-116430413D01*
X109700500Y-116388691D01*
X109700500Y-116211309D01*
X109700500Y-116211306D01*
X109700499Y-116211304D01*
X109665896Y-116037341D01*
X109665893Y-116037332D01*
X109637840Y-115969605D01*
X109627370Y-115944329D01*
X109625415Y-115926143D01*
X109618545Y-115909191D01*
X109621758Y-115892128D01*
X109619902Y-115874862D01*
X109628091Y-115858502D01*
X109631476Y-115840529D01*
X109649498Y-115815736D01*
X109651177Y-115812383D01*
X109651826Y-115811692D01*
X109652997Y-115810452D01*
X109764515Y-115698936D01*
X109774068Y-115682389D01*
X109784069Y-115671812D01*
X109802180Y-115661252D01*
X109817354Y-115646784D01*
X109833865Y-115642778D01*
X109844428Y-115636620D01*
X109857001Y-115637165D01*
X109874175Y-115632999D01*
X109997870Y-115632999D01*
X109997872Y-115632999D01*
X110006711Y-115632048D01*
X110039094Y-115628568D01*
X110065606Y-115628568D01*
X110102166Y-115632499D01*
X110102182Y-115632500D01*
X110150000Y-115632500D01*
X110165611Y-115616888D01*
X110169685Y-115603015D01*
X110173581Y-115598829D01*
X110174732Y-115595745D01*
X110199686Y-115570789D01*
X110225689Y-115551323D01*
X110291152Y-115526906D01*
X110359425Y-115541757D01*
X110374305Y-115551320D01*
X110400312Y-115570789D01*
X110436108Y-115618608D01*
X110450000Y-115632500D01*
X110497819Y-115632500D01*
X110497833Y-115632499D01*
X110534395Y-115628568D01*
X110560905Y-115628568D01*
X110602127Y-115633000D01*
X110997872Y-115632999D01*
X110997873Y-115632998D01*
X110997885Y-115632998D01*
X111036744Y-115628820D01*
X111052695Y-115628138D01*
X111057976Y-115628252D01*
X111102127Y-115633000D01*
X111276443Y-115632999D01*
X111277760Y-115633028D01*
X111309842Y-115643210D01*
X111342105Y-115652683D01*
X111343021Y-115653740D01*
X111344356Y-115654164D01*
X111365838Y-115680073D01*
X111387860Y-115705487D01*
X111388586Y-115707508D01*
X111388953Y-115707950D01*
X111389059Y-115708822D01*
X111394838Y-115724897D01*
X111419179Y-115815736D01*
X111427017Y-115844988D01*
X111499488Y-115970511D01*
X111499490Y-115970513D01*
X111499491Y-115970515D01*
X111601985Y-116073009D01*
X111601986Y-116073010D01*
X111601988Y-116073011D01*
X111727511Y-116145482D01*
X111727512Y-116145482D01*
X111727515Y-116145484D01*
X111867525Y-116183000D01*
X111867528Y-116183000D01*
X112012472Y-116183000D01*
X112012475Y-116183000D01*
X112152485Y-116145484D01*
X112278015Y-116073009D01*
X112306828Y-116044195D01*
X112368147Y-116010712D01*
X112437839Y-116015696D01*
X112493773Y-116057566D01*
X112509068Y-116084426D01*
X112533117Y-116142487D01*
X112533124Y-116142500D01*
X112637086Y-116298089D01*
X112637089Y-116298093D01*
X112769406Y-116430410D01*
X112769410Y-116430413D01*
X112924999Y-116534375D01*
X112925012Y-116534382D01*
X113097889Y-116605989D01*
X113097896Y-116605991D01*
X113125000Y-116611382D01*
X113125000Y-115859488D01*
X113134940Y-115876705D01*
X113190795Y-115932560D01*
X113259204Y-115972056D01*
X113335504Y-115992500D01*
X113414496Y-115992500D01*
X113490796Y-115972056D01*
X113559205Y-115932560D01*
X113615060Y-115876705D01*
X113625000Y-115859488D01*
X113625000Y-116611382D01*
X113652103Y-116605991D01*
X113652110Y-116605989D01*
X113824987Y-116534382D01*
X113825000Y-116534375D01*
X113980589Y-116430413D01*
X113980593Y-116430410D01*
X114112910Y-116298093D01*
X114112913Y-116298089D01*
X114216875Y-116142500D01*
X114216880Y-116142491D01*
X114288491Y-115969605D01*
X114288493Y-115969597D01*
X114324999Y-115786071D01*
X114325000Y-115786069D01*
X114325000Y-115392500D01*
X113675000Y-115392500D01*
X113675000Y-114892500D01*
X114325000Y-114892500D01*
X114325000Y-114498930D01*
X114324999Y-114498928D01*
X114288493Y-114315402D01*
X114288491Y-114315394D01*
X114216880Y-114142508D01*
X114216875Y-114142499D01*
X114112913Y-113986910D01*
X114112910Y-113986906D01*
X113980593Y-113854589D01*
X113980589Y-113854586D01*
X113825000Y-113750624D01*
X113824991Y-113750619D01*
X113652103Y-113679007D01*
X113652100Y-113679006D01*
X113625000Y-113673615D01*
X113625000Y-114425511D01*
X113615060Y-114408295D01*
X113559205Y-114352440D01*
X113490796Y-114312944D01*
X113414496Y-114292500D01*
X113335504Y-114292500D01*
X113259204Y-114312944D01*
X113190795Y-114352440D01*
X113134940Y-114408295D01*
X113125000Y-114425511D01*
X113125000Y-113720431D01*
X112998932Y-113699930D01*
X112997925Y-113699447D01*
X112996817Y-113699567D01*
X112966502Y-113684392D01*
X112935922Y-113669740D01*
X112935336Y-113668790D01*
X112934338Y-113668291D01*
X112919569Y-113651848D01*
X112907193Y-113635315D01*
X112907185Y-113635308D01*
X112792093Y-113549149D01*
X112792086Y-113549145D01*
X112657379Y-113498903D01*
X112657372Y-113498901D01*
X112597844Y-113492500D01*
X112500000Y-113492500D01*
X112500000Y-114438500D01*
X112497449Y-114447185D01*
X112498738Y-114456147D01*
X112487759Y-114480187D01*
X112480315Y-114505539D01*
X112473474Y-114511466D01*
X112469713Y-114519703D01*
X112447478Y-114533992D01*
X112427511Y-114551294D01*
X112416996Y-114553581D01*
X112410935Y-114557477D01*
X112376000Y-114562500D01*
X112374499Y-114562500D01*
X112307460Y-114542815D01*
X112261705Y-114490011D01*
X112250499Y-114438500D01*
X112250499Y-113944629D01*
X112250498Y-113944623D01*
X112250497Y-113944616D01*
X112244091Y-113885017D01*
X112240886Y-113876425D01*
X112193797Y-113750171D01*
X112193793Y-113750164D01*
X112107547Y-113634955D01*
X112049688Y-113591641D01*
X112007818Y-113535707D01*
X112000027Y-113492527D01*
X112000000Y-113492500D01*
X111902165Y-113492500D01*
X111865598Y-113496431D01*
X111839092Y-113496431D01*
X111797873Y-113492000D01*
X111102130Y-113492000D01*
X111102119Y-113492001D01*
X111063253Y-113496179D01*
X111046472Y-113496839D01*
X111041591Y-113496700D01*
X110997873Y-113492000D01*
X110876547Y-113492000D01*
X110874781Y-113491950D01*
X110843147Y-113481674D01*
X110811272Y-113472315D01*
X110810073Y-113470931D01*
X110808329Y-113470365D01*
X110787265Y-113444610D01*
X110765517Y-113419511D01*
X110765256Y-113417698D01*
X110764096Y-113416280D01*
X110760302Y-113383247D01*
X110755573Y-113350353D01*
X110756334Y-113348686D01*
X110756125Y-113346866D01*
X110770791Y-113317029D01*
X110784598Y-113286797D01*
X110786831Y-113284398D01*
X110786947Y-113284163D01*
X110787183Y-113284020D01*
X110790615Y-113280334D01*
X112688320Y-111382630D01*
X112749642Y-111349146D01*
X112819334Y-111354130D01*
X112875267Y-111396002D01*
X112899684Y-111461466D01*
X112900000Y-111470312D01*
X112900000Y-112110344D01*
X112906401Y-112169872D01*
X112906403Y-112169879D01*
X112956645Y-112304586D01*
X112956649Y-112304593D01*
X113042809Y-112419687D01*
X113042812Y-112419690D01*
X113157906Y-112505850D01*
X113157913Y-112505854D01*
X113292620Y-112556096D01*
X113292627Y-112556098D01*
X113352155Y-112562499D01*
X113352172Y-112562500D01*
X114800000Y-112562500D01*
X115300000Y-112562500D01*
X116747828Y-112562500D01*
X116747844Y-112562499D01*
X116807372Y-112556098D01*
X116807379Y-112556096D01*
X116942086Y-112505854D01*
X116942093Y-112505850D01*
X117057187Y-112419690D01*
X117057190Y-112419687D01*
X117143350Y-112304593D01*
X117143354Y-112304586D01*
X117193596Y-112169879D01*
X117193598Y-112169872D01*
X117199999Y-112110344D01*
X118900000Y-112110344D01*
X118906401Y-112169872D01*
X118906403Y-112169879D01*
X118956645Y-112304586D01*
X118956649Y-112304593D01*
X119042809Y-112419687D01*
X119042812Y-112419690D01*
X119157906Y-112505850D01*
X119157913Y-112505854D01*
X119292620Y-112556096D01*
X119292627Y-112556098D01*
X119352155Y-112562499D01*
X119352172Y-112562500D01*
X120800000Y-112562500D01*
X120800000Y-111562500D01*
X118900000Y-111562500D01*
X118900000Y-112110344D01*
X117199999Y-112110344D01*
X117200000Y-112110327D01*
X117200000Y-111562500D01*
X115300000Y-111562500D01*
X115300000Y-112562500D01*
X114800000Y-112562500D01*
X114800000Y-111436500D01*
X114819685Y-111369461D01*
X114872489Y-111323706D01*
X114924000Y-111312500D01*
X115050000Y-111312500D01*
X115050000Y-111186500D01*
X115069685Y-111119461D01*
X115122489Y-111073706D01*
X115174000Y-111062500D01*
X117200000Y-111062500D01*
X117226181Y-111036319D01*
X117287504Y-111002834D01*
X117313862Y-111000000D01*
X118786138Y-111000000D01*
X118853177Y-111019685D01*
G37*
%TD.AperFunction*%
%TA.AperFunction,Conductor*%
G36*
X109593039Y-111082185D02*
G01*
X109638794Y-111134989D01*
X109650000Y-111186500D01*
X109650000Y-111312500D01*
X109776000Y-111312500D01*
X109843039Y-111332185D01*
X109888794Y-111384989D01*
X109900000Y-111436500D01*
X109900000Y-112477686D01*
X109880315Y-112544725D01*
X109863681Y-112565367D01*
X109545868Y-112883181D01*
X109484545Y-112916666D01*
X109458187Y-112919500D01*
X109006075Y-112919500D01*
X108922103Y-112941999D01*
X108922104Y-112942000D01*
X108858431Y-112959061D01*
X108726068Y-113035481D01*
X108726062Y-113035486D01*
X108335486Y-113426062D01*
X108335477Y-113426074D01*
X108333206Y-113430008D01*
X108325767Y-113437099D01*
X108321758Y-113446567D01*
X108300904Y-113460802D01*
X108282635Y-113478220D01*
X108271006Y-113481212D01*
X108264052Y-113485960D01*
X108234269Y-113490665D01*
X108229271Y-113491952D01*
X108227531Y-113492000D01*
X108102128Y-113492001D01*
X108058372Y-113496704D01*
X108053449Y-113496841D01*
X108050938Y-113496179D01*
X108036748Y-113496179D01*
X107997874Y-113492000D01*
X107602132Y-113492000D01*
X107602117Y-113492001D01*
X107576177Y-113494789D01*
X107576170Y-113494791D01*
X107542517Y-113498409D01*
X107407669Y-113548704D01*
X107374308Y-113573677D01*
X107308845Y-113598093D01*
X107240572Y-113583241D01*
X107225694Y-113573679D01*
X107199688Y-113554211D01*
X107163887Y-113506387D01*
X107150000Y-113492500D01*
X107102165Y-113492500D01*
X107065598Y-113496431D01*
X107039092Y-113496431D01*
X106997873Y-113492000D01*
X106302132Y-113492000D01*
X106302117Y-113492001D01*
X106260904Y-113496431D01*
X106234402Y-113496431D01*
X106197834Y-113492500D01*
X106100000Y-113492500D01*
X106099948Y-113492551D01*
X106080315Y-113559414D01*
X106050312Y-113591641D01*
X105992452Y-113634955D01*
X105906206Y-113750164D01*
X105906202Y-113750171D01*
X105855908Y-113885017D01*
X105849501Y-113944616D01*
X105849501Y-113944623D01*
X105849500Y-113944635D01*
X105849500Y-114438500D01*
X105846949Y-114447185D01*
X105848238Y-114456147D01*
X105837259Y-114480187D01*
X105829815Y-114505539D01*
X105822974Y-114511466D01*
X105819213Y-114519703D01*
X105796978Y-114533992D01*
X105777011Y-114551294D01*
X105766496Y-114553581D01*
X105760435Y-114557477D01*
X105725500Y-114562500D01*
X105724000Y-114562500D01*
X105656961Y-114542815D01*
X105611206Y-114490011D01*
X105600000Y-114438500D01*
X105600000Y-113492500D01*
X105502155Y-113492500D01*
X105442627Y-113498901D01*
X105442620Y-113498903D01*
X105307913Y-113549145D01*
X105307906Y-113549149D01*
X105192812Y-113635309D01*
X105192808Y-113635313D01*
X105180426Y-113651853D01*
X105124491Y-113693722D01*
X105054799Y-113698703D01*
X105033711Y-113692100D01*
X105002098Y-113679006D01*
X105002100Y-113679006D01*
X104975000Y-113673615D01*
X104975000Y-114425511D01*
X104965060Y-114408295D01*
X104909205Y-114352440D01*
X104840796Y-114312944D01*
X104764496Y-114292500D01*
X104685504Y-114292500D01*
X104609204Y-114312944D01*
X104540795Y-114352440D01*
X104484940Y-114408295D01*
X104475000Y-114425511D01*
X104475000Y-113673616D01*
X104464811Y-113665254D01*
X104431234Y-113662250D01*
X104376057Y-113619386D01*
X104352813Y-113553497D01*
X104368881Y-113485500D01*
X104407742Y-113443759D01*
X104474035Y-113399464D01*
X104599464Y-113274035D01*
X104698013Y-113126547D01*
X104765894Y-112962666D01*
X104766612Y-112959060D01*
X104800499Y-112788695D01*
X104800500Y-112788693D01*
X104800500Y-112611306D01*
X104780088Y-112508692D01*
X104786315Y-112439100D01*
X104829178Y-112383923D01*
X104895067Y-112360678D01*
X104901705Y-112360500D01*
X105234682Y-112360500D01*
X105234690Y-112360500D01*
X105270993Y-112357643D01*
X105270995Y-112357642D01*
X105270997Y-112357642D01*
X105426389Y-112312496D01*
X105426389Y-112312495D01*
X105426395Y-112312494D01*
X105486882Y-112276721D01*
X105554602Y-112259540D01*
X105613117Y-112276721D01*
X105673605Y-112312494D01*
X105673608Y-112312494D01*
X105673610Y-112312496D01*
X105829002Y-112357642D01*
X105829005Y-112357642D01*
X105829007Y-112357643D01*
X105865310Y-112360500D01*
X105865318Y-112360500D01*
X106334682Y-112360500D01*
X106334690Y-112360500D01*
X106370993Y-112357643D01*
X106514747Y-112315878D01*
X106584616Y-112316077D01*
X106643286Y-112354019D01*
X106648608Y-112360642D01*
X106692812Y-112419690D01*
X106807906Y-112505850D01*
X106807913Y-112505854D01*
X106942620Y-112556096D01*
X106942627Y-112556098D01*
X107002155Y-112562499D01*
X107002172Y-112562500D01*
X107575000Y-112562500D01*
X108075000Y-112562500D01*
X109400000Y-112562500D01*
X109400000Y-111562500D01*
X108075000Y-111562500D01*
X108075000Y-112562500D01*
X107575000Y-112562500D01*
X107575000Y-111436500D01*
X107594685Y-111369461D01*
X107647489Y-111323706D01*
X107699000Y-111312500D01*
X107825000Y-111312500D01*
X107825000Y-111186500D01*
X107844685Y-111119461D01*
X107897489Y-111073706D01*
X107949000Y-111062500D01*
X109526000Y-111062500D01*
X109593039Y-111082185D01*
G37*
%TD.AperFunction*%
%TA.AperFunction,Conductor*%
G36*
X149862539Y-111019685D02*
G01*
X149908294Y-111072489D01*
X149919500Y-111124000D01*
X149919500Y-113604187D01*
X149899815Y-113671226D01*
X149847011Y-113716981D01*
X149777853Y-113726925D01*
X149748048Y-113718748D01*
X149652107Y-113679008D01*
X149652100Y-113679006D01*
X149625000Y-113673615D01*
X149625000Y-114425511D01*
X149615060Y-114408295D01*
X149559205Y-114352440D01*
X149490796Y-114312944D01*
X149414496Y-114292500D01*
X149335504Y-114292500D01*
X149259204Y-114312944D01*
X149190795Y-114352440D01*
X149134940Y-114408295D01*
X149125000Y-114425511D01*
X149125000Y-113673616D01*
X149124999Y-113673615D01*
X149097899Y-113679006D01*
X149097897Y-113679007D01*
X149066287Y-113692100D01*
X148996817Y-113699567D01*
X148934338Y-113668291D01*
X148919569Y-113651848D01*
X148907193Y-113635315D01*
X148907185Y-113635308D01*
X148792093Y-113549149D01*
X148792086Y-113549145D01*
X148657379Y-113498903D01*
X148657372Y-113498901D01*
X148597844Y-113492500D01*
X148500000Y-113492500D01*
X148500000Y-114438500D01*
X148497449Y-114447185D01*
X148498738Y-114456147D01*
X148487759Y-114480187D01*
X148480315Y-114505539D01*
X148473474Y-114511466D01*
X148469713Y-114519703D01*
X148447478Y-114533992D01*
X148427511Y-114551294D01*
X148416996Y-114553581D01*
X148410935Y-114557477D01*
X148376000Y-114562500D01*
X148374499Y-114562500D01*
X148307460Y-114542815D01*
X148261705Y-114490011D01*
X148250499Y-114438500D01*
X148250499Y-113944629D01*
X148250498Y-113944623D01*
X148250497Y-113944616D01*
X148244091Y-113885017D01*
X148240886Y-113876425D01*
X148193797Y-113750171D01*
X148193793Y-113750164D01*
X148107547Y-113634955D01*
X148049688Y-113591641D01*
X148007818Y-113535707D01*
X148000027Y-113492527D01*
X148000000Y-113492500D01*
X147902165Y-113492500D01*
X147865598Y-113496431D01*
X147839092Y-113496431D01*
X147797873Y-113492000D01*
X147102130Y-113492000D01*
X147102119Y-113492001D01*
X147063253Y-113496179D01*
X147036748Y-113496179D01*
X146997874Y-113492000D01*
X146602132Y-113492000D01*
X146602117Y-113492001D01*
X146560904Y-113496431D01*
X146555698Y-113496880D01*
X146391356Y-113507564D01*
X146365944Y-113501863D01*
X146339975Y-113500005D01*
X146332407Y-113494339D01*
X146323181Y-113492270D01*
X146304887Y-113473737D01*
X146284042Y-113458132D01*
X146275925Y-113445826D01*
X146264516Y-113426065D01*
X145873937Y-113035486D01*
X145873936Y-113035485D01*
X145873935Y-113035484D01*
X145785688Y-112984534D01*
X145741567Y-112959061D01*
X145741566Y-112959060D01*
X145677895Y-112942000D01*
X145667744Y-112939280D01*
X145667741Y-112939279D01*
X145636543Y-112930919D01*
X145593925Y-112919500D01*
X145593924Y-112919500D01*
X144569313Y-112919500D01*
X144502274Y-112899815D01*
X144481632Y-112883181D01*
X144236319Y-112637868D01*
X144202834Y-112576545D01*
X144201324Y-112562500D01*
X144700000Y-112562500D01*
X146025000Y-112562500D01*
X146525000Y-112562500D01*
X147097828Y-112562500D01*
X147097844Y-112562499D01*
X147157372Y-112556098D01*
X147157379Y-112556096D01*
X147292086Y-112505854D01*
X147292093Y-112505850D01*
X147407187Y-112419690D01*
X147407190Y-112419687D01*
X147493350Y-112304593D01*
X147493354Y-112304586D01*
X147543596Y-112169879D01*
X147543598Y-112169872D01*
X147549999Y-112110344D01*
X147550000Y-112110327D01*
X147550000Y-111562500D01*
X146525000Y-111562500D01*
X146525000Y-112562500D01*
X146025000Y-112562500D01*
X146025000Y-111562500D01*
X144700000Y-111562500D01*
X144700000Y-112562500D01*
X144201324Y-112562500D01*
X144200000Y-112550187D01*
X144200000Y-111436500D01*
X144219685Y-111369461D01*
X144272489Y-111323706D01*
X144324000Y-111312500D01*
X144450000Y-111312500D01*
X144450000Y-111186500D01*
X144469685Y-111119461D01*
X144522489Y-111073706D01*
X144574000Y-111062500D01*
X147550000Y-111062500D01*
X147576181Y-111036319D01*
X147637504Y-111002834D01*
X147663862Y-111000000D01*
X149795500Y-111000000D01*
X149862539Y-111019685D01*
G37*
%TD.AperFunction*%
%TD*%
M02*
